M48
; DRILL file {KiCad 9.0.9-9.0.9~ubuntu24.04.1} date 2026-08-18T10:44:49+0000
; FORMAT={-:-/ absolute / metric / decimal}
; #@! TF.CreationDate,2026-08-18T10:44:49+00:00
; #@! TF.GenerationSoftware,Kicad,Pcbnew,9.0.9-9.0.9~ubuntu24.04.1
; #@! TF.FileFunction,MixedPlating,1,2
FMAT,2
METRIC
; #@! TA.AperFunction,Plated,PTH,ViaDrill
T1C0.300
; #@! TA.AperFunction,Plated,PTH,ComponentDrill
T2C0.800
; #@! TA.AperFunction,Plated,PTH,ComponentDrill
T3C1.000
; #@! TA.AperFunction,Plated,PTH,ComponentDrill
T4C1.100
%
G90
G05
T1
X3.11Y-105.821
X10.482Y-93.854
X18.535Y-92.566
X21.84Y-78.21
X22.06Y-28.557
X26.963Y-45.915
X31.317Y-78.999
X36.869Y-23.493
X42.046Y-26.06
X63.486Y-7.03
X78.274Y-78.21
X81.231Y-33.882
X84.189Y-60.479
X85.46Y-48.296
X85.504Y-32.057
X85.589Y-54.489
X85.981Y-30.705
X86.357Y-13.135
X86.886Y-21.108
X87.146Y-12.563
X87.616Y-91.105
X89.894Y-60.453
X93.618Y-21.886
X94.646Y-59.621
X95.477Y-60.453
X95.802Y-32.057
X96.508Y-48.296
X97.04Y-55.388
X97.217Y-21.108
X104.891Y-21.108
X107.849Y-13.832
X107.954Y-28.557
X112.318Y-16.806
X114.517Y-8.352
T2
X11.316Y-44.145
X14.816Y-44.145
T3
X9.56Y-13.848
X9.56Y-18.242
X12.06Y-13.848
X12.06Y-18.242
X14.56Y-13.848
X14.56Y-18.242
X17.06Y-13.848
X17.06Y-18.242
X19.56Y-13.848
X19.56Y-18.242
X22.06Y-13.848
X22.06Y-18.242
X43.636Y-9.618
X43.636Y-12.158
X43.636Y-14.698
X43.636Y-17.238
X43.636Y-19.778
X43.636Y-22.318
X43.636Y-24.858
X43.636Y-27.398
X43.636Y-29.938
X43.636Y-32.478
X43.636Y-35.018
X43.636Y-37.558
X43.636Y-40.098
X43.636Y-42.638
X43.636Y-45.178
X69.036Y-9.618
X69.036Y-12.158
X69.036Y-14.698
X69.036Y-17.238
X69.036Y-19.778
X69.036Y-22.318
X69.036Y-24.858
X69.036Y-27.398
X69.036Y-29.938
X69.036Y-32.478
X69.036Y-35.018
X69.036Y-37.558
X69.036Y-40.098
X69.036Y-42.638
X69.036Y-45.178
X86.596Y-34.248
X86.596Y-36.788
X86.596Y-74.765
X86.596Y-77.305
X86.596Y-103.281
X86.596Y-105.821
T4
X9.57Y-90.291
X11.316Y-38.145
X12.11Y-90.291
X13.855Y-38.145
X14.65Y-90.291
X16.395Y-38.145
X23.316Y-44.145
X25.855Y-44.145
X28.395Y-44.145
M30
