%TF.GenerationSoftware,KiCad,Pcbnew,9.0.9-9.0.9~ubuntu24.04.1*%
%TF.CreationDate,2026-08-18T10:44:49+00:00*%
%TF.ProjectId,AirLift-V2-PCB,4169724c-6966-4742-9d56-322d5043422e,rev?*%
%TF.SameCoordinates,Original*%
%TF.FileFunction,Soldermask,Bot*%
%TF.FilePolarity,Negative*%
%FSLAX46Y46*%
G04 Gerber Fmt 4.6, Leading zero omitted, Abs format (unit mm)*
G04 Created by KiCad (PCBNEW 9.0.9-9.0.9~ubuntu24.04.1) date 2026-08-18 10:44:49*
%MOMM*%
%LPD*%
G01*
G04 APERTURE LIST*
G04 Aperture macros list*
%AMRoundRect*
0 Rectangle with rounded corners*
0 $1 Rounding radius*
0 $2 $3 $4 $5 $6 $7 $8 $9 X,Y pos of 4 corners*
0 Add a 4 corners polygon primitive as box body*
4,1,4,$2,$3,$4,$5,$6,$7,$8,$9,$2,$3,0*
0 Add four circle primitives for the rounded corners*
1,1,$1+$1,$2,$3*
1,1,$1+$1,$4,$5*
1,1,$1+$1,$6,$7*
1,1,$1+$1,$8,$9*
0 Add four rect primitives between the rounded corners*
20,1,$1+$1,$2,$3,$4,$5,0*
20,1,$1+$1,$4,$5,$6,$7,0*
20,1,$1+$1,$6,$7,$8,$9,0*
20,1,$1+$1,$8,$9,$2,$3,0*%
G04 Aperture macros list end*
%ADD10R,1.700000X1.700000*%
%ADD11C,1.700000*%
%ADD12RoundRect,0.250000X-0.550000X-0.550000X0.550000X-0.550000X0.550000X0.550000X-0.550000X0.550000X0*%
%ADD13C,1.600000*%
%ADD14R,1.800000X1.800000*%
%ADD15C,1.800000*%
%ADD16R,1.905000X2.000000*%
%ADD17O,1.905000X2.000000*%
G04 APERTURE END LIST*
D10*
%TO.C,J_DEVKIT_R*%
X69036400Y-9618200D03*
D11*
X69036400Y-12158200D03*
X69036400Y-14698200D03*
X69036400Y-17238200D03*
X69036400Y-19778200D03*
X69036400Y-22318200D03*
X69036400Y-24858200D03*
X69036400Y-27398200D03*
X69036400Y-29938200D03*
X69036400Y-32478200D03*
X69036400Y-35018200D03*
X69036400Y-37558200D03*
X69036400Y-40098200D03*
X69036400Y-42638200D03*
X69036400Y-45178200D03*
%TD*%
D12*
%TO.C,C_BULK*%
X11315500Y-44144700D03*
D13*
X14815500Y-44144700D03*
%TD*%
D14*
%TO.C,J1*%
X22060000Y-13848200D03*
D15*
X19560000Y-13848200D03*
X17060000Y-13848200D03*
X14560000Y-13848200D03*
X12060000Y-13848200D03*
X9560000Y-13848200D03*
X22060000Y-18242400D03*
X19560000Y-18242400D03*
X17060000Y-18242400D03*
X14560000Y-18242400D03*
X12060000Y-18242400D03*
X9560000Y-18242400D03*
%TD*%
D16*
%TO.C,Q_REV*%
X11315500Y-38144700D03*
D17*
X13855500Y-38144700D03*
X16395500Y-38144700D03*
%TD*%
D10*
%TO.C,J_DEVKIT_L*%
X43636400Y-9618200D03*
D11*
X43636400Y-12158200D03*
X43636400Y-14698200D03*
X43636400Y-17238200D03*
X43636400Y-19778200D03*
X43636400Y-22318200D03*
X43636400Y-24858200D03*
X43636400Y-27398200D03*
X43636400Y-29938200D03*
X43636400Y-32478200D03*
X43636400Y-35018200D03*
X43636400Y-37558200D03*
X43636400Y-40098200D03*
X43636400Y-42638200D03*
X43636400Y-45178200D03*
%TD*%
D10*
%TO.C,JP2*%
X86596000Y-74764700D03*
D11*
X86596000Y-77304700D03*
%TD*%
D10*
%TO.C,JP1*%
X86596000Y-34248200D03*
D11*
X86596000Y-36788200D03*
%TD*%
D10*
%TO.C,JP3*%
X86596000Y-103281200D03*
D11*
X86596000Y-105821200D03*
%TD*%
D16*
%TO.C,U_REG*%
X23315500Y-44144700D03*
D17*
X25855500Y-44144700D03*
X28395500Y-44144700D03*
%TD*%
D16*
%TO.C,Q1*%
X9570000Y-90291200D03*
D17*
X12110000Y-90291200D03*
X14650000Y-90291200D03*
%TD*%
M02*
