%TF.GenerationSoftware,KiCad,Pcbnew,9.0.9-9.0.9~ubuntu24.04.1*%
%TF.CreationDate,2026-08-18T10:44:49+00:00*%
%TF.ProjectId,AirLift-V2-PCB,4169724c-6966-4742-9d56-322d5043422e,rev?*%
%TF.SameCoordinates,Original*%
%TF.FileFunction,Other,User*%
%FSLAX46Y46*%
G04 Gerber Fmt 4.6, Leading zero omitted, Abs format (unit mm)*
G04 Created by KiCad (PCBNEW 9.0.9-9.0.9~ubuntu24.04.1) date 2026-08-18 10:44:49*
%MOMM*%
%LPD*%
G01*
G04 APERTURE LIST*
%ADD10C,0.050000*%
%ADD11C,0.120000*%
G04 APERTURE END LIST*
%TO.C,C_REGOUT2*%
D10*
X21015500Y-62994700D02*
X25615500Y-62994700D01*
X25615500Y-65294700D01*
X21015500Y-65294700D01*
X21015500Y-62994700D01*
%TO.C,J_DEVKIT_R*%
X67236400Y-7818200D02*
X70786400Y-7818200D01*
X67236400Y-46918200D02*
X67236400Y-7818200D01*
X70786400Y-7818200D02*
X70786400Y-46918200D01*
X70786400Y-46918200D02*
X67236400Y-46918200D01*
%TO.C,R4*%
X19890000Y-95341200D02*
X23250000Y-95341200D01*
X23250000Y-97241200D01*
X19890000Y-97241200D01*
X19890000Y-95341200D01*
%TO.C,R10*%
X117261200Y-27094700D02*
X120621200Y-27094700D01*
X120621200Y-28994700D01*
X117261200Y-28994700D01*
X117261200Y-27094700D01*
%TO.C,R_RXD1*%
X93916000Y-9298200D02*
X97276000Y-9298200D01*
X97276000Y-11198200D01*
X93916000Y-11198200D01*
X93916000Y-9298200D01*
%TO.C,C_BULK*%
X17315500Y-44144700D02*
G75*
G02*
X8815500Y-44144700I-4250000J0D01*
G01*
X8815500Y-44144700D02*
G75*
G02*
X17315500Y-44144700I4250000J0D01*
G01*
%TO.C,R2*%
X109725500Y-14648200D02*
X113085500Y-14648200D01*
X113085500Y-16548200D01*
X109725500Y-16548200D01*
X109725500Y-14648200D01*
%TO.C,C_REGIN1*%
X9615500Y-57164700D02*
X13015500Y-57164700D01*
X13015500Y-59124700D01*
X9615500Y-59124700D01*
X9615500Y-57164700D01*
%TO.C,D5*%
X93246000Y-67614700D02*
X93246000Y-69914700D01*
X93246000Y-67614700D02*
X97946000Y-67614700D01*
X97946000Y-67614700D02*
X97946000Y-69914700D01*
X97946000Y-69914700D02*
X93246000Y-69914700D01*
%TO.C,C_REGOUT1*%
X9615500Y-63164700D02*
X13015500Y-63164700D01*
X13015500Y-65124700D01*
X9615500Y-65124700D01*
X9615500Y-63164700D01*
%TO.C,R6*%
X84916000Y-27298200D02*
X88276000Y-27298200D01*
X88276000Y-29198200D01*
X84916000Y-29198200D01*
X84916000Y-27298200D01*
%TO.C,J1*%
D11*
X6060000Y-9848200D02*
X25560000Y-9848200D01*
X25560000Y-22248200D01*
X6060000Y-22248200D01*
X6060000Y-9848200D01*
D10*
%TO.C,U_CAN*%
X82896000Y-88821200D02*
X84396000Y-88821200D01*
X82896000Y-93741200D02*
X82896000Y-88821200D01*
X84396000Y-88581200D02*
X88796000Y-88581200D01*
X84396000Y-88821200D02*
X84396000Y-88581200D01*
X84396000Y-93741200D02*
X82896000Y-93741200D01*
X84396000Y-93981200D02*
X84396000Y-93741200D01*
X88796000Y-88581200D02*
X88796000Y-88821200D01*
X88796000Y-88821200D02*
X90296000Y-88821200D01*
X88796000Y-93741200D02*
X88796000Y-93981200D01*
X88796000Y-93981200D02*
X84396000Y-93981200D01*
X90296000Y-88821200D02*
X90296000Y-93741200D01*
X90296000Y-93741200D02*
X88796000Y-93741200D01*
%TO.C,C_WAKE1*%
X93896000Y-21268200D02*
X97296000Y-21268200D01*
X97296000Y-23228200D01*
X93896000Y-23228200D01*
X93896000Y-21268200D01*
%TO.C,U_LIN2*%
X82896000Y-48304700D02*
X84396000Y-48304700D01*
X82896000Y-53224700D02*
X82896000Y-48304700D01*
X84396000Y-48064700D02*
X88796000Y-48064700D01*
X84396000Y-48304700D02*
X84396000Y-48064700D01*
X84396000Y-53224700D02*
X82896000Y-53224700D01*
X84396000Y-53464700D02*
X84396000Y-53224700D01*
X88796000Y-48064700D02*
X88796000Y-48304700D01*
X88796000Y-48304700D02*
X90296000Y-48304700D01*
X88796000Y-53224700D02*
X88796000Y-53464700D01*
X88796000Y-53464700D02*
X84396000Y-53464700D01*
X90296000Y-48304700D02*
X90296000Y-53224700D01*
X90296000Y-53224700D02*
X88796000Y-53224700D01*
%TO.C,Q_REV*%
X8605500Y-34744700D02*
X19105500Y-34744700D01*
X19105500Y-39644700D01*
X8605500Y-39644700D01*
X8605500Y-34744700D01*
%TO.C,C_33IN*%
X21615500Y-69164700D02*
X25015500Y-69164700D01*
X25015500Y-71124700D01*
X21615500Y-71124700D01*
X21615500Y-69164700D01*
%TO.C,C_WAKE2*%
X93896000Y-61784700D02*
X97296000Y-61784700D01*
X97296000Y-63744700D01*
X93896000Y-63744700D01*
X93896000Y-61784700D01*
%TO.C,C_CANV2*%
X84296000Y-96131200D02*
X88896000Y-96131200D01*
X88896000Y-98431200D01*
X84296000Y-98431200D01*
X84296000Y-96131200D01*
%TO.C,C_LINF2*%
X84896000Y-61784700D02*
X88296000Y-61784700D01*
X88296000Y-63744700D01*
X84896000Y-63744700D01*
X84896000Y-61784700D01*
%TO.C,R7*%
X84916000Y-67814700D02*
X88276000Y-67814700D01*
X88276000Y-69714700D01*
X84916000Y-69714700D01*
X84916000Y-67814700D01*
%TO.C,J_DEVKIT_L*%
X41836400Y-7818200D02*
X45386400Y-7818200D01*
X41836400Y-46918200D02*
X41836400Y-7818200D01*
X45386400Y-7818200D02*
X45386400Y-46918200D01*
X45386400Y-46918200D02*
X41836400Y-46918200D01*
%TO.C,C_BAT1A*%
X84296000Y-15098200D02*
X88896000Y-15098200D01*
X88896000Y-17398200D01*
X84296000Y-17398200D01*
X84296000Y-15098200D01*
%TO.C,C_BAT1B*%
X93896000Y-15268200D02*
X97296000Y-15268200D01*
X97296000Y-17228200D01*
X93896000Y-17228200D01*
X93896000Y-15268200D01*
%TO.C,D2*%
X6070000Y-100541200D02*
X13070000Y-100541200D01*
X6070000Y-104041200D02*
X6070000Y-100541200D01*
X13070000Y-100541200D02*
X13070000Y-104041200D01*
X13070000Y-104041200D02*
X6070000Y-104041200D01*
%TO.C,JP2*%
X84826000Y-72994700D02*
X88366000Y-72994700D01*
X88366000Y-79084700D01*
X84826000Y-79084700D01*
X84826000Y-72994700D01*
%TO.C,JP1*%
X84826000Y-32478200D02*
X88366000Y-32478200D01*
X88366000Y-38568200D01*
X84826000Y-38568200D01*
X84826000Y-32478200D01*
%TO.C,R9*%
X108261200Y-27094700D02*
X111621200Y-27094700D01*
X111621200Y-28994700D01*
X108261200Y-28994700D01*
X108261200Y-27094700D01*
%TO.C,C_33OUT2*%
X21015500Y-74994700D02*
X25615500Y-74994700D01*
X25615500Y-77294700D01*
X21015500Y-77294700D01*
X21015500Y-74994700D01*
%TO.C,U_OPTO*%
X105555500Y-7778200D02*
X107355500Y-7778200D01*
X105555500Y-11418200D02*
X105555500Y-7778200D01*
X107355500Y-7548200D02*
X115455500Y-7548200D01*
X107355500Y-7778200D02*
X107355500Y-7548200D01*
X107355500Y-11418200D02*
X105555500Y-11418200D01*
X107355500Y-11648200D02*
X107355500Y-11418200D01*
X115455500Y-7548200D02*
X115455500Y-7778200D01*
X115455500Y-7778200D02*
X117255500Y-7778200D01*
X115455500Y-11418200D02*
X115455500Y-11648200D01*
X115455500Y-11648200D02*
X107355500Y-11648200D01*
X117255500Y-7778200D02*
X117255500Y-11418200D01*
X117255500Y-11418200D02*
X115455500Y-11418200D01*
%TO.C,C_REGIN2*%
X21015500Y-56994700D02*
X25615500Y-56994700D01*
X25615500Y-59294700D01*
X21015500Y-59294700D01*
X21015500Y-56994700D01*
%TO.C,D3*%
X116905500Y-13848200D02*
X123905500Y-13848200D01*
X116905500Y-17348200D02*
X116905500Y-13848200D01*
X123905500Y-13848200D02*
X123905500Y-17348200D01*
X123905500Y-17348200D02*
X116905500Y-17348200D01*
%TO.C,U_33*%
X6915500Y-66544700D02*
X6915500Y-73744700D01*
X6915500Y-73744700D02*
X15715500Y-73744700D01*
X15715500Y-66544700D02*
X6915500Y-66544700D01*
X15715500Y-73744700D02*
X15715500Y-66544700D01*
%TO.C,U_LIN1*%
X82896000Y-7788200D02*
X84396000Y-7788200D01*
X82896000Y-12708200D02*
X82896000Y-7788200D01*
X84396000Y-7548200D02*
X88796000Y-7548200D01*
X84396000Y-7788200D02*
X84396000Y-7548200D01*
X84396000Y-12708200D02*
X82896000Y-12708200D01*
X84396000Y-12948200D02*
X84396000Y-12708200D01*
X88796000Y-7548200D02*
X88796000Y-7788200D01*
X88796000Y-7788200D02*
X90296000Y-7788200D01*
X88796000Y-12708200D02*
X88796000Y-12948200D01*
X88796000Y-12948200D02*
X84396000Y-12948200D01*
X90296000Y-7788200D02*
X90296000Y-12708200D01*
X90296000Y-12708200D02*
X88796000Y-12708200D01*
%TO.C,D4*%
X93246000Y-27098200D02*
X93246000Y-29398200D01*
X93246000Y-27098200D02*
X97946000Y-27098200D01*
X97946000Y-27098200D02*
X97946000Y-29398200D01*
X97946000Y-29398200D02*
X93246000Y-29398200D01*
%TO.C,R8*%
X93916000Y-96331200D02*
X97276000Y-96331200D01*
X97276000Y-98231200D01*
X93916000Y-98231200D01*
X93916000Y-96331200D01*
%TO.C,R1*%
X118725500Y-8648200D02*
X122085500Y-8648200D01*
X122085500Y-10548200D01*
X118725500Y-10548200D01*
X118725500Y-8648200D01*
%TO.C,C16*%
X117241200Y-33064700D02*
X120641200Y-33064700D01*
X120641200Y-35024700D01*
X117241200Y-35024700D01*
X117241200Y-33064700D01*
%TO.C,C_33OUT1*%
X9615500Y-75164700D02*
X13015500Y-75164700D01*
X13015500Y-77124700D01*
X9615500Y-77124700D01*
X9615500Y-75164700D01*
%TO.C,R_REV*%
X21635500Y-37194700D02*
X24995500Y-37194700D01*
X24995500Y-39094700D01*
X21635500Y-39094700D01*
X21635500Y-37194700D01*
%TO.C,JP3*%
X84826000Y-101511200D02*
X88366000Y-101511200D01*
X88366000Y-107601200D01*
X84826000Y-107601200D01*
X84826000Y-101511200D01*
%TO.C,U_REG*%
X20605500Y-40744700D02*
X31105500Y-40744700D01*
X31105500Y-45644700D01*
X20605500Y-45644700D01*
X20605500Y-40744700D01*
%TO.C,Q1*%
X6860000Y-86891200D02*
X17360000Y-86891200D01*
X17360000Y-91791200D01*
X6860000Y-91791200D01*
X6860000Y-86891200D01*
%TO.C,C_BAT2B*%
X93896000Y-55784700D02*
X97296000Y-55784700D01*
X97296000Y-57744700D01*
X93896000Y-57744700D01*
X93896000Y-55784700D01*
%TO.C,D_Z1*%
X108011200Y-32544700D02*
X109041200Y-32544700D01*
X108011200Y-33654700D02*
X108011200Y-32544700D01*
X108011200Y-34434700D02*
X109041200Y-34434700D01*
X108011200Y-35544700D02*
X108011200Y-34434700D01*
X109041200Y-32344700D02*
X110841200Y-32344700D01*
X109041200Y-32544700D02*
X109041200Y-32344700D01*
X109041200Y-33654700D02*
X108011200Y-33654700D01*
X109041200Y-34434700D02*
X109041200Y-33654700D01*
X109041200Y-35544700D02*
X108011200Y-35544700D01*
X109041200Y-35744700D02*
X109041200Y-35544700D01*
X110841200Y-32344700D02*
X110841200Y-33494700D01*
X110841200Y-33494700D02*
X111871200Y-33494700D01*
X110841200Y-34594700D02*
X110841200Y-35744700D01*
X110841200Y-35744700D02*
X109041200Y-35744700D01*
X111871200Y-33494700D02*
X111871200Y-34594700D01*
X111871200Y-34594700D02*
X110841200Y-34594700D01*
%TO.C,Q2*%
X19640000Y-88791200D02*
X20670000Y-88791200D01*
X19640000Y-89901200D02*
X19640000Y-88791200D01*
X19640000Y-90681200D02*
X20670000Y-90681200D01*
X19640000Y-91791200D02*
X19640000Y-90681200D01*
X20670000Y-88591200D02*
X22470000Y-88591200D01*
X20670000Y-88791200D02*
X20670000Y-88591200D01*
X20670000Y-89901200D02*
X19640000Y-89901200D01*
X20670000Y-90681200D02*
X20670000Y-89901200D01*
X20670000Y-91791200D02*
X19640000Y-91791200D01*
X20670000Y-91991200D02*
X20670000Y-91791200D01*
X22470000Y-88591200D02*
X22470000Y-89741200D01*
X22470000Y-89741200D02*
X23500000Y-89741200D01*
X22470000Y-90841200D02*
X22470000Y-91991200D01*
X22470000Y-91991200D02*
X20670000Y-91991200D01*
X23500000Y-89741200D02*
X23500000Y-90841200D01*
X23500000Y-90841200D02*
X22470000Y-90841200D01*
%TO.C,R3*%
X7890000Y-95341200D02*
X11250000Y-95341200D01*
X11250000Y-97241200D01*
X7890000Y-97241200D01*
X7890000Y-95341200D01*
%TO.C,C_LINF1*%
X84896000Y-21268200D02*
X88296000Y-21268200D01*
X88296000Y-23228200D01*
X84896000Y-23228200D01*
X84896000Y-21268200D01*
%TO.C,C_CANV1*%
X93896000Y-90301200D02*
X97296000Y-90301200D01*
X97296000Y-92261200D01*
X93896000Y-92261200D01*
X93896000Y-90301200D01*
%TO.C,R_RXD2*%
X93916000Y-49814700D02*
X97276000Y-49814700D01*
X97276000Y-51714700D01*
X93916000Y-51714700D01*
X93916000Y-49814700D01*
%TO.C,C_BAT2A*%
X84296000Y-55614700D02*
X88896000Y-55614700D01*
X88896000Y-57914700D01*
X84296000Y-57914700D01*
X84296000Y-55614700D01*
%TD*%
M02*
