%TF.GenerationSoftware,KiCad,Pcbnew,9.0.9-9.0.9~ubuntu24.04.1*%
%TF.CreationDate,2026-08-18T10:44:49+00:00*%
%TF.ProjectId,AirLift-V2-PCB,4169724c-6966-4742-9d56-322d5043422e,rev?*%
%TF.SameCoordinates,Original*%
%TF.FileFunction,Copper,L1,Top*%
%TF.FilePolarity,Positive*%
%FSLAX46Y46*%
G04 Gerber Fmt 4.6, Leading zero omitted, Abs format (unit mm)*
G04 Created by KiCad (PCBNEW 9.0.9-9.0.9~ubuntu24.04.1) date 2026-08-18 10:44:49*
%MOMM*%
%LPD*%
G01*
G04 APERTURE LIST*
G04 Aperture macros list*
%AMRoundRect*
0 Rectangle with rounded corners*
0 $1 Rounding radius*
0 $2 $3 $4 $5 $6 $7 $8 $9 X,Y pos of 4 corners*
0 Add a 4 corners polygon primitive as box body*
4,1,4,$2,$3,$4,$5,$6,$7,$8,$9,$2,$3,0*
0 Add four circle primitives for the rounded corners*
1,1,$1+$1,$2,$3*
1,1,$1+$1,$4,$5*
1,1,$1+$1,$6,$7*
1,1,$1+$1,$8,$9*
0 Add four rect primitives between the rounded corners*
20,1,$1+$1,$2,$3,$4,$5,0*
20,1,$1+$1,$4,$5,$6,$7,0*
20,1,$1+$1,$6,$7,$8,$9,0*
20,1,$1+$1,$8,$9,$2,$3,0*%
G04 Aperture macros list end*
%TA.AperFunction,SMDPad,CuDef*%
%ADD10RoundRect,0.250000X-0.325000X-0.650000X0.325000X-0.650000X0.325000X0.650000X-0.325000X0.650000X0*%
%TD*%
%TA.AperFunction,ComponentPad*%
%ADD11R,1.700000X1.700000*%
%TD*%
%TA.AperFunction,ComponentPad*%
%ADD12C,1.700000*%
%TD*%
%TA.AperFunction,SMDPad,CuDef*%
%ADD13RoundRect,0.250000X-0.262500X-0.450000X0.262500X-0.450000X0.262500X0.450000X-0.262500X0.450000X0*%
%TD*%
%TA.AperFunction,ComponentPad*%
%ADD14RoundRect,0.250000X-0.550000X-0.550000X0.550000X-0.550000X0.550000X0.550000X-0.550000X0.550000X0*%
%TD*%
%TA.AperFunction,ComponentPad*%
%ADD15C,1.600000*%
%TD*%
%TA.AperFunction,SMDPad,CuDef*%
%ADD16RoundRect,0.250000X-0.250000X-0.475000X0.250000X-0.475000X0.250000X0.475000X-0.250000X0.475000X0*%
%TD*%
%TA.AperFunction,SMDPad,CuDef*%
%ADD17RoundRect,0.225000X-0.225000X-0.375000X0.225000X-0.375000X0.225000X0.375000X-0.225000X0.375000X0*%
%TD*%
%TA.AperFunction,ComponentPad*%
%ADD18R,1.800000X1.800000*%
%TD*%
%TA.AperFunction,ComponentPad*%
%ADD19C,1.800000*%
%TD*%
%TA.AperFunction,SMDPad,CuDef*%
%ADD20RoundRect,0.150000X-0.825000X-0.150000X0.825000X-0.150000X0.825000X0.150000X-0.825000X0.150000X0*%
%TD*%
%TA.AperFunction,ComponentPad*%
%ADD21R,1.905000X2.000000*%
%TD*%
%TA.AperFunction,ComponentPad*%
%ADD22O,1.905000X2.000000*%
%TD*%
%TA.AperFunction,SMDPad,CuDef*%
%ADD23RoundRect,0.250000X-1.000000X-0.650000X1.000000X-0.650000X1.000000X0.650000X-1.000000X0.650000X0*%
%TD*%
%TA.AperFunction,SMDPad,CuDef*%
%ADD24RoundRect,0.150000X-0.762500X-0.150000X0.762500X-0.150000X0.762500X0.150000X-0.762500X0.150000X0*%
%TD*%
%TA.AperFunction,SMDPad,CuDef*%
%ADD25RoundRect,0.375000X-0.625000X-0.375000X0.625000X-0.375000X0.625000X0.375000X-0.625000X0.375000X0*%
%TD*%
%TA.AperFunction,SMDPad,CuDef*%
%ADD26RoundRect,0.500000X-0.500000X-1.400000X0.500000X-1.400000X0.500000X1.400000X-0.500000X1.400000X0*%
%TD*%
%TA.AperFunction,SMDPad,CuDef*%
%ADD27RoundRect,0.150000X-0.587500X-0.150000X0.587500X-0.150000X0.587500X0.150000X-0.587500X0.150000X0*%
%TD*%
%TA.AperFunction,ViaPad*%
%ADD28C,0.600000*%
%TD*%
%TA.AperFunction,Conductor*%
%ADD29C,0.200000*%
%TD*%
%TA.AperFunction,Conductor*%
%ADD30C,1.026800*%
%TD*%
%TA.AperFunction,Conductor*%
%ADD31C,1.500000*%
%TD*%
%TA.AperFunction,Conductor*%
%ADD32C,0.601000*%
%TD*%
G04 APERTURE END LIST*
D10*
%TO.P,C_REGOUT2,1*%
%TO.N,+5V*%
X21840500Y-64144700D03*
%TO.P,C_REGOUT2,2*%
%TO.N,GND*%
X24790500Y-64144700D03*
%TD*%
D11*
%TO.P,J_DEVKIT_R,1*%
%TO.N,LIN2_TX*%
X69036400Y-9618200D03*
D12*
%TO.P,J_DEVKIT_R,2*%
%TO.N,LIN2_RX*%
X69036400Y-12158200D03*
%TO.P,J_DEVKIT_R,3*%
%TO.N,N/C*%
X69036400Y-14698200D03*
%TO.P,J_DEVKIT_R,4*%
X69036400Y-17238200D03*
%TO.P,J_DEVKIT_R,5*%
%TO.N,HSD_CTRL*%
X69036400Y-19778200D03*
%TO.P,J_DEVKIT_R,6*%
%TO.N,GND*%
X69036400Y-22318200D03*
%TO.P,J_DEVKIT_R,7*%
%TO.N,LIN_NSLP*%
X69036400Y-24858200D03*
%TO.P,J_DEVKIT_R,8*%
%TO.N,LIN_WAKE*%
X69036400Y-27398200D03*
%TO.P,J_DEVKIT_R,9*%
%TO.N,N/C*%
X69036400Y-29938200D03*
%TO.P,J_DEVKIT_R,10*%
%TO.N,LIN1_TX*%
X69036400Y-32478200D03*
%TO.P,J_DEVKIT_R,11*%
%TO.N,LIN1_RX*%
X69036400Y-35018200D03*
%TO.P,J_DEVKIT_R,12*%
%TO.N,N/C*%
X69036400Y-37558200D03*
%TO.P,J_DEVKIT_R,13*%
X69036400Y-40098200D03*
%TO.P,J_DEVKIT_R,14*%
X69036400Y-42638200D03*
%TO.P,J_DEVKIT_R,15*%
X69036400Y-45178200D03*
%TD*%
D13*
%TO.P,R4,1*%
%TO.N,HSD_CTRL*%
X20657500Y-96291200D03*
%TO.P,R4,2*%
%TO.N,HSD_BASE*%
X22482500Y-96291200D03*
%TD*%
%TO.P,R10,1*%
%TO.N,IGN_SENSE*%
X118028700Y-28044700D03*
%TO.P,R10,2*%
%TO.N,GND*%
X119853700Y-28044700D03*
%TD*%
%TO.P,R_RXD1,1*%
%TO.N,+3V3*%
X94683500Y-10248200D03*
%TO.P,R_RXD1,2*%
%TO.N,LIN1_RX*%
X96508500Y-10248200D03*
%TD*%
D14*
%TO.P,C_BULK,1*%
%TO.N,+12V_PROT*%
X11315500Y-44144700D03*
D15*
%TO.P,C_BULK,2*%
%TO.N,GND*%
X14815500Y-44144700D03*
%TD*%
D13*
%TO.P,R2,1*%
%TO.N,+3V3*%
X110493000Y-15598200D03*
%TO.P,R2,2*%
%TO.N,MFL_IN*%
X112318000Y-15598200D03*
%TD*%
D16*
%TO.P,C_REGIN1,1*%
%TO.N,+12V_PROT*%
X10365500Y-58144700D03*
%TO.P,C_REGIN1,2*%
%TO.N,GND*%
X12265500Y-58144700D03*
%TD*%
D17*
%TO.P,D5,1*%
%TO.N,LIN2_MPU_B*%
X93946000Y-68764700D03*
%TO.P,D5,2*%
%TO.N,LIN2_MPU_A*%
X97246000Y-68764700D03*
%TD*%
D16*
%TO.P,C_REGOUT1,1*%
%TO.N,+5V*%
X10365500Y-64144700D03*
%TO.P,C_REGOUT1,2*%
%TO.N,GND*%
X12265500Y-64144700D03*
%TD*%
D13*
%TO.P,R6,1*%
%TO.N,+12V_PROT*%
X85683500Y-28248200D03*
%TO.P,R6,2*%
%TO.N,LIN1_MPU_A*%
X87508500Y-28248200D03*
%TD*%
D18*
%TO.P,J1,1*%
%TO.N,PWR_IN*%
X22060000Y-13848200D03*
D19*
%TO.P,J1,2*%
%TO.N,GND*%
X19560000Y-13848200D03*
%TO.P,J1,3*%
%TO.N,LIN1*%
X17060000Y-13848200D03*
%TO.P,J1,4*%
%TO.N,LIN2*%
X14560000Y-13848200D03*
%TO.P,J1,5*%
%TO.N,CHASSIS_CANH*%
X12060000Y-13848200D03*
%TO.P,J1,6*%
%TO.N,CHASSIS_CANL*%
X9560000Y-13848200D03*
%TO.P,J1,7*%
%TO.N,ANALOG_LIGHT_IN*%
X22060000Y-18242400D03*
%TO.P,J1,8*%
%TO.N,N/C*%
X19560000Y-18242400D03*
%TO.P,J1,9*%
%TO.N,+5V*%
X17060000Y-18242400D03*
%TO.P,J1,10*%
%TO.N,OUTPUT1*%
X14560000Y-18242400D03*
%TO.P,J1,11*%
%TO.N,MFL_SIGNAL*%
X12060000Y-18242400D03*
%TO.P,J1,12*%
%TO.N,N/C*%
X9560000Y-18242400D03*
%TD*%
D20*
%TO.P,U_CAN,1*%
%TO.N,CAN_TX*%
X84121000Y-89376200D03*
%TO.P,U_CAN,2*%
%TO.N,GND*%
X84121000Y-90646200D03*
%TO.P,U_CAN,3*%
%TO.N,+3V3*%
X84121000Y-91916200D03*
%TO.P,U_CAN,4*%
%TO.N,CAN_RX*%
X84121000Y-93186200D03*
%TO.P,U_CAN,5*%
%TO.N,N/C*%
X89071000Y-93186200D03*
%TO.P,U_CAN,6*%
%TO.N,CHASSIS_CANL*%
X89071000Y-91916200D03*
%TO.P,U_CAN,7*%
%TO.N,CHASSIS_CANH*%
X89071000Y-90646200D03*
%TO.P,U_CAN,8*%
%TO.N,GND*%
X89071000Y-89376200D03*
%TD*%
D16*
%TO.P,C_WAKE1,1*%
%TO.N,LIN_WAKE*%
X94646000Y-22248200D03*
%TO.P,C_WAKE1,2*%
%TO.N,GND*%
X96546000Y-22248200D03*
%TD*%
D20*
%TO.P,U_LIN2,1*%
%TO.N,LIN2_RX*%
X84121000Y-48859700D03*
%TO.P,U_LIN2,2*%
%TO.N,LIN_NSLP*%
X84121000Y-50129700D03*
%TO.P,U_LIN2,3*%
%TO.N,LIN_WAKE*%
X84121000Y-51399700D03*
%TO.P,U_LIN2,4*%
%TO.N,LIN2_TX*%
X84121000Y-52669700D03*
%TO.P,U_LIN2,5*%
%TO.N,GND*%
X89071000Y-52669700D03*
%TO.P,U_LIN2,6*%
%TO.N,LIN2*%
X89071000Y-51399700D03*
%TO.P,U_LIN2,7*%
%TO.N,+12V_PROT*%
X89071000Y-50129700D03*
%TO.P,U_LIN2,8*%
%TO.N,N/C*%
X89071000Y-48859700D03*
%TD*%
D21*
%TO.P,Q_REV,1*%
%TO.N,REV_GATE*%
X11315500Y-38144700D03*
D22*
%TO.P,Q_REV,2*%
%TO.N,PWR_IN*%
X13855500Y-38144700D03*
%TO.P,Q_REV,3*%
%TO.N,+12V_PROT*%
X16395500Y-38144700D03*
%TD*%
D16*
%TO.P,C_33IN,1*%
%TO.N,+5V*%
X22365500Y-70144700D03*
%TO.P,C_33IN,2*%
%TO.N,GND*%
X24265500Y-70144700D03*
%TD*%
%TO.P,C_WAKE2,1*%
%TO.N,LIN_WAKE*%
X94646000Y-62764700D03*
%TO.P,C_WAKE2,2*%
%TO.N,GND*%
X96546000Y-62764700D03*
%TD*%
D10*
%TO.P,C_CANV2,1*%
%TO.N,+3V3*%
X85121000Y-97281200D03*
%TO.P,C_CANV2,2*%
%TO.N,GND*%
X88071000Y-97281200D03*
%TD*%
D16*
%TO.P,C_LINF2,1*%
%TO.N,LIN2*%
X85646000Y-62764700D03*
%TO.P,C_LINF2,2*%
%TO.N,GND*%
X87546000Y-62764700D03*
%TD*%
D13*
%TO.P,R7,1*%
%TO.N,+12V_PROT*%
X85683500Y-68764700D03*
%TO.P,R7,2*%
%TO.N,LIN2_MPU_A*%
X87508500Y-68764700D03*
%TD*%
D11*
%TO.P,J_DEVKIT_L,1*%
%TO.N,N/C*%
X43636400Y-9618200D03*
D12*
%TO.P,J_DEVKIT_L,2*%
X43636400Y-12158200D03*
%TO.P,J_DEVKIT_L,3*%
%TO.N,IGN_SENSE*%
X43636400Y-14698200D03*
%TO.P,J_DEVKIT_L,4*%
%TO.N,MFL_IN*%
X43636400Y-17238200D03*
%TO.P,J_DEVKIT_L,5*%
%TO.N,N/C*%
X43636400Y-19778200D03*
%TO.P,J_DEVKIT_L,6*%
X43636400Y-22318200D03*
%TO.P,J_DEVKIT_L,7*%
X43636400Y-24858200D03*
%TO.P,J_DEVKIT_L,8*%
X43636400Y-27398200D03*
%TO.P,J_DEVKIT_L,9*%
X43636400Y-29938200D03*
%TO.P,J_DEVKIT_L,10*%
X43636400Y-32478200D03*
%TO.P,J_DEVKIT_L,11*%
%TO.N,CAN_TX*%
X43636400Y-35018200D03*
%TO.P,J_DEVKIT_L,12*%
%TO.N,N/C*%
X43636400Y-37558200D03*
%TO.P,J_DEVKIT_L,13*%
%TO.N,CAN_RX*%
X43636400Y-40098200D03*
%TO.P,J_DEVKIT_L,14*%
%TO.N,GND*%
X43636400Y-42638200D03*
%TO.P,J_DEVKIT_L,15*%
%TO.N,+5V*%
X43636400Y-45178200D03*
%TD*%
D10*
%TO.P,C_BAT1A,1*%
%TO.N,+12V_PROT*%
X85121000Y-16248200D03*
%TO.P,C_BAT1A,2*%
%TO.N,GND*%
X88071000Y-16248200D03*
%TD*%
D16*
%TO.P,C_BAT1B,1*%
%TO.N,+12V_PROT*%
X94646000Y-16248200D03*
%TO.P,C_BAT1B,2*%
%TO.N,GND*%
X96546000Y-16248200D03*
%TD*%
D23*
%TO.P,D2,1*%
%TO.N,+12V_PROT*%
X7570000Y-102291200D03*
%TO.P,D2,2*%
%TO.N,OUTPUT1*%
X11570000Y-102291200D03*
%TD*%
D11*
%TO.P,JP2,1*%
%TO.N,LIN2_MPU_B*%
X86596000Y-74764700D03*
D12*
%TO.P,JP2,2*%
%TO.N,LIN2*%
X86596000Y-77304700D03*
%TD*%
D11*
%TO.P,JP1,1*%
%TO.N,LIN1_MPU_B*%
X86596000Y-34248200D03*
D12*
%TO.P,JP1,2*%
%TO.N,LIN1*%
X86596000Y-36788200D03*
%TD*%
D13*
%TO.P,R9,1*%
%TO.N,ANALOG_LIGHT_IN*%
X109028700Y-28044700D03*
%TO.P,R9,2*%
%TO.N,IGN_SENSE*%
X110853700Y-28044700D03*
%TD*%
D10*
%TO.P,C_33OUT2,1*%
%TO.N,+3V3*%
X21840500Y-76144700D03*
%TO.P,C_33OUT2,2*%
%TO.N,GND*%
X24790500Y-76144700D03*
%TD*%
D24*
%TO.P,U_OPTO,1*%
%TO.N,MFL_LED_A*%
X106718000Y-8328200D03*
%TO.P,U_OPTO,2*%
%TO.N,GND*%
X106718000Y-10868200D03*
%TO.P,U_OPTO,3*%
X116093000Y-10868200D03*
%TO.P,U_OPTO,4*%
%TO.N,MFL_IN*%
X116093000Y-8328200D03*
%TD*%
D10*
%TO.P,C_REGIN2,1*%
%TO.N,+12V_PROT*%
X21840500Y-58144700D03*
%TO.P,C_REGIN2,2*%
%TO.N,GND*%
X24790500Y-58144700D03*
%TD*%
D23*
%TO.P,D3,1*%
%TO.N,MFL_SIGNAL*%
X118405500Y-15598200D03*
%TO.P,D3,2*%
%TO.N,GND*%
X122405500Y-15598200D03*
%TD*%
D25*
%TO.P,U_33,1*%
%TO.N,GND*%
X8165500Y-67844700D03*
%TO.P,U_33,2*%
%TO.N,N/C*%
X8165500Y-70144700D03*
D26*
%TO.N,+3V3*%
X14465500Y-70144700D03*
D25*
%TO.P,U_33,3*%
%TO.N,+5V*%
X8165500Y-72444700D03*
%TD*%
D20*
%TO.P,U_LIN1,1*%
%TO.N,LIN1_RX*%
X84121000Y-8343200D03*
%TO.P,U_LIN1,2*%
%TO.N,LIN_NSLP*%
X84121000Y-9613200D03*
%TO.P,U_LIN1,3*%
%TO.N,LIN_WAKE*%
X84121000Y-10883200D03*
%TO.P,U_LIN1,4*%
%TO.N,LIN1_TX*%
X84121000Y-12153200D03*
%TO.P,U_LIN1,5*%
%TO.N,GND*%
X89071000Y-12153200D03*
%TO.P,U_LIN1,6*%
%TO.N,LIN1*%
X89071000Y-10883200D03*
%TO.P,U_LIN1,7*%
%TO.N,+12V_PROT*%
X89071000Y-9613200D03*
%TO.P,U_LIN1,8*%
%TO.N,N/C*%
X89071000Y-8343200D03*
%TD*%
D17*
%TO.P,D4,1*%
%TO.N,LIN1_MPU_B*%
X93946000Y-28248200D03*
%TO.P,D4,2*%
%TO.N,LIN1_MPU_A*%
X97246000Y-28248200D03*
%TD*%
D13*
%TO.P,R8,1*%
%TO.N,CHASSIS_CANH*%
X94683500Y-97281200D03*
%TO.P,R8,2*%
%TO.N,CAN_TERM_A*%
X96508500Y-97281200D03*
%TD*%
%TO.P,R1,1*%
%TO.N,MFL_SIGNAL*%
X119493000Y-9598200D03*
%TO.P,R1,2*%
%TO.N,MFL_LED_A*%
X121318000Y-9598200D03*
%TD*%
D16*
%TO.P,C16,1*%
%TO.N,IGN_SENSE*%
X117991200Y-34044700D03*
%TO.P,C16,2*%
%TO.N,GND*%
X119891200Y-34044700D03*
%TD*%
%TO.P,C_33OUT1,1*%
%TO.N,+3V3*%
X10365500Y-76144700D03*
%TO.P,C_33OUT1,2*%
%TO.N,GND*%
X12265500Y-76144700D03*
%TD*%
D13*
%TO.P,R_REV,1*%
%TO.N,REV_GATE*%
X22403000Y-38144700D03*
%TO.P,R_REV,2*%
%TO.N,GND*%
X24228000Y-38144700D03*
%TD*%
D11*
%TO.P,JP3,1*%
%TO.N,CAN_TERM_A*%
X86596000Y-103281200D03*
D12*
%TO.P,JP3,2*%
%TO.N,CHASSIS_CANL*%
X86596000Y-105821200D03*
%TD*%
D21*
%TO.P,U_REG,1*%
%TO.N,+12V_PROT*%
X23315500Y-44144700D03*
D22*
%TO.P,U_REG,2*%
%TO.N,GND*%
X25855500Y-44144700D03*
%TO.P,U_REG,3*%
%TO.N,+5V*%
X28395500Y-44144700D03*
%TD*%
D21*
%TO.P,Q1,1*%
%TO.N,HSD_GATE*%
X9570000Y-90291200D03*
D22*
%TO.P,Q1,2*%
%TO.N,OUTPUT1*%
X12110000Y-90291200D03*
%TO.P,Q1,3*%
%TO.N,+12V_PROT*%
X14650000Y-90291200D03*
%TD*%
D16*
%TO.P,C_BAT2B,1*%
%TO.N,+12V_PROT*%
X94646000Y-56764700D03*
%TO.P,C_BAT2B,2*%
%TO.N,GND*%
X96546000Y-56764700D03*
%TD*%
D27*
%TO.P,D_Z1,1*%
%TO.N,GND*%
X109003700Y-33094700D03*
%TO.P,D_Z1,2*%
%TO.N,N/C*%
X109003700Y-34994700D03*
%TO.P,D_Z1,3*%
%TO.N,IGN_SENSE*%
X110878700Y-34044700D03*
%TD*%
%TO.P,Q2,1*%
%TO.N,HSD_BASE*%
X20632500Y-89341200D03*
%TO.P,Q2,2*%
%TO.N,GND*%
X20632500Y-91241200D03*
%TO.P,Q2,3*%
%TO.N,HSD_GATE*%
X22507500Y-90291200D03*
%TD*%
D13*
%TO.P,R3,1*%
%TO.N,+12V_PROT*%
X8657500Y-96291200D03*
%TO.P,R3,2*%
%TO.N,HSD_GATE*%
X10482500Y-96291200D03*
%TD*%
D16*
%TO.P,C_LINF1,1*%
%TO.N,LIN1*%
X85646000Y-22248200D03*
%TO.P,C_LINF1,2*%
%TO.N,GND*%
X87546000Y-22248200D03*
%TD*%
%TO.P,C_CANV1,1*%
%TO.N,+3V3*%
X94646000Y-91281200D03*
%TO.P,C_CANV1,2*%
%TO.N,GND*%
X96546000Y-91281200D03*
%TD*%
D13*
%TO.P,R_RXD2,1*%
%TO.N,+3V3*%
X94683500Y-50764700D03*
%TO.P,R_RXD2,2*%
%TO.N,LIN2_RX*%
X96508500Y-50764700D03*
%TD*%
D10*
%TO.P,C_BAT2A,1*%
%TO.N,+12V_PROT*%
X85121000Y-56764700D03*
%TO.P,C_BAT2A,2*%
%TO.N,GND*%
X88071000Y-56764700D03*
%TD*%
D28*
%TO.N,+12V_PROT*%
X85980800Y-30704900D03*
X84188800Y-60478800D03*
X81231300Y-33882000D03*
%TO.N,GND*%
X95477200Y-60452600D03*
X97217100Y-21108100D03*
X26962600Y-45914600D03*
X42045700Y-26060300D03*
X104891300Y-21108100D03*
X89894300Y-60452600D03*
X86886300Y-21108100D03*
%TO.N,+3V3*%
X97040200Y-55388300D03*
X21840500Y-78210000D03*
X78273800Y-78210000D03*
%TO.N,IGN_SENSE*%
X107848800Y-13831700D03*
%TO.N,MFL_IN*%
X112318000Y-16806500D03*
%TO.N,LIN2_RX*%
X96508500Y-48295900D03*
X85459700Y-48295900D03*
X86356700Y-13135200D03*
%TO.N,HSD_CTRL*%
X36868800Y-23492700D03*
%TO.N,LIN_WAKE*%
X94646000Y-59621400D03*
X93618100Y-21885900D03*
X85588700Y-54489400D03*
%TO.N,LIN1*%
X87145800Y-12562800D03*
%TO.N,LIN1_MPU_A*%
X85503700Y-32056600D03*
X95802000Y-32056600D03*
%TO.N,LIN2*%
X63486300Y-7029800D03*
%TO.N,CHASSIS_CANH*%
X31316900Y-78998800D03*
X87616200Y-91105400D03*
%TO.N,CHASSIS_CANL*%
X3110000Y-105821200D03*
%TO.N,HSD_GATE*%
X18534600Y-92566300D03*
X10482500Y-93853700D03*
%TO.N,MFL_SIGNAL*%
X114517100Y-8352100D03*
%TO.N,ANALOG_LIGHT_IN*%
X107954500Y-28556600D03*
X22060000Y-28556600D03*
%TD*%
D29*
%TO.N,REV_GATE*%
X11315500Y-38144700D02*
X12764400Y-39593600D01*
X20954100Y-39593600D02*
X22403000Y-38144700D01*
X12764400Y-39593600D02*
X20954100Y-39593600D01*
D30*
%TO.N,+12V_PROT*%
X85980800Y-29891300D02*
X85980800Y-28545500D01*
D31*
X21840500Y-58144700D02*
X21840500Y-47671400D01*
X84091300Y-60576300D02*
X84188800Y-60478800D01*
X92679300Y-60245000D02*
X86604300Y-66320000D01*
X92772000Y-51828500D02*
X91073200Y-50129700D01*
X14650000Y-88239500D02*
X6072100Y-79661600D01*
X92772000Y-58934000D02*
X92679300Y-59026700D01*
X10485300Y-98853700D02*
X8657500Y-97025900D01*
X92772000Y-56764700D02*
X92772000Y-51828500D01*
X91073200Y-9613200D02*
X92225800Y-10765800D01*
D32*
X91073200Y-9613200D02*
X89071000Y-9613200D01*
D31*
X85683500Y-67240800D02*
X86604300Y-66320000D01*
X21840500Y-47671400D02*
X23315500Y-46196400D01*
X10485300Y-98853700D02*
X14650000Y-94689000D01*
X88346800Y-30000900D02*
X85980800Y-30000900D01*
X6072100Y-79661600D02*
X6072100Y-62438100D01*
X14650000Y-90291200D02*
X14650000Y-88239500D01*
D30*
X85980800Y-28545500D02*
X85683500Y-28248200D01*
D31*
X10365500Y-45094700D02*
X10365500Y-58144700D01*
X7570000Y-102291200D02*
X10485300Y-99375900D01*
X92225800Y-16248200D02*
X94646000Y-16248200D01*
X92772000Y-56764700D02*
X94646000Y-56764700D01*
X84188800Y-60478800D02*
X84188800Y-57696900D01*
X85980800Y-30000900D02*
X85980800Y-29891300D01*
X92225800Y-26121900D02*
X88346800Y-30000900D01*
X85980800Y-30000900D02*
X85980800Y-30704900D01*
X85121000Y-16248200D02*
X81231300Y-20137900D01*
X92225800Y-10765800D02*
X92225800Y-16248200D01*
X11315500Y-44144700D02*
X10365500Y-45094700D01*
X92679300Y-59026700D02*
X92679300Y-60245000D01*
X8657500Y-97025900D02*
X8657500Y-96291200D01*
D32*
X91073200Y-50129700D02*
X89071000Y-50129700D01*
D31*
X81231300Y-20137900D02*
X81231300Y-33882000D01*
X84188800Y-57696900D02*
X85121000Y-56764700D01*
X92772000Y-56764700D02*
X92772000Y-58934000D01*
X6072100Y-62438100D02*
X10365500Y-58144700D01*
X86604300Y-66320000D02*
X84091300Y-63807100D01*
X92225800Y-16248200D02*
X92225800Y-26121900D01*
X23315500Y-44144700D02*
X23315500Y-46196400D01*
X85683500Y-68764700D02*
X85683500Y-67240800D01*
X84091300Y-63807100D02*
X84091300Y-60576300D01*
X14650000Y-94689000D02*
X14650000Y-90291200D01*
X10485300Y-99375900D02*
X10485300Y-98853700D01*
D29*
%TO.N,GND*%
X14815500Y-55594700D02*
X12265500Y-58144700D01*
X24790500Y-76144700D02*
X24265500Y-75619700D01*
X111309200Y-10868200D02*
X106718000Y-10868200D01*
X87546000Y-57289700D02*
X87546000Y-62764700D01*
X19560000Y-13850300D02*
X19560000Y-13848200D01*
X84121000Y-90646200D02*
X85544700Y-90646200D01*
X122405500Y-15598200D02*
X119853700Y-18150000D01*
X96546000Y-56764700D02*
X96546000Y-60452600D01*
X96546000Y-21108100D02*
X96546000Y-16248200D01*
X16443000Y-42517200D02*
X14815500Y-44144700D01*
X24228000Y-42517200D02*
X16443000Y-42517200D01*
X10534200Y-59876000D02*
X10534200Y-62413400D01*
X25855500Y-44144700D02*
X24228000Y-42517200D01*
X18310000Y-32226700D02*
X18310000Y-15100300D01*
X95596000Y-92231200D02*
X96546000Y-91281200D01*
X24790500Y-69619700D02*
X24265500Y-70144700D01*
X104891300Y-28982300D02*
X104891300Y-21108100D01*
X18310000Y-15100300D02*
X19560000Y-13850300D01*
X10534300Y-62413400D02*
X8165500Y-64782200D01*
X24790500Y-58144700D02*
X24790500Y-64144700D01*
X89071000Y-15248200D02*
X89071000Y-12153200D01*
X111309200Y-10868200D02*
X111309200Y-16289500D01*
X96546000Y-62764700D02*
X98006700Y-64225400D01*
X89894300Y-58588000D02*
X89894300Y-60452600D01*
X119853700Y-34044700D02*
X119853700Y-28044700D01*
X109254400Y-14359600D02*
X108111500Y-13216700D01*
X87546000Y-21108100D02*
X88071000Y-20583100D01*
X88071000Y-56764700D02*
X87546000Y-57289700D01*
X20632500Y-91241200D02*
X22957300Y-91241200D01*
X109003700Y-33094700D02*
X104891300Y-28982300D01*
X109154300Y-14542300D02*
X109254400Y-14442200D01*
X96546000Y-56764700D02*
X105315500Y-47995200D01*
X88071000Y-16248200D02*
X89071000Y-15248200D01*
X24790500Y-89408000D02*
X24790500Y-76144700D01*
X109003700Y-33094700D02*
X109003700Y-33607200D01*
X88071000Y-56764700D02*
X89894300Y-58588000D01*
X119853700Y-18150000D02*
X119853700Y-28044700D01*
X8165500Y-64782200D02*
X8165500Y-67844700D01*
X24265500Y-71180800D02*
X19301600Y-71180800D01*
X24790500Y-64144700D02*
X24790500Y-69619700D01*
X96546000Y-60452600D02*
X96546000Y-62764700D01*
X109992600Y-16651400D02*
X109154300Y-15813100D01*
X95596000Y-97910900D02*
X95596000Y-92231200D01*
X14815500Y-44144700D02*
X14815500Y-55594700D01*
X105315500Y-47995200D02*
X105315500Y-36782900D01*
X94641000Y-89376200D02*
X96546000Y-91281200D01*
X88071000Y-53669700D02*
X89071000Y-52669700D01*
X97217100Y-21108100D02*
X96546000Y-21108100D01*
X98006700Y-86010500D02*
X94641000Y-89376200D01*
X109003700Y-33607200D02*
X110482700Y-35086200D01*
X10534200Y-62413400D02*
X10534300Y-62413400D01*
X118812200Y-35086200D02*
X119853700Y-34044700D01*
X24265500Y-71180800D02*
X24265500Y-70144700D01*
X95203700Y-98303200D02*
X95596000Y-97910900D01*
X89093000Y-98303200D02*
X95203700Y-98303200D01*
X22957300Y-91241200D02*
X24790500Y-89408000D01*
X108111500Y-13216700D02*
X107604000Y-13216700D01*
X110947300Y-16651400D02*
X109992600Y-16651400D01*
X94641000Y-89376200D02*
X89071000Y-89376200D01*
X119853700Y-34044700D02*
X119891200Y-34044700D01*
X88071000Y-97281200D02*
X89093000Y-98303200D01*
X12265500Y-64144700D02*
X12265500Y-76144700D01*
X42045700Y-41047500D02*
X42045700Y-26060300D01*
X116093000Y-10868200D02*
X111309200Y-10868200D01*
X109154300Y-15813100D02*
X109154300Y-14542300D01*
X86886300Y-21108100D02*
X87546000Y-21108100D01*
X88071000Y-20583100D02*
X88071000Y-16248200D01*
X110482700Y-35086200D02*
X118812200Y-35086200D01*
X85544700Y-90646200D02*
X86814700Y-89376200D01*
X24228000Y-38144700D02*
X18310000Y-32226700D01*
X12265500Y-58144700D02*
X10534200Y-59876000D01*
X19301600Y-71180800D02*
X12265500Y-64144700D01*
X111309200Y-16289500D02*
X110947300Y-16651400D01*
X87546000Y-21108100D02*
X87546000Y-22248200D01*
X86814700Y-89376200D02*
X89071000Y-89376200D01*
X26962600Y-55972600D02*
X24790500Y-58144700D01*
X96546000Y-22248200D02*
X96546000Y-21108100D01*
X24265500Y-75619700D02*
X24265500Y-71180800D01*
X26962600Y-45914600D02*
X26962600Y-55972600D01*
X24228000Y-42517200D02*
X24228000Y-38144700D01*
X107604000Y-13216700D02*
X104891300Y-15929400D01*
X105315500Y-36782900D02*
X109003700Y-33094700D01*
X109254400Y-14442200D02*
X109254400Y-14359600D01*
X95477200Y-60452600D02*
X96546000Y-60452600D01*
X88071000Y-56764700D02*
X88071000Y-53669700D01*
X104891300Y-15929400D02*
X104891300Y-21108100D01*
X98006700Y-64225400D02*
X98006700Y-86010500D01*
X43636400Y-42638200D02*
X42045700Y-41047500D01*
%TO.N,+5V*%
X23129600Y-12546500D02*
X23651200Y-13068100D01*
X23026400Y-49000000D02*
X23026400Y-61921100D01*
X27141300Y-39564000D02*
X27141300Y-44144700D01*
X18310000Y-14532300D02*
X18310000Y-13382700D01*
X8165500Y-72444700D02*
X10365500Y-70244700D01*
X18310000Y-13382700D02*
X19146200Y-12546500D01*
X17060000Y-15782300D02*
X18310000Y-14532300D01*
X23026400Y-61921100D02*
X21840500Y-63107000D01*
X27141300Y-44144700D02*
X27141300Y-44885100D01*
X22365500Y-70144700D02*
X22365500Y-64669700D01*
X19146200Y-12546500D02*
X23129600Y-12546500D01*
X22365500Y-64669700D02*
X21840500Y-64144700D01*
X21840500Y-63107000D02*
X11403200Y-63107000D01*
X21840500Y-63107000D02*
X21840500Y-64144700D01*
X28395500Y-44144700D02*
X27141300Y-44144700D01*
X10365500Y-70244700D02*
X10365500Y-64144700D01*
X23651200Y-13068100D02*
X23651200Y-36073900D01*
X17060000Y-18242400D02*
X17060000Y-15782300D01*
X11403200Y-63107000D02*
X10365500Y-64144700D01*
X23651200Y-36073900D02*
X27141300Y-39564000D01*
X27141300Y-44885100D02*
X23026400Y-49000000D01*
%TO.N,+3V3*%
X94683500Y-10248200D02*
X97652000Y-13216700D01*
X84914800Y-91916200D02*
X85401500Y-92402900D01*
X109579700Y-14684900D02*
X109697400Y-14567200D01*
X83664200Y-91916200D02*
X84121000Y-91916200D01*
X19365700Y-73669900D02*
X21840500Y-76144700D01*
X85401500Y-97000700D02*
X85121000Y-97281200D01*
X87793200Y-90011200D02*
X85401500Y-92402900D01*
X107282300Y-12815000D02*
X106880600Y-13216700D01*
X21840500Y-76144700D02*
X21840500Y-78210000D01*
X97652000Y-13216700D02*
X98044800Y-13216700D01*
X16300900Y-73669900D02*
X19365700Y-73669900D01*
X98044800Y-13216700D02*
X98044800Y-50778400D01*
X16300900Y-73669900D02*
X16300900Y-71980100D01*
X11434000Y-77213200D02*
X12757600Y-77213200D01*
X93376000Y-90011200D02*
X87793200Y-90011200D01*
X109697400Y-14567200D02*
X109697400Y-14234600D01*
X78273800Y-78210000D02*
X78273800Y-86525800D01*
X94646000Y-91281200D02*
X93376000Y-90011200D01*
X78273800Y-86525800D02*
X83664200Y-91916200D01*
X95701800Y-51783000D02*
X94683500Y-50764700D01*
X110493000Y-15598200D02*
X109579700Y-14684900D01*
X12757600Y-77213200D02*
X16300900Y-73669900D01*
X16300900Y-71980100D02*
X14465500Y-70144700D01*
X109697400Y-14234600D02*
X108277800Y-12815000D01*
X10365500Y-76144700D02*
X11434000Y-77213200D01*
X97040200Y-51783000D02*
X95701800Y-51783000D01*
X106880600Y-13216700D02*
X98044800Y-13216700D01*
X98044800Y-50778400D02*
X97040200Y-51783000D01*
X84121000Y-91916200D02*
X84914800Y-91916200D01*
X85401500Y-92402900D02*
X85401500Y-97000700D01*
X108277800Y-12815000D02*
X107282300Y-12815000D01*
X97040200Y-51783000D02*
X97040200Y-55388300D01*
%TO.N,IGN_SENSE*%
X118028700Y-34007200D02*
X117991200Y-34044700D01*
X110878700Y-28069700D02*
X110878700Y-34044700D01*
X110878700Y-34044700D02*
X117991200Y-34044700D01*
X107848800Y-25039800D02*
X107848800Y-13831700D01*
X118028700Y-28044700D02*
X118028700Y-34007200D01*
X110853700Y-28044700D02*
X107848800Y-25039800D01*
X110853700Y-28044700D02*
X110878700Y-28069700D01*
%TO.N,MFL_IN*%
X117358100Y-11167200D02*
X117358100Y-9593300D01*
X117358100Y-9593300D02*
X116093000Y-8328200D01*
X112318000Y-15598200D02*
X112318000Y-16806500D01*
X112318000Y-15598200D02*
X112927100Y-15598200D01*
X112927100Y-15598200D02*
X117358100Y-11167200D01*
%TO.N,CAN_TX*%
X43636400Y-35018200D02*
X84121000Y-75502800D01*
X84121000Y-75502800D02*
X84121000Y-89376200D01*
%TO.N,CAN_RX*%
X59106700Y-55568500D02*
X59106700Y-68552300D01*
X43636400Y-40098200D02*
X59106700Y-55568500D01*
X59106700Y-68552300D02*
X83740600Y-93186200D01*
X83740600Y-93186200D02*
X84121000Y-93186200D01*
%TO.N,LIN2_TX*%
X67049200Y-23291400D02*
X67049200Y-12469200D01*
X67049200Y-12469200D02*
X68748500Y-10769900D01*
X83727500Y-52669700D02*
X81037500Y-49979700D01*
X69404500Y-36288200D02*
X68671100Y-36288200D01*
X68671100Y-36288200D02*
X67050700Y-34667800D01*
X67050700Y-34667800D02*
X67050700Y-23292900D01*
X84121000Y-52669700D02*
X83727500Y-52669700D01*
X81037500Y-47921200D02*
X69404500Y-36288200D01*
X81037500Y-49979700D02*
X81037500Y-47921200D01*
X69036400Y-9618200D02*
X69036400Y-10769900D01*
X68748500Y-10769900D02*
X69036400Y-10769900D01*
X67050700Y-23292900D02*
X67049200Y-23291400D01*
%TO.N,LIN2_RX*%
X84121000Y-48859700D02*
X84121000Y-48410900D01*
X86356700Y-13135200D02*
X86356700Y-17089700D01*
X96508500Y-50764700D02*
X96508500Y-48295900D01*
X84330600Y-48201300D02*
X85365100Y-48201300D01*
X85365100Y-48201300D02*
X85459700Y-48295900D01*
X83964900Y-47835600D02*
X84330600Y-48201300D01*
X84121000Y-48410900D02*
X84330600Y-48201300D01*
X83964900Y-19481500D02*
X83964900Y-47835600D01*
X86356700Y-17089700D02*
X83964900Y-19481500D01*
%TO.N,HSD_CTRL*%
X20657500Y-96291200D02*
X36868800Y-80079900D01*
X36868800Y-80079900D02*
X36868800Y-23492700D01*
%TO.N,LIN_NSLP*%
X69036400Y-24340100D02*
X83763300Y-9613200D01*
X81587400Y-47945700D02*
X83771400Y-50129700D01*
X69036400Y-24858200D02*
X67882500Y-26012100D01*
X68657600Y-33748900D02*
X69421100Y-33748900D01*
X67882500Y-32973800D02*
X68657600Y-33748900D01*
X67882500Y-26012100D02*
X67882500Y-32973800D01*
X83771400Y-50129700D02*
X84121000Y-50129700D01*
X81587400Y-45915200D02*
X81587400Y-47945700D01*
X69036400Y-24858200D02*
X69036400Y-24340100D01*
X83763300Y-9613200D02*
X84121000Y-9613200D01*
X69421100Y-33748900D02*
X81587400Y-45915200D01*
%TO.N,LIN_WAKE*%
X83747000Y-10883200D02*
X76583200Y-18047000D01*
X94646000Y-62764700D02*
X94646000Y-59621400D01*
X85588700Y-50416400D02*
X94708800Y-41296300D01*
X85588700Y-51399700D02*
X85588700Y-50416400D01*
X85588700Y-54489400D02*
X85588700Y-51399700D01*
X76583200Y-19851400D02*
X69036400Y-27398200D01*
X94708800Y-41296300D02*
X94708800Y-22311000D01*
X84121000Y-51399700D02*
X85588700Y-51399700D01*
X93618100Y-21885900D02*
X94283700Y-21885900D01*
X94708800Y-22311000D02*
X94646000Y-22248200D01*
X94283700Y-21885900D02*
X94646000Y-22248200D01*
X84121000Y-10883200D02*
X83747000Y-10883200D01*
X76583200Y-18047000D02*
X76583200Y-19851400D01*
%TO.N,LIN1_TX*%
X69036400Y-32478200D02*
X76983400Y-24531200D01*
X76983400Y-24531200D02*
X76983400Y-22490100D01*
X76983400Y-22490100D02*
X84121000Y-15352500D01*
X84121000Y-15352500D02*
X84121000Y-12153200D01*
%TO.N,LIN1_RX*%
X69434500Y-21048200D02*
X82139500Y-8343200D01*
X67479300Y-33461100D02*
X67479300Y-22173400D01*
X68604500Y-21048200D02*
X69434500Y-21048200D01*
X93973800Y-7713500D02*
X96508500Y-10248200D01*
X82139500Y-8343200D02*
X84121000Y-8343200D01*
X84121000Y-8343200D02*
X84750700Y-7713500D01*
X69036400Y-35018200D02*
X67479300Y-33461100D01*
X84750700Y-7713500D02*
X93973800Y-7713500D01*
X67479300Y-22173400D02*
X68604500Y-21048200D01*
%TO.N,LIN1*%
X84366600Y-23527600D02*
X84366600Y-34558800D01*
X85646000Y-21133100D02*
X87145800Y-19633300D01*
X84366600Y-34558800D02*
X86596000Y-36788200D01*
X87145800Y-12562800D02*
X87145800Y-12427200D01*
X88689800Y-10883200D02*
X89071000Y-10883200D01*
X85646000Y-22248200D02*
X85646000Y-21133100D01*
X85646000Y-22248200D02*
X84366600Y-23527600D01*
X87145800Y-12427200D02*
X88689800Y-10883200D01*
X87145800Y-19633300D02*
X87145800Y-12562800D01*
%TO.N,LIN1_MPU_A*%
X85152300Y-27144000D02*
X86404300Y-27144000D01*
X95802000Y-29692200D02*
X95802000Y-32056600D01*
X85503700Y-32056600D02*
X84768300Y-31321200D01*
X97246000Y-28248200D02*
X95802000Y-29692200D01*
X84768300Y-27528000D02*
X85152300Y-27144000D01*
X86404300Y-27144000D02*
X87508500Y-28248200D01*
X84768300Y-31321200D02*
X84768300Y-27528000D01*
%TO.N,LIN1_MPU_B*%
X87946000Y-34248200D02*
X86596000Y-34248200D01*
X93946000Y-28248200D02*
X87946000Y-34248200D01*
%TO.N,LIN2*%
X82913900Y-73622600D02*
X86596000Y-77304700D01*
X85646000Y-62764700D02*
X86324100Y-62086600D01*
X71123900Y-40553700D02*
X69398400Y-38828200D01*
X84536100Y-55426400D02*
X71123900Y-42014200D01*
X86324100Y-62086600D02*
X86324100Y-55426400D01*
X86324100Y-55426400D02*
X86324100Y-53695800D01*
X82913900Y-57048600D02*
X82913900Y-73622600D01*
X71123900Y-42014200D02*
X71123900Y-40553700D01*
X86324100Y-53695800D02*
X88620200Y-51399700D01*
X69398400Y-38828200D02*
X68623300Y-38828200D01*
X68623300Y-38828200D02*
X63486300Y-33691200D01*
X84536100Y-55426400D02*
X82913900Y-57048600D01*
X86324100Y-55426400D02*
X84536100Y-55426400D01*
X88620200Y-51399700D02*
X89071000Y-51399700D01*
X63486300Y-33691200D02*
X63486300Y-7029800D01*
%TO.N,LIN2_MPU_A*%
X96335300Y-67854000D02*
X97246000Y-68764700D01*
X87508500Y-68764700D02*
X88419200Y-67854000D01*
X88419200Y-67854000D02*
X96335300Y-67854000D01*
%TO.N,LIN2_MPU_B*%
X86596000Y-74764700D02*
X87747700Y-74764700D01*
X93946000Y-68764700D02*
X93747700Y-68764700D01*
X93747700Y-68764700D02*
X87747700Y-74764700D01*
%TO.N,CHASSIS_CANH*%
X88611800Y-91105400D02*
X89071000Y-90646200D01*
X89469700Y-90646200D02*
X89071000Y-90646200D01*
X94683500Y-97281200D02*
X94683500Y-95860000D01*
X13763400Y-12144800D02*
X12060000Y-13848200D01*
X94683500Y-95860000D02*
X89469700Y-90646200D01*
X87616200Y-91105400D02*
X88611800Y-91105400D01*
X31316900Y-20165800D02*
X23295900Y-12144800D01*
X23295900Y-12144800D02*
X13763400Y-12144800D01*
X31316900Y-78998800D02*
X31316900Y-20165800D01*
%TO.N,CHASSIS_CANL*%
X88656500Y-91916200D02*
X86737600Y-93835100D01*
X89071000Y-91916200D02*
X88656500Y-91916200D01*
X86737600Y-99008000D02*
X85444300Y-100301300D01*
X85444300Y-104669500D02*
X86596000Y-105821200D01*
X85444300Y-100301300D02*
X85444300Y-104669500D01*
X86737600Y-93835100D02*
X86737600Y-99008000D01*
X3110000Y-20298200D02*
X3110000Y-105821200D01*
X9560000Y-13848200D02*
X3110000Y-20298200D01*
%TO.N,CAN_TERM_A*%
X96508500Y-97636200D02*
X96508500Y-97281200D01*
X90863500Y-103281200D02*
X96508500Y-97636200D01*
X86596000Y-103281200D02*
X90863500Y-103281200D01*
%TO.N,HSD_GATE*%
X21469100Y-88738900D02*
X19832900Y-88738900D01*
X22507500Y-89777300D02*
X21469100Y-88738900D01*
X22507500Y-90291200D02*
X22507500Y-89777300D01*
X10482500Y-96291200D02*
X10482500Y-93853700D01*
X18534600Y-90037200D02*
X18534600Y-92566300D01*
X19832900Y-88738900D02*
X18534600Y-90037200D01*
D31*
%TO.N,OUTPUT1*%
X12110000Y-92342900D02*
X10036600Y-92342900D01*
X14560000Y-27322400D02*
X14560000Y-18242400D01*
X9059800Y-93319700D02*
X4268900Y-88528800D01*
X5244900Y-103545900D02*
X6005000Y-104306000D01*
X10036600Y-92342900D02*
X9059800Y-93319700D01*
X5244900Y-97134600D02*
X5244900Y-103545900D01*
X9555200Y-104306000D02*
X11570000Y-102291200D01*
X4268900Y-37613500D02*
X14560000Y-27322400D01*
X6005000Y-104306000D02*
X9555200Y-104306000D01*
X9059800Y-93319700D02*
X5244900Y-97134600D01*
X12110000Y-90291200D02*
X12110000Y-92342900D01*
X4268900Y-88528800D02*
X4268900Y-37613500D01*
D29*
%TO.N,HSD_BASE*%
X22482500Y-96291200D02*
X21476000Y-97297700D01*
X19524100Y-96725100D02*
X19524100Y-90449600D01*
X21476000Y-97297700D02*
X20096700Y-97297700D01*
X20096700Y-97297700D02*
X19524100Y-96725100D01*
X19524100Y-90449600D02*
X20632500Y-89341200D01*
%TO.N,MFL_LED_A*%
X121318000Y-9598200D02*
X118991300Y-7271500D01*
X107774700Y-7271500D02*
X106718000Y-8328200D01*
X118991300Y-7271500D02*
X107774700Y-7271500D01*
%TO.N,MFL_SIGNAL*%
X118405500Y-9598200D02*
X118405500Y-9074400D01*
X114517100Y-8351900D02*
X114517100Y-8352100D01*
X118405500Y-9598200D02*
X119493000Y-9598200D01*
X117004300Y-7673200D02*
X115195800Y-7673200D01*
X118405500Y-9074400D02*
X117004300Y-7673200D01*
X115195800Y-7673200D02*
X114517100Y-8351900D01*
X118405500Y-15598200D02*
X118405500Y-9598200D01*
%TO.N,ANALOG_LIGHT_IN*%
X22060000Y-18242400D02*
X22060000Y-28556600D01*
X108466400Y-28044700D02*
X107954500Y-28556600D01*
X109028700Y-28044700D02*
X108466400Y-28044700D01*
%TD*%
M02*
