%TF.GenerationSoftware,KiCad,Pcbnew,9.0.9-9.0.9~ubuntu24.04.1*%
%TF.CreationDate,2026-08-18T10:44:49+00:00*%
%TF.ProjectId,AirLift-V2-PCB,4169724c-6966-4742-9d56-322d5043422e,rev?*%
%TF.SameCoordinates,Original*%
%TF.FileFunction,Legend,Top*%
%TF.FilePolarity,Positive*%
%FSLAX46Y46*%
G04 Gerber Fmt 4.6, Leading zero omitted, Abs format (unit mm)*
G04 Created by KiCad (PCBNEW 9.0.9-9.0.9~ubuntu24.04.1) date 2026-08-18 10:44:49*
%MOMM*%
%LPD*%
G01*
G04 APERTURE LIST*
%ADD10C,0.150000*%
%ADD11C,0.120000*%
G04 APERTURE END LIST*
D10*
X19886928Y-62654280D02*
X19839309Y-62701900D01*
X19839309Y-62701900D02*
X19696452Y-62749519D01*
X19696452Y-62749519D02*
X19601214Y-62749519D01*
X19601214Y-62749519D02*
X19458357Y-62701900D01*
X19458357Y-62701900D02*
X19363119Y-62606661D01*
X19363119Y-62606661D02*
X19315500Y-62511423D01*
X19315500Y-62511423D02*
X19267881Y-62320947D01*
X19267881Y-62320947D02*
X19267881Y-62178090D01*
X19267881Y-62178090D02*
X19315500Y-61987614D01*
X19315500Y-61987614D02*
X19363119Y-61892376D01*
X19363119Y-61892376D02*
X19458357Y-61797138D01*
X19458357Y-61797138D02*
X19601214Y-61749519D01*
X19601214Y-61749519D02*
X19696452Y-61749519D01*
X19696452Y-61749519D02*
X19839309Y-61797138D01*
X19839309Y-61797138D02*
X19886928Y-61844757D01*
X20077405Y-62844757D02*
X20839309Y-62844757D01*
X21648833Y-62749519D02*
X21315500Y-62273328D01*
X21077405Y-62749519D02*
X21077405Y-61749519D01*
X21077405Y-61749519D02*
X21458357Y-61749519D01*
X21458357Y-61749519D02*
X21553595Y-61797138D01*
X21553595Y-61797138D02*
X21601214Y-61844757D01*
X21601214Y-61844757D02*
X21648833Y-61939995D01*
X21648833Y-61939995D02*
X21648833Y-62082852D01*
X21648833Y-62082852D02*
X21601214Y-62178090D01*
X21601214Y-62178090D02*
X21553595Y-62225709D01*
X21553595Y-62225709D02*
X21458357Y-62273328D01*
X21458357Y-62273328D02*
X21077405Y-62273328D01*
X22077405Y-62225709D02*
X22410738Y-62225709D01*
X22553595Y-62749519D02*
X22077405Y-62749519D01*
X22077405Y-62749519D02*
X22077405Y-61749519D01*
X22077405Y-61749519D02*
X22553595Y-61749519D01*
X23505976Y-61797138D02*
X23410738Y-61749519D01*
X23410738Y-61749519D02*
X23267881Y-61749519D01*
X23267881Y-61749519D02*
X23125024Y-61797138D01*
X23125024Y-61797138D02*
X23029786Y-61892376D01*
X23029786Y-61892376D02*
X22982167Y-61987614D01*
X22982167Y-61987614D02*
X22934548Y-62178090D01*
X22934548Y-62178090D02*
X22934548Y-62320947D01*
X22934548Y-62320947D02*
X22982167Y-62511423D01*
X22982167Y-62511423D02*
X23029786Y-62606661D01*
X23029786Y-62606661D02*
X23125024Y-62701900D01*
X23125024Y-62701900D02*
X23267881Y-62749519D01*
X23267881Y-62749519D02*
X23363119Y-62749519D01*
X23363119Y-62749519D02*
X23505976Y-62701900D01*
X23505976Y-62701900D02*
X23553595Y-62654280D01*
X23553595Y-62654280D02*
X23553595Y-62320947D01*
X23553595Y-62320947D02*
X23363119Y-62320947D01*
X24172643Y-61749519D02*
X24363119Y-61749519D01*
X24363119Y-61749519D02*
X24458357Y-61797138D01*
X24458357Y-61797138D02*
X24553595Y-61892376D01*
X24553595Y-61892376D02*
X24601214Y-62082852D01*
X24601214Y-62082852D02*
X24601214Y-62416185D01*
X24601214Y-62416185D02*
X24553595Y-62606661D01*
X24553595Y-62606661D02*
X24458357Y-62701900D01*
X24458357Y-62701900D02*
X24363119Y-62749519D01*
X24363119Y-62749519D02*
X24172643Y-62749519D01*
X24172643Y-62749519D02*
X24077405Y-62701900D01*
X24077405Y-62701900D02*
X23982167Y-62606661D01*
X23982167Y-62606661D02*
X23934548Y-62416185D01*
X23934548Y-62416185D02*
X23934548Y-62082852D01*
X23934548Y-62082852D02*
X23982167Y-61892376D01*
X23982167Y-61892376D02*
X24077405Y-61797138D01*
X24077405Y-61797138D02*
X24172643Y-61749519D01*
X25029786Y-61749519D02*
X25029786Y-62559042D01*
X25029786Y-62559042D02*
X25077405Y-62654280D01*
X25077405Y-62654280D02*
X25125024Y-62701900D01*
X25125024Y-62701900D02*
X25220262Y-62749519D01*
X25220262Y-62749519D02*
X25410738Y-62749519D01*
X25410738Y-62749519D02*
X25505976Y-62701900D01*
X25505976Y-62701900D02*
X25553595Y-62654280D01*
X25553595Y-62654280D02*
X25601214Y-62559042D01*
X25601214Y-62559042D02*
X25601214Y-61749519D01*
X25934548Y-61749519D02*
X26505976Y-61749519D01*
X26220262Y-62749519D02*
X26220262Y-61749519D01*
X26791691Y-61844757D02*
X26839310Y-61797138D01*
X26839310Y-61797138D02*
X26934548Y-61749519D01*
X26934548Y-61749519D02*
X27172643Y-61749519D01*
X27172643Y-61749519D02*
X27267881Y-61797138D01*
X27267881Y-61797138D02*
X27315500Y-61844757D01*
X27315500Y-61844757D02*
X27363119Y-61939995D01*
X27363119Y-61939995D02*
X27363119Y-62035233D01*
X27363119Y-62035233D02*
X27315500Y-62178090D01*
X27315500Y-62178090D02*
X26744072Y-62749519D01*
X26744072Y-62749519D02*
X27363119Y-62749519D01*
X65417352Y-6303019D02*
X65417352Y-7017304D01*
X65417352Y-7017304D02*
X65369733Y-7160161D01*
X65369733Y-7160161D02*
X65274495Y-7255400D01*
X65274495Y-7255400D02*
X65131638Y-7303019D01*
X65131638Y-7303019D02*
X65036400Y-7303019D01*
X65655448Y-7398257D02*
X66417352Y-7398257D01*
X66655448Y-7303019D02*
X66655448Y-6303019D01*
X66655448Y-6303019D02*
X66893543Y-6303019D01*
X66893543Y-6303019D02*
X67036400Y-6350638D01*
X67036400Y-6350638D02*
X67131638Y-6445876D01*
X67131638Y-6445876D02*
X67179257Y-6541114D01*
X67179257Y-6541114D02*
X67226876Y-6731590D01*
X67226876Y-6731590D02*
X67226876Y-6874447D01*
X67226876Y-6874447D02*
X67179257Y-7064923D01*
X67179257Y-7064923D02*
X67131638Y-7160161D01*
X67131638Y-7160161D02*
X67036400Y-7255400D01*
X67036400Y-7255400D02*
X66893543Y-7303019D01*
X66893543Y-7303019D02*
X66655448Y-7303019D01*
X67655448Y-6779209D02*
X67988781Y-6779209D01*
X68131638Y-7303019D02*
X67655448Y-7303019D01*
X67655448Y-7303019D02*
X67655448Y-6303019D01*
X67655448Y-6303019D02*
X68131638Y-6303019D01*
X68417353Y-6303019D02*
X68750686Y-7303019D01*
X68750686Y-7303019D02*
X69084019Y-6303019D01*
X69417353Y-7303019D02*
X69417353Y-6303019D01*
X69988781Y-7303019D02*
X69560210Y-6731590D01*
X69988781Y-6303019D02*
X69417353Y-6874447D01*
X70417353Y-7303019D02*
X70417353Y-6303019D01*
X70750686Y-6303019D02*
X71322114Y-6303019D01*
X71036400Y-7303019D02*
X71036400Y-6303019D01*
X71417353Y-7398257D02*
X72179257Y-7398257D01*
X72988781Y-7303019D02*
X72655448Y-6826828D01*
X72417353Y-7303019D02*
X72417353Y-6303019D01*
X72417353Y-6303019D02*
X72798305Y-6303019D01*
X72798305Y-6303019D02*
X72893543Y-6350638D01*
X72893543Y-6350638D02*
X72941162Y-6398257D01*
X72941162Y-6398257D02*
X72988781Y-6493495D01*
X72988781Y-6493495D02*
X72988781Y-6636352D01*
X72988781Y-6636352D02*
X72941162Y-6731590D01*
X72941162Y-6731590D02*
X72893543Y-6779209D01*
X72893543Y-6779209D02*
X72798305Y-6826828D01*
X72798305Y-6826828D02*
X72417353Y-6826828D01*
X21403333Y-95096019D02*
X21070000Y-94619828D01*
X20831905Y-95096019D02*
X20831905Y-94096019D01*
X20831905Y-94096019D02*
X21212857Y-94096019D01*
X21212857Y-94096019D02*
X21308095Y-94143638D01*
X21308095Y-94143638D02*
X21355714Y-94191257D01*
X21355714Y-94191257D02*
X21403333Y-94286495D01*
X21403333Y-94286495D02*
X21403333Y-94429352D01*
X21403333Y-94429352D02*
X21355714Y-94524590D01*
X21355714Y-94524590D02*
X21308095Y-94572209D01*
X21308095Y-94572209D02*
X21212857Y-94619828D01*
X21212857Y-94619828D02*
X20831905Y-94619828D01*
X22260476Y-94429352D02*
X22260476Y-95096019D01*
X22022381Y-94048400D02*
X21784286Y-94762685D01*
X21784286Y-94762685D02*
X22403333Y-94762685D01*
X118298342Y-26849519D02*
X117965009Y-26373328D01*
X117726914Y-26849519D02*
X117726914Y-25849519D01*
X117726914Y-25849519D02*
X118107866Y-25849519D01*
X118107866Y-25849519D02*
X118203104Y-25897138D01*
X118203104Y-25897138D02*
X118250723Y-25944757D01*
X118250723Y-25944757D02*
X118298342Y-26039995D01*
X118298342Y-26039995D02*
X118298342Y-26182852D01*
X118298342Y-26182852D02*
X118250723Y-26278090D01*
X118250723Y-26278090D02*
X118203104Y-26325709D01*
X118203104Y-26325709D02*
X118107866Y-26373328D01*
X118107866Y-26373328D02*
X117726914Y-26373328D01*
X119250723Y-26849519D02*
X118679295Y-26849519D01*
X118965009Y-26849519D02*
X118965009Y-25849519D01*
X118965009Y-25849519D02*
X118869771Y-25992376D01*
X118869771Y-25992376D02*
X118774533Y-26087614D01*
X118774533Y-26087614D02*
X118679295Y-26135233D01*
X119869771Y-25849519D02*
X119965009Y-25849519D01*
X119965009Y-25849519D02*
X120060247Y-25897138D01*
X120060247Y-25897138D02*
X120107866Y-25944757D01*
X120107866Y-25944757D02*
X120155485Y-26039995D01*
X120155485Y-26039995D02*
X120203104Y-26230471D01*
X120203104Y-26230471D02*
X120203104Y-26468566D01*
X120203104Y-26468566D02*
X120155485Y-26659042D01*
X120155485Y-26659042D02*
X120107866Y-26754280D01*
X120107866Y-26754280D02*
X120060247Y-26801900D01*
X120060247Y-26801900D02*
X119965009Y-26849519D01*
X119965009Y-26849519D02*
X119869771Y-26849519D01*
X119869771Y-26849519D02*
X119774533Y-26801900D01*
X119774533Y-26801900D02*
X119726914Y-26754280D01*
X119726914Y-26754280D02*
X119679295Y-26659042D01*
X119679295Y-26659042D02*
X119631676Y-26468566D01*
X119631676Y-26468566D02*
X119631676Y-26230471D01*
X119631676Y-26230471D02*
X119679295Y-26039995D01*
X119679295Y-26039995D02*
X119726914Y-25944757D01*
X119726914Y-25944757D02*
X119774533Y-25897138D01*
X119774533Y-25897138D02*
X119869771Y-25849519D01*
X93572190Y-9053019D02*
X93238857Y-8576828D01*
X93000762Y-9053019D02*
X93000762Y-8053019D01*
X93000762Y-8053019D02*
X93381714Y-8053019D01*
X93381714Y-8053019D02*
X93476952Y-8100638D01*
X93476952Y-8100638D02*
X93524571Y-8148257D01*
X93524571Y-8148257D02*
X93572190Y-8243495D01*
X93572190Y-8243495D02*
X93572190Y-8386352D01*
X93572190Y-8386352D02*
X93524571Y-8481590D01*
X93524571Y-8481590D02*
X93476952Y-8529209D01*
X93476952Y-8529209D02*
X93381714Y-8576828D01*
X93381714Y-8576828D02*
X93000762Y-8576828D01*
X93762667Y-9148257D02*
X94524571Y-9148257D01*
X95334095Y-9053019D02*
X95000762Y-8576828D01*
X94762667Y-9053019D02*
X94762667Y-8053019D01*
X94762667Y-8053019D02*
X95143619Y-8053019D01*
X95143619Y-8053019D02*
X95238857Y-8100638D01*
X95238857Y-8100638D02*
X95286476Y-8148257D01*
X95286476Y-8148257D02*
X95334095Y-8243495D01*
X95334095Y-8243495D02*
X95334095Y-8386352D01*
X95334095Y-8386352D02*
X95286476Y-8481590D01*
X95286476Y-8481590D02*
X95238857Y-8529209D01*
X95238857Y-8529209D02*
X95143619Y-8576828D01*
X95143619Y-8576828D02*
X94762667Y-8576828D01*
X95667429Y-8053019D02*
X96334095Y-9053019D01*
X96334095Y-8053019D02*
X95667429Y-9053019D01*
X96715048Y-9053019D02*
X96715048Y-8053019D01*
X96715048Y-8053019D02*
X96953143Y-8053019D01*
X96953143Y-8053019D02*
X97096000Y-8100638D01*
X97096000Y-8100638D02*
X97191238Y-8195876D01*
X97191238Y-8195876D02*
X97238857Y-8291114D01*
X97238857Y-8291114D02*
X97286476Y-8481590D01*
X97286476Y-8481590D02*
X97286476Y-8624447D01*
X97286476Y-8624447D02*
X97238857Y-8814923D01*
X97238857Y-8814923D02*
X97191238Y-8910161D01*
X97191238Y-8910161D02*
X97096000Y-9005400D01*
X97096000Y-9005400D02*
X96953143Y-9053019D01*
X96953143Y-9053019D02*
X96715048Y-9053019D01*
X98238857Y-9053019D02*
X97667429Y-9053019D01*
X97953143Y-9053019D02*
X97953143Y-8053019D01*
X97953143Y-8053019D02*
X97857905Y-8195876D01*
X97857905Y-8195876D02*
X97762667Y-8291114D01*
X97762667Y-8291114D02*
X97667429Y-8338733D01*
X11065499Y-39254280D02*
X11017880Y-39301900D01*
X11017880Y-39301900D02*
X10875023Y-39349519D01*
X10875023Y-39349519D02*
X10779785Y-39349519D01*
X10779785Y-39349519D02*
X10636928Y-39301900D01*
X10636928Y-39301900D02*
X10541690Y-39206661D01*
X10541690Y-39206661D02*
X10494071Y-39111423D01*
X10494071Y-39111423D02*
X10446452Y-38920947D01*
X10446452Y-38920947D02*
X10446452Y-38778090D01*
X10446452Y-38778090D02*
X10494071Y-38587614D01*
X10494071Y-38587614D02*
X10541690Y-38492376D01*
X10541690Y-38492376D02*
X10636928Y-38397138D01*
X10636928Y-38397138D02*
X10779785Y-38349519D01*
X10779785Y-38349519D02*
X10875023Y-38349519D01*
X10875023Y-38349519D02*
X11017880Y-38397138D01*
X11017880Y-38397138D02*
X11065499Y-38444757D01*
X11255976Y-39444757D02*
X12017880Y-39444757D01*
X12589309Y-38825709D02*
X12732166Y-38873328D01*
X12732166Y-38873328D02*
X12779785Y-38920947D01*
X12779785Y-38920947D02*
X12827404Y-39016185D01*
X12827404Y-39016185D02*
X12827404Y-39159042D01*
X12827404Y-39159042D02*
X12779785Y-39254280D01*
X12779785Y-39254280D02*
X12732166Y-39301900D01*
X12732166Y-39301900D02*
X12636928Y-39349519D01*
X12636928Y-39349519D02*
X12255976Y-39349519D01*
X12255976Y-39349519D02*
X12255976Y-38349519D01*
X12255976Y-38349519D02*
X12589309Y-38349519D01*
X12589309Y-38349519D02*
X12684547Y-38397138D01*
X12684547Y-38397138D02*
X12732166Y-38444757D01*
X12732166Y-38444757D02*
X12779785Y-38539995D01*
X12779785Y-38539995D02*
X12779785Y-38635233D01*
X12779785Y-38635233D02*
X12732166Y-38730471D01*
X12732166Y-38730471D02*
X12684547Y-38778090D01*
X12684547Y-38778090D02*
X12589309Y-38825709D01*
X12589309Y-38825709D02*
X12255976Y-38825709D01*
X13255976Y-38349519D02*
X13255976Y-39159042D01*
X13255976Y-39159042D02*
X13303595Y-39254280D01*
X13303595Y-39254280D02*
X13351214Y-39301900D01*
X13351214Y-39301900D02*
X13446452Y-39349519D01*
X13446452Y-39349519D02*
X13636928Y-39349519D01*
X13636928Y-39349519D02*
X13732166Y-39301900D01*
X13732166Y-39301900D02*
X13779785Y-39254280D01*
X13779785Y-39254280D02*
X13827404Y-39159042D01*
X13827404Y-39159042D02*
X13827404Y-38349519D01*
X14779785Y-39349519D02*
X14303595Y-39349519D01*
X14303595Y-39349519D02*
X14303595Y-38349519D01*
X15113119Y-39349519D02*
X15113119Y-38349519D01*
X15684547Y-39349519D02*
X15255976Y-38778090D01*
X15684547Y-38349519D02*
X15113119Y-38920947D01*
X111238833Y-14403019D02*
X110905500Y-13926828D01*
X110667405Y-14403019D02*
X110667405Y-13403019D01*
X110667405Y-13403019D02*
X111048357Y-13403019D01*
X111048357Y-13403019D02*
X111143595Y-13450638D01*
X111143595Y-13450638D02*
X111191214Y-13498257D01*
X111191214Y-13498257D02*
X111238833Y-13593495D01*
X111238833Y-13593495D02*
X111238833Y-13736352D01*
X111238833Y-13736352D02*
X111191214Y-13831590D01*
X111191214Y-13831590D02*
X111143595Y-13879209D01*
X111143595Y-13879209D02*
X111048357Y-13926828D01*
X111048357Y-13926828D02*
X110667405Y-13926828D01*
X111619786Y-13498257D02*
X111667405Y-13450638D01*
X111667405Y-13450638D02*
X111762643Y-13403019D01*
X111762643Y-13403019D02*
X112000738Y-13403019D01*
X112000738Y-13403019D02*
X112095976Y-13450638D01*
X112095976Y-13450638D02*
X112143595Y-13498257D01*
X112143595Y-13498257D02*
X112191214Y-13593495D01*
X112191214Y-13593495D02*
X112191214Y-13688733D01*
X112191214Y-13688733D02*
X112143595Y-13831590D01*
X112143595Y-13831590D02*
X111572167Y-14403019D01*
X111572167Y-14403019D02*
X112191214Y-14403019D01*
X8553595Y-56824280D02*
X8505976Y-56871900D01*
X8505976Y-56871900D02*
X8363119Y-56919519D01*
X8363119Y-56919519D02*
X8267881Y-56919519D01*
X8267881Y-56919519D02*
X8125024Y-56871900D01*
X8125024Y-56871900D02*
X8029786Y-56776661D01*
X8029786Y-56776661D02*
X7982167Y-56681423D01*
X7982167Y-56681423D02*
X7934548Y-56490947D01*
X7934548Y-56490947D02*
X7934548Y-56348090D01*
X7934548Y-56348090D02*
X7982167Y-56157614D01*
X7982167Y-56157614D02*
X8029786Y-56062376D01*
X8029786Y-56062376D02*
X8125024Y-55967138D01*
X8125024Y-55967138D02*
X8267881Y-55919519D01*
X8267881Y-55919519D02*
X8363119Y-55919519D01*
X8363119Y-55919519D02*
X8505976Y-55967138D01*
X8505976Y-55967138D02*
X8553595Y-56014757D01*
X8744072Y-57014757D02*
X9505976Y-57014757D01*
X10315500Y-56919519D02*
X9982167Y-56443328D01*
X9744072Y-56919519D02*
X9744072Y-55919519D01*
X9744072Y-55919519D02*
X10125024Y-55919519D01*
X10125024Y-55919519D02*
X10220262Y-55967138D01*
X10220262Y-55967138D02*
X10267881Y-56014757D01*
X10267881Y-56014757D02*
X10315500Y-56109995D01*
X10315500Y-56109995D02*
X10315500Y-56252852D01*
X10315500Y-56252852D02*
X10267881Y-56348090D01*
X10267881Y-56348090D02*
X10220262Y-56395709D01*
X10220262Y-56395709D02*
X10125024Y-56443328D01*
X10125024Y-56443328D02*
X9744072Y-56443328D01*
X10744072Y-56395709D02*
X11077405Y-56395709D01*
X11220262Y-56919519D02*
X10744072Y-56919519D01*
X10744072Y-56919519D02*
X10744072Y-55919519D01*
X10744072Y-55919519D02*
X11220262Y-55919519D01*
X12172643Y-55967138D02*
X12077405Y-55919519D01*
X12077405Y-55919519D02*
X11934548Y-55919519D01*
X11934548Y-55919519D02*
X11791691Y-55967138D01*
X11791691Y-55967138D02*
X11696453Y-56062376D01*
X11696453Y-56062376D02*
X11648834Y-56157614D01*
X11648834Y-56157614D02*
X11601215Y-56348090D01*
X11601215Y-56348090D02*
X11601215Y-56490947D01*
X11601215Y-56490947D02*
X11648834Y-56681423D01*
X11648834Y-56681423D02*
X11696453Y-56776661D01*
X11696453Y-56776661D02*
X11791691Y-56871900D01*
X11791691Y-56871900D02*
X11934548Y-56919519D01*
X11934548Y-56919519D02*
X12029786Y-56919519D01*
X12029786Y-56919519D02*
X12172643Y-56871900D01*
X12172643Y-56871900D02*
X12220262Y-56824280D01*
X12220262Y-56824280D02*
X12220262Y-56490947D01*
X12220262Y-56490947D02*
X12029786Y-56490947D01*
X12648834Y-56919519D02*
X12648834Y-55919519D01*
X13125024Y-56919519D02*
X13125024Y-55919519D01*
X13125024Y-55919519D02*
X13696452Y-56919519D01*
X13696452Y-56919519D02*
X13696452Y-55919519D01*
X14696452Y-56919519D02*
X14125024Y-56919519D01*
X14410738Y-56919519D02*
X14410738Y-55919519D01*
X14410738Y-55919519D02*
X14315500Y-56062376D01*
X14315500Y-56062376D02*
X14220262Y-56157614D01*
X14220262Y-56157614D02*
X14125024Y-56205233D01*
X94857905Y-67219519D02*
X94857905Y-66219519D01*
X94857905Y-66219519D02*
X95096000Y-66219519D01*
X95096000Y-66219519D02*
X95238857Y-66267138D01*
X95238857Y-66267138D02*
X95334095Y-66362376D01*
X95334095Y-66362376D02*
X95381714Y-66457614D01*
X95381714Y-66457614D02*
X95429333Y-66648090D01*
X95429333Y-66648090D02*
X95429333Y-66790947D01*
X95429333Y-66790947D02*
X95381714Y-66981423D01*
X95381714Y-66981423D02*
X95334095Y-67076661D01*
X95334095Y-67076661D02*
X95238857Y-67171900D01*
X95238857Y-67171900D02*
X95096000Y-67219519D01*
X95096000Y-67219519D02*
X94857905Y-67219519D01*
X96334095Y-66219519D02*
X95857905Y-66219519D01*
X95857905Y-66219519D02*
X95810286Y-66695709D01*
X95810286Y-66695709D02*
X95857905Y-66648090D01*
X95857905Y-66648090D02*
X95953143Y-66600471D01*
X95953143Y-66600471D02*
X96191238Y-66600471D01*
X96191238Y-66600471D02*
X96286476Y-66648090D01*
X96286476Y-66648090D02*
X96334095Y-66695709D01*
X96334095Y-66695709D02*
X96381714Y-66790947D01*
X96381714Y-66790947D02*
X96381714Y-67029042D01*
X96381714Y-67029042D02*
X96334095Y-67124280D01*
X96334095Y-67124280D02*
X96286476Y-67171900D01*
X96286476Y-67171900D02*
X96191238Y-67219519D01*
X96191238Y-67219519D02*
X95953143Y-67219519D01*
X95953143Y-67219519D02*
X95857905Y-67171900D01*
X95857905Y-67171900D02*
X95810286Y-67124280D01*
X7886928Y-62824280D02*
X7839309Y-62871900D01*
X7839309Y-62871900D02*
X7696452Y-62919519D01*
X7696452Y-62919519D02*
X7601214Y-62919519D01*
X7601214Y-62919519D02*
X7458357Y-62871900D01*
X7458357Y-62871900D02*
X7363119Y-62776661D01*
X7363119Y-62776661D02*
X7315500Y-62681423D01*
X7315500Y-62681423D02*
X7267881Y-62490947D01*
X7267881Y-62490947D02*
X7267881Y-62348090D01*
X7267881Y-62348090D02*
X7315500Y-62157614D01*
X7315500Y-62157614D02*
X7363119Y-62062376D01*
X7363119Y-62062376D02*
X7458357Y-61967138D01*
X7458357Y-61967138D02*
X7601214Y-61919519D01*
X7601214Y-61919519D02*
X7696452Y-61919519D01*
X7696452Y-61919519D02*
X7839309Y-61967138D01*
X7839309Y-61967138D02*
X7886928Y-62014757D01*
X8077405Y-63014757D02*
X8839309Y-63014757D01*
X9648833Y-62919519D02*
X9315500Y-62443328D01*
X9077405Y-62919519D02*
X9077405Y-61919519D01*
X9077405Y-61919519D02*
X9458357Y-61919519D01*
X9458357Y-61919519D02*
X9553595Y-61967138D01*
X9553595Y-61967138D02*
X9601214Y-62014757D01*
X9601214Y-62014757D02*
X9648833Y-62109995D01*
X9648833Y-62109995D02*
X9648833Y-62252852D01*
X9648833Y-62252852D02*
X9601214Y-62348090D01*
X9601214Y-62348090D02*
X9553595Y-62395709D01*
X9553595Y-62395709D02*
X9458357Y-62443328D01*
X9458357Y-62443328D02*
X9077405Y-62443328D01*
X10077405Y-62395709D02*
X10410738Y-62395709D01*
X10553595Y-62919519D02*
X10077405Y-62919519D01*
X10077405Y-62919519D02*
X10077405Y-61919519D01*
X10077405Y-61919519D02*
X10553595Y-61919519D01*
X11505976Y-61967138D02*
X11410738Y-61919519D01*
X11410738Y-61919519D02*
X11267881Y-61919519D01*
X11267881Y-61919519D02*
X11125024Y-61967138D01*
X11125024Y-61967138D02*
X11029786Y-62062376D01*
X11029786Y-62062376D02*
X10982167Y-62157614D01*
X10982167Y-62157614D02*
X10934548Y-62348090D01*
X10934548Y-62348090D02*
X10934548Y-62490947D01*
X10934548Y-62490947D02*
X10982167Y-62681423D01*
X10982167Y-62681423D02*
X11029786Y-62776661D01*
X11029786Y-62776661D02*
X11125024Y-62871900D01*
X11125024Y-62871900D02*
X11267881Y-62919519D01*
X11267881Y-62919519D02*
X11363119Y-62919519D01*
X11363119Y-62919519D02*
X11505976Y-62871900D01*
X11505976Y-62871900D02*
X11553595Y-62824280D01*
X11553595Y-62824280D02*
X11553595Y-62490947D01*
X11553595Y-62490947D02*
X11363119Y-62490947D01*
X12172643Y-61919519D02*
X12363119Y-61919519D01*
X12363119Y-61919519D02*
X12458357Y-61967138D01*
X12458357Y-61967138D02*
X12553595Y-62062376D01*
X12553595Y-62062376D02*
X12601214Y-62252852D01*
X12601214Y-62252852D02*
X12601214Y-62586185D01*
X12601214Y-62586185D02*
X12553595Y-62776661D01*
X12553595Y-62776661D02*
X12458357Y-62871900D01*
X12458357Y-62871900D02*
X12363119Y-62919519D01*
X12363119Y-62919519D02*
X12172643Y-62919519D01*
X12172643Y-62919519D02*
X12077405Y-62871900D01*
X12077405Y-62871900D02*
X11982167Y-62776661D01*
X11982167Y-62776661D02*
X11934548Y-62586185D01*
X11934548Y-62586185D02*
X11934548Y-62252852D01*
X11934548Y-62252852D02*
X11982167Y-62062376D01*
X11982167Y-62062376D02*
X12077405Y-61967138D01*
X12077405Y-61967138D02*
X12172643Y-61919519D01*
X13029786Y-61919519D02*
X13029786Y-62729042D01*
X13029786Y-62729042D02*
X13077405Y-62824280D01*
X13077405Y-62824280D02*
X13125024Y-62871900D01*
X13125024Y-62871900D02*
X13220262Y-62919519D01*
X13220262Y-62919519D02*
X13410738Y-62919519D01*
X13410738Y-62919519D02*
X13505976Y-62871900D01*
X13505976Y-62871900D02*
X13553595Y-62824280D01*
X13553595Y-62824280D02*
X13601214Y-62729042D01*
X13601214Y-62729042D02*
X13601214Y-61919519D01*
X13934548Y-61919519D02*
X14505976Y-61919519D01*
X14220262Y-62919519D02*
X14220262Y-61919519D01*
X15363119Y-62919519D02*
X14791691Y-62919519D01*
X15077405Y-62919519D02*
X15077405Y-61919519D01*
X15077405Y-61919519D02*
X14982167Y-62062376D01*
X14982167Y-62062376D02*
X14886929Y-62157614D01*
X14886929Y-62157614D02*
X14791691Y-62205233D01*
X86429333Y-27053019D02*
X86096000Y-26576828D01*
X85857905Y-27053019D02*
X85857905Y-26053019D01*
X85857905Y-26053019D02*
X86238857Y-26053019D01*
X86238857Y-26053019D02*
X86334095Y-26100638D01*
X86334095Y-26100638D02*
X86381714Y-26148257D01*
X86381714Y-26148257D02*
X86429333Y-26243495D01*
X86429333Y-26243495D02*
X86429333Y-26386352D01*
X86429333Y-26386352D02*
X86381714Y-26481590D01*
X86381714Y-26481590D02*
X86334095Y-26529209D01*
X86334095Y-26529209D02*
X86238857Y-26576828D01*
X86238857Y-26576828D02*
X85857905Y-26576828D01*
X87286476Y-26053019D02*
X87096000Y-26053019D01*
X87096000Y-26053019D02*
X87000762Y-26100638D01*
X87000762Y-26100638D02*
X86953143Y-26148257D01*
X86953143Y-26148257D02*
X86857905Y-26291114D01*
X86857905Y-26291114D02*
X86810286Y-26481590D01*
X86810286Y-26481590D02*
X86810286Y-26862542D01*
X86810286Y-26862542D02*
X86857905Y-26957780D01*
X86857905Y-26957780D02*
X86905524Y-27005400D01*
X86905524Y-27005400D02*
X87000762Y-27053019D01*
X87000762Y-27053019D02*
X87191238Y-27053019D01*
X87191238Y-27053019D02*
X87286476Y-27005400D01*
X87286476Y-27005400D02*
X87334095Y-26957780D01*
X87334095Y-26957780D02*
X87381714Y-26862542D01*
X87381714Y-26862542D02*
X87381714Y-26624447D01*
X87381714Y-26624447D02*
X87334095Y-26529209D01*
X87334095Y-26529209D02*
X87286476Y-26481590D01*
X87286476Y-26481590D02*
X87191238Y-26433971D01*
X87191238Y-26433971D02*
X87000762Y-26433971D01*
X87000762Y-26433971D02*
X86905524Y-26481590D01*
X86905524Y-26481590D02*
X86857905Y-26529209D01*
X86857905Y-26529209D02*
X86810286Y-26624447D01*
X15476666Y-6303019D02*
X15476666Y-7017304D01*
X15476666Y-7017304D02*
X15429047Y-7160161D01*
X15429047Y-7160161D02*
X15333809Y-7255400D01*
X15333809Y-7255400D02*
X15190952Y-7303019D01*
X15190952Y-7303019D02*
X15095714Y-7303019D01*
X16476666Y-7303019D02*
X15905238Y-7303019D01*
X16190952Y-7303019D02*
X16190952Y-6303019D01*
X16190952Y-6303019D02*
X16095714Y-6445876D01*
X16095714Y-6445876D02*
X16000476Y-6541114D01*
X16000476Y-6541114D02*
X15905238Y-6588733D01*
X84476952Y-87336019D02*
X84476952Y-88145542D01*
X84476952Y-88145542D02*
X84524571Y-88240780D01*
X84524571Y-88240780D02*
X84572190Y-88288400D01*
X84572190Y-88288400D02*
X84667428Y-88336019D01*
X84667428Y-88336019D02*
X84857904Y-88336019D01*
X84857904Y-88336019D02*
X84953142Y-88288400D01*
X84953142Y-88288400D02*
X85000761Y-88240780D01*
X85000761Y-88240780D02*
X85048380Y-88145542D01*
X85048380Y-88145542D02*
X85048380Y-87336019D01*
X85286476Y-88431257D02*
X86048380Y-88431257D01*
X86857904Y-88240780D02*
X86810285Y-88288400D01*
X86810285Y-88288400D02*
X86667428Y-88336019D01*
X86667428Y-88336019D02*
X86572190Y-88336019D01*
X86572190Y-88336019D02*
X86429333Y-88288400D01*
X86429333Y-88288400D02*
X86334095Y-88193161D01*
X86334095Y-88193161D02*
X86286476Y-88097923D01*
X86286476Y-88097923D02*
X86238857Y-87907447D01*
X86238857Y-87907447D02*
X86238857Y-87764590D01*
X86238857Y-87764590D02*
X86286476Y-87574114D01*
X86286476Y-87574114D02*
X86334095Y-87478876D01*
X86334095Y-87478876D02*
X86429333Y-87383638D01*
X86429333Y-87383638D02*
X86572190Y-87336019D01*
X86572190Y-87336019D02*
X86667428Y-87336019D01*
X86667428Y-87336019D02*
X86810285Y-87383638D01*
X86810285Y-87383638D02*
X86857904Y-87431257D01*
X87238857Y-88050304D02*
X87715047Y-88050304D01*
X87143619Y-88336019D02*
X87476952Y-87336019D01*
X87476952Y-87336019D02*
X87810285Y-88336019D01*
X88143619Y-88336019D02*
X88143619Y-87336019D01*
X88143619Y-87336019D02*
X88715047Y-88336019D01*
X88715047Y-88336019D02*
X88715047Y-87336019D01*
X93095999Y-20927780D02*
X93048380Y-20975400D01*
X93048380Y-20975400D02*
X92905523Y-21023019D01*
X92905523Y-21023019D02*
X92810285Y-21023019D01*
X92810285Y-21023019D02*
X92667428Y-20975400D01*
X92667428Y-20975400D02*
X92572190Y-20880161D01*
X92572190Y-20880161D02*
X92524571Y-20784923D01*
X92524571Y-20784923D02*
X92476952Y-20594447D01*
X92476952Y-20594447D02*
X92476952Y-20451590D01*
X92476952Y-20451590D02*
X92524571Y-20261114D01*
X92524571Y-20261114D02*
X92572190Y-20165876D01*
X92572190Y-20165876D02*
X92667428Y-20070638D01*
X92667428Y-20070638D02*
X92810285Y-20023019D01*
X92810285Y-20023019D02*
X92905523Y-20023019D01*
X92905523Y-20023019D02*
X93048380Y-20070638D01*
X93048380Y-20070638D02*
X93095999Y-20118257D01*
X93286476Y-21118257D02*
X94048380Y-21118257D01*
X94191238Y-20023019D02*
X94429333Y-21023019D01*
X94429333Y-21023019D02*
X94619809Y-20308733D01*
X94619809Y-20308733D02*
X94810285Y-21023019D01*
X94810285Y-21023019D02*
X95048381Y-20023019D01*
X95381714Y-20737304D02*
X95857904Y-20737304D01*
X95286476Y-21023019D02*
X95619809Y-20023019D01*
X95619809Y-20023019D02*
X95953142Y-21023019D01*
X96286476Y-21023019D02*
X96286476Y-20023019D01*
X96857904Y-21023019D02*
X96429333Y-20451590D01*
X96857904Y-20023019D02*
X96286476Y-20594447D01*
X97286476Y-20499209D02*
X97619809Y-20499209D01*
X97762666Y-21023019D02*
X97286476Y-21023019D01*
X97286476Y-21023019D02*
X97286476Y-20023019D01*
X97286476Y-20023019D02*
X97762666Y-20023019D01*
X98715047Y-21023019D02*
X98143619Y-21023019D01*
X98429333Y-21023019D02*
X98429333Y-20023019D01*
X98429333Y-20023019D02*
X98334095Y-20165876D01*
X98334095Y-20165876D02*
X98238857Y-20261114D01*
X98238857Y-20261114D02*
X98143619Y-20308733D01*
X84286476Y-46819519D02*
X84286476Y-47629042D01*
X84286476Y-47629042D02*
X84334095Y-47724280D01*
X84334095Y-47724280D02*
X84381714Y-47771900D01*
X84381714Y-47771900D02*
X84476952Y-47819519D01*
X84476952Y-47819519D02*
X84667428Y-47819519D01*
X84667428Y-47819519D02*
X84762666Y-47771900D01*
X84762666Y-47771900D02*
X84810285Y-47724280D01*
X84810285Y-47724280D02*
X84857904Y-47629042D01*
X84857904Y-47629042D02*
X84857904Y-46819519D01*
X85096000Y-47914757D02*
X85857904Y-47914757D01*
X86572190Y-47819519D02*
X86096000Y-47819519D01*
X86096000Y-47819519D02*
X86096000Y-46819519D01*
X86905524Y-47819519D02*
X86905524Y-46819519D01*
X87381714Y-47819519D02*
X87381714Y-46819519D01*
X87381714Y-46819519D02*
X87953142Y-47819519D01*
X87953142Y-47819519D02*
X87953142Y-46819519D01*
X88381714Y-46914757D02*
X88429333Y-46867138D01*
X88429333Y-46867138D02*
X88524571Y-46819519D01*
X88524571Y-46819519D02*
X88762666Y-46819519D01*
X88762666Y-46819519D02*
X88857904Y-46867138D01*
X88857904Y-46867138D02*
X88905523Y-46914757D01*
X88905523Y-46914757D02*
X88953142Y-47009995D01*
X88953142Y-47009995D02*
X88953142Y-47105233D01*
X88953142Y-47105233D02*
X88905523Y-47248090D01*
X88905523Y-47248090D02*
X88334095Y-47819519D01*
X88334095Y-47819519D02*
X88953142Y-47819519D01*
X12474547Y-34594757D02*
X12379309Y-34547138D01*
X12379309Y-34547138D02*
X12284071Y-34451900D01*
X12284071Y-34451900D02*
X12141214Y-34309042D01*
X12141214Y-34309042D02*
X12045976Y-34261423D01*
X12045976Y-34261423D02*
X11950738Y-34261423D01*
X11998357Y-34499519D02*
X11903119Y-34451900D01*
X11903119Y-34451900D02*
X11807881Y-34356661D01*
X11807881Y-34356661D02*
X11760262Y-34166185D01*
X11760262Y-34166185D02*
X11760262Y-33832852D01*
X11760262Y-33832852D02*
X11807881Y-33642376D01*
X11807881Y-33642376D02*
X11903119Y-33547138D01*
X11903119Y-33547138D02*
X11998357Y-33499519D01*
X11998357Y-33499519D02*
X12188833Y-33499519D01*
X12188833Y-33499519D02*
X12284071Y-33547138D01*
X12284071Y-33547138D02*
X12379309Y-33642376D01*
X12379309Y-33642376D02*
X12426928Y-33832852D01*
X12426928Y-33832852D02*
X12426928Y-34166185D01*
X12426928Y-34166185D02*
X12379309Y-34356661D01*
X12379309Y-34356661D02*
X12284071Y-34451900D01*
X12284071Y-34451900D02*
X12188833Y-34499519D01*
X12188833Y-34499519D02*
X11998357Y-34499519D01*
X12617405Y-34594757D02*
X13379309Y-34594757D01*
X14188833Y-34499519D02*
X13855500Y-34023328D01*
X13617405Y-34499519D02*
X13617405Y-33499519D01*
X13617405Y-33499519D02*
X13998357Y-33499519D01*
X13998357Y-33499519D02*
X14093595Y-33547138D01*
X14093595Y-33547138D02*
X14141214Y-33594757D01*
X14141214Y-33594757D02*
X14188833Y-33689995D01*
X14188833Y-33689995D02*
X14188833Y-33832852D01*
X14188833Y-33832852D02*
X14141214Y-33928090D01*
X14141214Y-33928090D02*
X14093595Y-33975709D01*
X14093595Y-33975709D02*
X13998357Y-34023328D01*
X13998357Y-34023328D02*
X13617405Y-34023328D01*
X14617405Y-33975709D02*
X14950738Y-33975709D01*
X15093595Y-34499519D02*
X14617405Y-34499519D01*
X14617405Y-34499519D02*
X14617405Y-33499519D01*
X14617405Y-33499519D02*
X15093595Y-33499519D01*
X15379310Y-33499519D02*
X15712643Y-34499519D01*
X15712643Y-34499519D02*
X16045976Y-33499519D01*
X21529785Y-68824280D02*
X21482166Y-68871900D01*
X21482166Y-68871900D02*
X21339309Y-68919519D01*
X21339309Y-68919519D02*
X21244071Y-68919519D01*
X21244071Y-68919519D02*
X21101214Y-68871900D01*
X21101214Y-68871900D02*
X21005976Y-68776661D01*
X21005976Y-68776661D02*
X20958357Y-68681423D01*
X20958357Y-68681423D02*
X20910738Y-68490947D01*
X20910738Y-68490947D02*
X20910738Y-68348090D01*
X20910738Y-68348090D02*
X20958357Y-68157614D01*
X20958357Y-68157614D02*
X21005976Y-68062376D01*
X21005976Y-68062376D02*
X21101214Y-67967138D01*
X21101214Y-67967138D02*
X21244071Y-67919519D01*
X21244071Y-67919519D02*
X21339309Y-67919519D01*
X21339309Y-67919519D02*
X21482166Y-67967138D01*
X21482166Y-67967138D02*
X21529785Y-68014757D01*
X21720262Y-69014757D02*
X22482166Y-69014757D01*
X22625024Y-67919519D02*
X23244071Y-67919519D01*
X23244071Y-67919519D02*
X22910738Y-68300471D01*
X22910738Y-68300471D02*
X23053595Y-68300471D01*
X23053595Y-68300471D02*
X23148833Y-68348090D01*
X23148833Y-68348090D02*
X23196452Y-68395709D01*
X23196452Y-68395709D02*
X23244071Y-68490947D01*
X23244071Y-68490947D02*
X23244071Y-68729042D01*
X23244071Y-68729042D02*
X23196452Y-68824280D01*
X23196452Y-68824280D02*
X23148833Y-68871900D01*
X23148833Y-68871900D02*
X23053595Y-68919519D01*
X23053595Y-68919519D02*
X22767881Y-68919519D01*
X22767881Y-68919519D02*
X22672643Y-68871900D01*
X22672643Y-68871900D02*
X22625024Y-68824280D01*
X23577405Y-67919519D02*
X24196452Y-67919519D01*
X24196452Y-67919519D02*
X23863119Y-68300471D01*
X23863119Y-68300471D02*
X24005976Y-68300471D01*
X24005976Y-68300471D02*
X24101214Y-68348090D01*
X24101214Y-68348090D02*
X24148833Y-68395709D01*
X24148833Y-68395709D02*
X24196452Y-68490947D01*
X24196452Y-68490947D02*
X24196452Y-68729042D01*
X24196452Y-68729042D02*
X24148833Y-68824280D01*
X24148833Y-68824280D02*
X24101214Y-68871900D01*
X24101214Y-68871900D02*
X24005976Y-68919519D01*
X24005976Y-68919519D02*
X23720262Y-68919519D01*
X23720262Y-68919519D02*
X23625024Y-68871900D01*
X23625024Y-68871900D02*
X23577405Y-68824280D01*
X24625024Y-68919519D02*
X24625024Y-67919519D01*
X25101214Y-68919519D02*
X25101214Y-67919519D01*
X25101214Y-67919519D02*
X25672642Y-68919519D01*
X25672642Y-68919519D02*
X25672642Y-67919519D01*
X93095999Y-61444280D02*
X93048380Y-61491900D01*
X93048380Y-61491900D02*
X92905523Y-61539519D01*
X92905523Y-61539519D02*
X92810285Y-61539519D01*
X92810285Y-61539519D02*
X92667428Y-61491900D01*
X92667428Y-61491900D02*
X92572190Y-61396661D01*
X92572190Y-61396661D02*
X92524571Y-61301423D01*
X92524571Y-61301423D02*
X92476952Y-61110947D01*
X92476952Y-61110947D02*
X92476952Y-60968090D01*
X92476952Y-60968090D02*
X92524571Y-60777614D01*
X92524571Y-60777614D02*
X92572190Y-60682376D01*
X92572190Y-60682376D02*
X92667428Y-60587138D01*
X92667428Y-60587138D02*
X92810285Y-60539519D01*
X92810285Y-60539519D02*
X92905523Y-60539519D01*
X92905523Y-60539519D02*
X93048380Y-60587138D01*
X93048380Y-60587138D02*
X93095999Y-60634757D01*
X93286476Y-61634757D02*
X94048380Y-61634757D01*
X94191238Y-60539519D02*
X94429333Y-61539519D01*
X94429333Y-61539519D02*
X94619809Y-60825233D01*
X94619809Y-60825233D02*
X94810285Y-61539519D01*
X94810285Y-61539519D02*
X95048381Y-60539519D01*
X95381714Y-61253804D02*
X95857904Y-61253804D01*
X95286476Y-61539519D02*
X95619809Y-60539519D01*
X95619809Y-60539519D02*
X95953142Y-61539519D01*
X96286476Y-61539519D02*
X96286476Y-60539519D01*
X96857904Y-61539519D02*
X96429333Y-60968090D01*
X96857904Y-60539519D02*
X96286476Y-61110947D01*
X97286476Y-61015709D02*
X97619809Y-61015709D01*
X97762666Y-61539519D02*
X97286476Y-61539519D01*
X97286476Y-61539519D02*
X97286476Y-60539519D01*
X97286476Y-60539519D02*
X97762666Y-60539519D01*
X98143619Y-60634757D02*
X98191238Y-60587138D01*
X98191238Y-60587138D02*
X98286476Y-60539519D01*
X98286476Y-60539519D02*
X98524571Y-60539519D01*
X98524571Y-60539519D02*
X98619809Y-60587138D01*
X98619809Y-60587138D02*
X98667428Y-60634757D01*
X98667428Y-60634757D02*
X98715047Y-60729995D01*
X98715047Y-60729995D02*
X98715047Y-60825233D01*
X98715047Y-60825233D02*
X98667428Y-60968090D01*
X98667428Y-60968090D02*
X98096000Y-61539519D01*
X98096000Y-61539519D02*
X98715047Y-61539519D01*
X84167428Y-95790780D02*
X84119809Y-95838400D01*
X84119809Y-95838400D02*
X83976952Y-95886019D01*
X83976952Y-95886019D02*
X83881714Y-95886019D01*
X83881714Y-95886019D02*
X83738857Y-95838400D01*
X83738857Y-95838400D02*
X83643619Y-95743161D01*
X83643619Y-95743161D02*
X83596000Y-95647923D01*
X83596000Y-95647923D02*
X83548381Y-95457447D01*
X83548381Y-95457447D02*
X83548381Y-95314590D01*
X83548381Y-95314590D02*
X83596000Y-95124114D01*
X83596000Y-95124114D02*
X83643619Y-95028876D01*
X83643619Y-95028876D02*
X83738857Y-94933638D01*
X83738857Y-94933638D02*
X83881714Y-94886019D01*
X83881714Y-94886019D02*
X83976952Y-94886019D01*
X83976952Y-94886019D02*
X84119809Y-94933638D01*
X84119809Y-94933638D02*
X84167428Y-94981257D01*
X84357905Y-95981257D02*
X85119809Y-95981257D01*
X85929333Y-95790780D02*
X85881714Y-95838400D01*
X85881714Y-95838400D02*
X85738857Y-95886019D01*
X85738857Y-95886019D02*
X85643619Y-95886019D01*
X85643619Y-95886019D02*
X85500762Y-95838400D01*
X85500762Y-95838400D02*
X85405524Y-95743161D01*
X85405524Y-95743161D02*
X85357905Y-95647923D01*
X85357905Y-95647923D02*
X85310286Y-95457447D01*
X85310286Y-95457447D02*
X85310286Y-95314590D01*
X85310286Y-95314590D02*
X85357905Y-95124114D01*
X85357905Y-95124114D02*
X85405524Y-95028876D01*
X85405524Y-95028876D02*
X85500762Y-94933638D01*
X85500762Y-94933638D02*
X85643619Y-94886019D01*
X85643619Y-94886019D02*
X85738857Y-94886019D01*
X85738857Y-94886019D02*
X85881714Y-94933638D01*
X85881714Y-94933638D02*
X85929333Y-94981257D01*
X86310286Y-95600304D02*
X86786476Y-95600304D01*
X86215048Y-95886019D02*
X86548381Y-94886019D01*
X86548381Y-94886019D02*
X86881714Y-95886019D01*
X87215048Y-95886019D02*
X87215048Y-94886019D01*
X87215048Y-94886019D02*
X87786476Y-95886019D01*
X87786476Y-95886019D02*
X87786476Y-94886019D01*
X88119810Y-94886019D02*
X88453143Y-95886019D01*
X88453143Y-95886019D02*
X88786476Y-94886019D01*
X89072191Y-94981257D02*
X89119810Y-94933638D01*
X89119810Y-94933638D02*
X89215048Y-94886019D01*
X89215048Y-94886019D02*
X89453143Y-94886019D01*
X89453143Y-94886019D02*
X89548381Y-94933638D01*
X89548381Y-94933638D02*
X89596000Y-94981257D01*
X89596000Y-94981257D02*
X89643619Y-95076495D01*
X89643619Y-95076495D02*
X89643619Y-95171733D01*
X89643619Y-95171733D02*
X89596000Y-95314590D01*
X89596000Y-95314590D02*
X89024572Y-95886019D01*
X89024572Y-95886019D02*
X89643619Y-95886019D01*
X84453142Y-61444280D02*
X84405523Y-61491900D01*
X84405523Y-61491900D02*
X84262666Y-61539519D01*
X84262666Y-61539519D02*
X84167428Y-61539519D01*
X84167428Y-61539519D02*
X84024571Y-61491900D01*
X84024571Y-61491900D02*
X83929333Y-61396661D01*
X83929333Y-61396661D02*
X83881714Y-61301423D01*
X83881714Y-61301423D02*
X83834095Y-61110947D01*
X83834095Y-61110947D02*
X83834095Y-60968090D01*
X83834095Y-60968090D02*
X83881714Y-60777614D01*
X83881714Y-60777614D02*
X83929333Y-60682376D01*
X83929333Y-60682376D02*
X84024571Y-60587138D01*
X84024571Y-60587138D02*
X84167428Y-60539519D01*
X84167428Y-60539519D02*
X84262666Y-60539519D01*
X84262666Y-60539519D02*
X84405523Y-60587138D01*
X84405523Y-60587138D02*
X84453142Y-60634757D01*
X84643619Y-61634757D02*
X85405523Y-61634757D01*
X86119809Y-61539519D02*
X85643619Y-61539519D01*
X85643619Y-61539519D02*
X85643619Y-60539519D01*
X86453143Y-61539519D02*
X86453143Y-60539519D01*
X86929333Y-61539519D02*
X86929333Y-60539519D01*
X86929333Y-60539519D02*
X87500761Y-61539519D01*
X87500761Y-61539519D02*
X87500761Y-60539519D01*
X88310285Y-61015709D02*
X87976952Y-61015709D01*
X87976952Y-61539519D02*
X87976952Y-60539519D01*
X87976952Y-60539519D02*
X88453142Y-60539519D01*
X88786476Y-60634757D02*
X88834095Y-60587138D01*
X88834095Y-60587138D02*
X88929333Y-60539519D01*
X88929333Y-60539519D02*
X89167428Y-60539519D01*
X89167428Y-60539519D02*
X89262666Y-60587138D01*
X89262666Y-60587138D02*
X89310285Y-60634757D01*
X89310285Y-60634757D02*
X89357904Y-60729995D01*
X89357904Y-60729995D02*
X89357904Y-60825233D01*
X89357904Y-60825233D02*
X89310285Y-60968090D01*
X89310285Y-60968090D02*
X88738857Y-61539519D01*
X88738857Y-61539519D02*
X89357904Y-61539519D01*
X86429333Y-67569519D02*
X86096000Y-67093328D01*
X85857905Y-67569519D02*
X85857905Y-66569519D01*
X85857905Y-66569519D02*
X86238857Y-66569519D01*
X86238857Y-66569519D02*
X86334095Y-66617138D01*
X86334095Y-66617138D02*
X86381714Y-66664757D01*
X86381714Y-66664757D02*
X86429333Y-66759995D01*
X86429333Y-66759995D02*
X86429333Y-66902852D01*
X86429333Y-66902852D02*
X86381714Y-66998090D01*
X86381714Y-66998090D02*
X86334095Y-67045709D01*
X86334095Y-67045709D02*
X86238857Y-67093328D01*
X86238857Y-67093328D02*
X85857905Y-67093328D01*
X86762667Y-66569519D02*
X87429333Y-66569519D01*
X87429333Y-66569519D02*
X87000762Y-67569519D01*
X40112590Y-6303019D02*
X40112590Y-7017304D01*
X40112590Y-7017304D02*
X40064971Y-7160161D01*
X40064971Y-7160161D02*
X39969733Y-7255400D01*
X39969733Y-7255400D02*
X39826876Y-7303019D01*
X39826876Y-7303019D02*
X39731638Y-7303019D01*
X40350686Y-7398257D02*
X41112590Y-7398257D01*
X41350686Y-7303019D02*
X41350686Y-6303019D01*
X41350686Y-6303019D02*
X41588781Y-6303019D01*
X41588781Y-6303019D02*
X41731638Y-6350638D01*
X41731638Y-6350638D02*
X41826876Y-6445876D01*
X41826876Y-6445876D02*
X41874495Y-6541114D01*
X41874495Y-6541114D02*
X41922114Y-6731590D01*
X41922114Y-6731590D02*
X41922114Y-6874447D01*
X41922114Y-6874447D02*
X41874495Y-7064923D01*
X41874495Y-7064923D02*
X41826876Y-7160161D01*
X41826876Y-7160161D02*
X41731638Y-7255400D01*
X41731638Y-7255400D02*
X41588781Y-7303019D01*
X41588781Y-7303019D02*
X41350686Y-7303019D01*
X42350686Y-6779209D02*
X42684019Y-6779209D01*
X42826876Y-7303019D02*
X42350686Y-7303019D01*
X42350686Y-7303019D02*
X42350686Y-6303019D01*
X42350686Y-6303019D02*
X42826876Y-6303019D01*
X43112591Y-6303019D02*
X43445924Y-7303019D01*
X43445924Y-7303019D02*
X43779257Y-6303019D01*
X44112591Y-7303019D02*
X44112591Y-6303019D01*
X44684019Y-7303019D02*
X44255448Y-6731590D01*
X44684019Y-6303019D02*
X44112591Y-6874447D01*
X45112591Y-7303019D02*
X45112591Y-6303019D01*
X45445924Y-6303019D02*
X46017352Y-6303019D01*
X45731638Y-7303019D02*
X45731638Y-6303019D01*
X46112591Y-7398257D02*
X46874495Y-7398257D01*
X47588781Y-7303019D02*
X47112591Y-7303019D01*
X47112591Y-7303019D02*
X47112591Y-6303019D01*
X84310285Y-14757780D02*
X84262666Y-14805400D01*
X84262666Y-14805400D02*
X84119809Y-14853019D01*
X84119809Y-14853019D02*
X84024571Y-14853019D01*
X84024571Y-14853019D02*
X83881714Y-14805400D01*
X83881714Y-14805400D02*
X83786476Y-14710161D01*
X83786476Y-14710161D02*
X83738857Y-14614923D01*
X83738857Y-14614923D02*
X83691238Y-14424447D01*
X83691238Y-14424447D02*
X83691238Y-14281590D01*
X83691238Y-14281590D02*
X83738857Y-14091114D01*
X83738857Y-14091114D02*
X83786476Y-13995876D01*
X83786476Y-13995876D02*
X83881714Y-13900638D01*
X83881714Y-13900638D02*
X84024571Y-13853019D01*
X84024571Y-13853019D02*
X84119809Y-13853019D01*
X84119809Y-13853019D02*
X84262666Y-13900638D01*
X84262666Y-13900638D02*
X84310285Y-13948257D01*
X84500762Y-14948257D02*
X85262666Y-14948257D01*
X85834095Y-14329209D02*
X85976952Y-14376828D01*
X85976952Y-14376828D02*
X86024571Y-14424447D01*
X86024571Y-14424447D02*
X86072190Y-14519685D01*
X86072190Y-14519685D02*
X86072190Y-14662542D01*
X86072190Y-14662542D02*
X86024571Y-14757780D01*
X86024571Y-14757780D02*
X85976952Y-14805400D01*
X85976952Y-14805400D02*
X85881714Y-14853019D01*
X85881714Y-14853019D02*
X85500762Y-14853019D01*
X85500762Y-14853019D02*
X85500762Y-13853019D01*
X85500762Y-13853019D02*
X85834095Y-13853019D01*
X85834095Y-13853019D02*
X85929333Y-13900638D01*
X85929333Y-13900638D02*
X85976952Y-13948257D01*
X85976952Y-13948257D02*
X86024571Y-14043495D01*
X86024571Y-14043495D02*
X86024571Y-14138733D01*
X86024571Y-14138733D02*
X85976952Y-14233971D01*
X85976952Y-14233971D02*
X85929333Y-14281590D01*
X85929333Y-14281590D02*
X85834095Y-14329209D01*
X85834095Y-14329209D02*
X85500762Y-14329209D01*
X86453143Y-14567304D02*
X86929333Y-14567304D01*
X86357905Y-14853019D02*
X86691238Y-13853019D01*
X86691238Y-13853019D02*
X87024571Y-14853019D01*
X87215048Y-13853019D02*
X87786476Y-13853019D01*
X87500762Y-14853019D02*
X87500762Y-13853019D01*
X88643619Y-14853019D02*
X88072191Y-14853019D01*
X88357905Y-14853019D02*
X88357905Y-13853019D01*
X88357905Y-13853019D02*
X88262667Y-13995876D01*
X88262667Y-13995876D02*
X88167429Y-14091114D01*
X88167429Y-14091114D02*
X88072191Y-14138733D01*
X89024572Y-14567304D02*
X89500762Y-14567304D01*
X88929334Y-14853019D02*
X89262667Y-13853019D01*
X89262667Y-13853019D02*
X89596000Y-14853019D01*
X93238856Y-14927780D02*
X93191237Y-14975400D01*
X93191237Y-14975400D02*
X93048380Y-15023019D01*
X93048380Y-15023019D02*
X92953142Y-15023019D01*
X92953142Y-15023019D02*
X92810285Y-14975400D01*
X92810285Y-14975400D02*
X92715047Y-14880161D01*
X92715047Y-14880161D02*
X92667428Y-14784923D01*
X92667428Y-14784923D02*
X92619809Y-14594447D01*
X92619809Y-14594447D02*
X92619809Y-14451590D01*
X92619809Y-14451590D02*
X92667428Y-14261114D01*
X92667428Y-14261114D02*
X92715047Y-14165876D01*
X92715047Y-14165876D02*
X92810285Y-14070638D01*
X92810285Y-14070638D02*
X92953142Y-14023019D01*
X92953142Y-14023019D02*
X93048380Y-14023019D01*
X93048380Y-14023019D02*
X93191237Y-14070638D01*
X93191237Y-14070638D02*
X93238856Y-14118257D01*
X93429333Y-15118257D02*
X94191237Y-15118257D01*
X94762666Y-14499209D02*
X94905523Y-14546828D01*
X94905523Y-14546828D02*
X94953142Y-14594447D01*
X94953142Y-14594447D02*
X95000761Y-14689685D01*
X95000761Y-14689685D02*
X95000761Y-14832542D01*
X95000761Y-14832542D02*
X94953142Y-14927780D01*
X94953142Y-14927780D02*
X94905523Y-14975400D01*
X94905523Y-14975400D02*
X94810285Y-15023019D01*
X94810285Y-15023019D02*
X94429333Y-15023019D01*
X94429333Y-15023019D02*
X94429333Y-14023019D01*
X94429333Y-14023019D02*
X94762666Y-14023019D01*
X94762666Y-14023019D02*
X94857904Y-14070638D01*
X94857904Y-14070638D02*
X94905523Y-14118257D01*
X94905523Y-14118257D02*
X94953142Y-14213495D01*
X94953142Y-14213495D02*
X94953142Y-14308733D01*
X94953142Y-14308733D02*
X94905523Y-14403971D01*
X94905523Y-14403971D02*
X94857904Y-14451590D01*
X94857904Y-14451590D02*
X94762666Y-14499209D01*
X94762666Y-14499209D02*
X94429333Y-14499209D01*
X95381714Y-14737304D02*
X95857904Y-14737304D01*
X95286476Y-15023019D02*
X95619809Y-14023019D01*
X95619809Y-14023019D02*
X95953142Y-15023019D01*
X96143619Y-14023019D02*
X96715047Y-14023019D01*
X96429333Y-15023019D02*
X96429333Y-14023019D01*
X97572190Y-15023019D02*
X97000762Y-15023019D01*
X97286476Y-15023019D02*
X97286476Y-14023019D01*
X97286476Y-14023019D02*
X97191238Y-14165876D01*
X97191238Y-14165876D02*
X97096000Y-14261114D01*
X97096000Y-14261114D02*
X97000762Y-14308733D01*
X98334095Y-14499209D02*
X98476952Y-14546828D01*
X98476952Y-14546828D02*
X98524571Y-14594447D01*
X98524571Y-14594447D02*
X98572190Y-14689685D01*
X98572190Y-14689685D02*
X98572190Y-14832542D01*
X98572190Y-14832542D02*
X98524571Y-14927780D01*
X98524571Y-14927780D02*
X98476952Y-14975400D01*
X98476952Y-14975400D02*
X98381714Y-15023019D01*
X98381714Y-15023019D02*
X98000762Y-15023019D01*
X98000762Y-15023019D02*
X98000762Y-14023019D01*
X98000762Y-14023019D02*
X98334095Y-14023019D01*
X98334095Y-14023019D02*
X98429333Y-14070638D01*
X98429333Y-14070638D02*
X98476952Y-14118257D01*
X98476952Y-14118257D02*
X98524571Y-14213495D01*
X98524571Y-14213495D02*
X98524571Y-14308733D01*
X98524571Y-14308733D02*
X98476952Y-14403971D01*
X98476952Y-14403971D02*
X98429333Y-14451590D01*
X98429333Y-14451590D02*
X98334095Y-14499209D01*
X98334095Y-14499209D02*
X98000762Y-14499209D01*
X8831905Y-100246019D02*
X8831905Y-99246019D01*
X8831905Y-99246019D02*
X9070000Y-99246019D01*
X9070000Y-99246019D02*
X9212857Y-99293638D01*
X9212857Y-99293638D02*
X9308095Y-99388876D01*
X9308095Y-99388876D02*
X9355714Y-99484114D01*
X9355714Y-99484114D02*
X9403333Y-99674590D01*
X9403333Y-99674590D02*
X9403333Y-99817447D01*
X9403333Y-99817447D02*
X9355714Y-100007923D01*
X9355714Y-100007923D02*
X9308095Y-100103161D01*
X9308095Y-100103161D02*
X9212857Y-100198400D01*
X9212857Y-100198400D02*
X9070000Y-100246019D01*
X9070000Y-100246019D02*
X8831905Y-100246019D01*
X9784286Y-99341257D02*
X9831905Y-99293638D01*
X9831905Y-99293638D02*
X9927143Y-99246019D01*
X9927143Y-99246019D02*
X10165238Y-99246019D01*
X10165238Y-99246019D02*
X10260476Y-99293638D01*
X10260476Y-99293638D02*
X10308095Y-99341257D01*
X10308095Y-99341257D02*
X10355714Y-99436495D01*
X10355714Y-99436495D02*
X10355714Y-99531733D01*
X10355714Y-99531733D02*
X10308095Y-99674590D01*
X10308095Y-99674590D02*
X9736667Y-100246019D01*
X9736667Y-100246019D02*
X10355714Y-100246019D01*
X85762666Y-71839519D02*
X85762666Y-72553804D01*
X85762666Y-72553804D02*
X85715047Y-72696661D01*
X85715047Y-72696661D02*
X85619809Y-72791900D01*
X85619809Y-72791900D02*
X85476952Y-72839519D01*
X85476952Y-72839519D02*
X85381714Y-72839519D01*
X86238857Y-72839519D02*
X86238857Y-71839519D01*
X86238857Y-71839519D02*
X86619809Y-71839519D01*
X86619809Y-71839519D02*
X86715047Y-71887138D01*
X86715047Y-71887138D02*
X86762666Y-71934757D01*
X86762666Y-71934757D02*
X86810285Y-72029995D01*
X86810285Y-72029995D02*
X86810285Y-72172852D01*
X86810285Y-72172852D02*
X86762666Y-72268090D01*
X86762666Y-72268090D02*
X86715047Y-72315709D01*
X86715047Y-72315709D02*
X86619809Y-72363328D01*
X86619809Y-72363328D02*
X86238857Y-72363328D01*
X87191238Y-71934757D02*
X87238857Y-71887138D01*
X87238857Y-71887138D02*
X87334095Y-71839519D01*
X87334095Y-71839519D02*
X87572190Y-71839519D01*
X87572190Y-71839519D02*
X87667428Y-71887138D01*
X87667428Y-71887138D02*
X87715047Y-71934757D01*
X87715047Y-71934757D02*
X87762666Y-72029995D01*
X87762666Y-72029995D02*
X87762666Y-72125233D01*
X87762666Y-72125233D02*
X87715047Y-72268090D01*
X87715047Y-72268090D02*
X87143619Y-72839519D01*
X87143619Y-72839519D02*
X87762666Y-72839519D01*
X85762666Y-31323019D02*
X85762666Y-32037304D01*
X85762666Y-32037304D02*
X85715047Y-32180161D01*
X85715047Y-32180161D02*
X85619809Y-32275400D01*
X85619809Y-32275400D02*
X85476952Y-32323019D01*
X85476952Y-32323019D02*
X85381714Y-32323019D01*
X86238857Y-32323019D02*
X86238857Y-31323019D01*
X86238857Y-31323019D02*
X86619809Y-31323019D01*
X86619809Y-31323019D02*
X86715047Y-31370638D01*
X86715047Y-31370638D02*
X86762666Y-31418257D01*
X86762666Y-31418257D02*
X86810285Y-31513495D01*
X86810285Y-31513495D02*
X86810285Y-31656352D01*
X86810285Y-31656352D02*
X86762666Y-31751590D01*
X86762666Y-31751590D02*
X86715047Y-31799209D01*
X86715047Y-31799209D02*
X86619809Y-31846828D01*
X86619809Y-31846828D02*
X86238857Y-31846828D01*
X87762666Y-32323019D02*
X87191238Y-32323019D01*
X87476952Y-32323019D02*
X87476952Y-31323019D01*
X87476952Y-31323019D02*
X87381714Y-31465876D01*
X87381714Y-31465876D02*
X87286476Y-31561114D01*
X87286476Y-31561114D02*
X87191238Y-31608733D01*
X109774533Y-26849519D02*
X109441200Y-26373328D01*
X109203105Y-26849519D02*
X109203105Y-25849519D01*
X109203105Y-25849519D02*
X109584057Y-25849519D01*
X109584057Y-25849519D02*
X109679295Y-25897138D01*
X109679295Y-25897138D02*
X109726914Y-25944757D01*
X109726914Y-25944757D02*
X109774533Y-26039995D01*
X109774533Y-26039995D02*
X109774533Y-26182852D01*
X109774533Y-26182852D02*
X109726914Y-26278090D01*
X109726914Y-26278090D02*
X109679295Y-26325709D01*
X109679295Y-26325709D02*
X109584057Y-26373328D01*
X109584057Y-26373328D02*
X109203105Y-26373328D01*
X110250724Y-26849519D02*
X110441200Y-26849519D01*
X110441200Y-26849519D02*
X110536438Y-26801900D01*
X110536438Y-26801900D02*
X110584057Y-26754280D01*
X110584057Y-26754280D02*
X110679295Y-26611423D01*
X110679295Y-26611423D02*
X110726914Y-26420947D01*
X110726914Y-26420947D02*
X110726914Y-26039995D01*
X110726914Y-26039995D02*
X110679295Y-25944757D01*
X110679295Y-25944757D02*
X110631676Y-25897138D01*
X110631676Y-25897138D02*
X110536438Y-25849519D01*
X110536438Y-25849519D02*
X110345962Y-25849519D01*
X110345962Y-25849519D02*
X110250724Y-25897138D01*
X110250724Y-25897138D02*
X110203105Y-25944757D01*
X110203105Y-25944757D02*
X110155486Y-26039995D01*
X110155486Y-26039995D02*
X110155486Y-26278090D01*
X110155486Y-26278090D02*
X110203105Y-26373328D01*
X110203105Y-26373328D02*
X110250724Y-26420947D01*
X110250724Y-26420947D02*
X110345962Y-26468566D01*
X110345962Y-26468566D02*
X110536438Y-26468566D01*
X110536438Y-26468566D02*
X110631676Y-26420947D01*
X110631676Y-26420947D02*
X110679295Y-26373328D01*
X110679295Y-26373328D02*
X110726914Y-26278090D01*
X20386928Y-74654280D02*
X20339309Y-74701900D01*
X20339309Y-74701900D02*
X20196452Y-74749519D01*
X20196452Y-74749519D02*
X20101214Y-74749519D01*
X20101214Y-74749519D02*
X19958357Y-74701900D01*
X19958357Y-74701900D02*
X19863119Y-74606661D01*
X19863119Y-74606661D02*
X19815500Y-74511423D01*
X19815500Y-74511423D02*
X19767881Y-74320947D01*
X19767881Y-74320947D02*
X19767881Y-74178090D01*
X19767881Y-74178090D02*
X19815500Y-73987614D01*
X19815500Y-73987614D02*
X19863119Y-73892376D01*
X19863119Y-73892376D02*
X19958357Y-73797138D01*
X19958357Y-73797138D02*
X20101214Y-73749519D01*
X20101214Y-73749519D02*
X20196452Y-73749519D01*
X20196452Y-73749519D02*
X20339309Y-73797138D01*
X20339309Y-73797138D02*
X20386928Y-73844757D01*
X20577405Y-74844757D02*
X21339309Y-74844757D01*
X21482167Y-73749519D02*
X22101214Y-73749519D01*
X22101214Y-73749519D02*
X21767881Y-74130471D01*
X21767881Y-74130471D02*
X21910738Y-74130471D01*
X21910738Y-74130471D02*
X22005976Y-74178090D01*
X22005976Y-74178090D02*
X22053595Y-74225709D01*
X22053595Y-74225709D02*
X22101214Y-74320947D01*
X22101214Y-74320947D02*
X22101214Y-74559042D01*
X22101214Y-74559042D02*
X22053595Y-74654280D01*
X22053595Y-74654280D02*
X22005976Y-74701900D01*
X22005976Y-74701900D02*
X21910738Y-74749519D01*
X21910738Y-74749519D02*
X21625024Y-74749519D01*
X21625024Y-74749519D02*
X21529786Y-74701900D01*
X21529786Y-74701900D02*
X21482167Y-74654280D01*
X22434548Y-73749519D02*
X23053595Y-73749519D01*
X23053595Y-73749519D02*
X22720262Y-74130471D01*
X22720262Y-74130471D02*
X22863119Y-74130471D01*
X22863119Y-74130471D02*
X22958357Y-74178090D01*
X22958357Y-74178090D02*
X23005976Y-74225709D01*
X23005976Y-74225709D02*
X23053595Y-74320947D01*
X23053595Y-74320947D02*
X23053595Y-74559042D01*
X23053595Y-74559042D02*
X23005976Y-74654280D01*
X23005976Y-74654280D02*
X22958357Y-74701900D01*
X22958357Y-74701900D02*
X22863119Y-74749519D01*
X22863119Y-74749519D02*
X22577405Y-74749519D01*
X22577405Y-74749519D02*
X22482167Y-74701900D01*
X22482167Y-74701900D02*
X22434548Y-74654280D01*
X23672643Y-73749519D02*
X23863119Y-73749519D01*
X23863119Y-73749519D02*
X23958357Y-73797138D01*
X23958357Y-73797138D02*
X24053595Y-73892376D01*
X24053595Y-73892376D02*
X24101214Y-74082852D01*
X24101214Y-74082852D02*
X24101214Y-74416185D01*
X24101214Y-74416185D02*
X24053595Y-74606661D01*
X24053595Y-74606661D02*
X23958357Y-74701900D01*
X23958357Y-74701900D02*
X23863119Y-74749519D01*
X23863119Y-74749519D02*
X23672643Y-74749519D01*
X23672643Y-74749519D02*
X23577405Y-74701900D01*
X23577405Y-74701900D02*
X23482167Y-74606661D01*
X23482167Y-74606661D02*
X23434548Y-74416185D01*
X23434548Y-74416185D02*
X23434548Y-74082852D01*
X23434548Y-74082852D02*
X23482167Y-73892376D01*
X23482167Y-73892376D02*
X23577405Y-73797138D01*
X23577405Y-73797138D02*
X23672643Y-73749519D01*
X24529786Y-73749519D02*
X24529786Y-74559042D01*
X24529786Y-74559042D02*
X24577405Y-74654280D01*
X24577405Y-74654280D02*
X24625024Y-74701900D01*
X24625024Y-74701900D02*
X24720262Y-74749519D01*
X24720262Y-74749519D02*
X24910738Y-74749519D01*
X24910738Y-74749519D02*
X25005976Y-74701900D01*
X25005976Y-74701900D02*
X25053595Y-74654280D01*
X25053595Y-74654280D02*
X25101214Y-74559042D01*
X25101214Y-74559042D02*
X25101214Y-73749519D01*
X25434548Y-73749519D02*
X26005976Y-73749519D01*
X25720262Y-74749519D02*
X25720262Y-73749519D01*
X26291691Y-73844757D02*
X26339310Y-73797138D01*
X26339310Y-73797138D02*
X26434548Y-73749519D01*
X26434548Y-73749519D02*
X26672643Y-73749519D01*
X26672643Y-73749519D02*
X26767881Y-73797138D01*
X26767881Y-73797138D02*
X26815500Y-73844757D01*
X26815500Y-73844757D02*
X26863119Y-73939995D01*
X26863119Y-73939995D02*
X26863119Y-74035233D01*
X26863119Y-74035233D02*
X26815500Y-74178090D01*
X26815500Y-74178090D02*
X26244072Y-74749519D01*
X26244072Y-74749519D02*
X26863119Y-74749519D01*
X108810262Y-6303019D02*
X108810262Y-7112542D01*
X108810262Y-7112542D02*
X108857881Y-7207780D01*
X108857881Y-7207780D02*
X108905500Y-7255400D01*
X108905500Y-7255400D02*
X109000738Y-7303019D01*
X109000738Y-7303019D02*
X109191214Y-7303019D01*
X109191214Y-7303019D02*
X109286452Y-7255400D01*
X109286452Y-7255400D02*
X109334071Y-7207780D01*
X109334071Y-7207780D02*
X109381690Y-7112542D01*
X109381690Y-7112542D02*
X109381690Y-6303019D01*
X109619786Y-7398257D02*
X110381690Y-7398257D01*
X110810262Y-6303019D02*
X111000738Y-6303019D01*
X111000738Y-6303019D02*
X111095976Y-6350638D01*
X111095976Y-6350638D02*
X111191214Y-6445876D01*
X111191214Y-6445876D02*
X111238833Y-6636352D01*
X111238833Y-6636352D02*
X111238833Y-6969685D01*
X111238833Y-6969685D02*
X111191214Y-7160161D01*
X111191214Y-7160161D02*
X111095976Y-7255400D01*
X111095976Y-7255400D02*
X111000738Y-7303019D01*
X111000738Y-7303019D02*
X110810262Y-7303019D01*
X110810262Y-7303019D02*
X110715024Y-7255400D01*
X110715024Y-7255400D02*
X110619786Y-7160161D01*
X110619786Y-7160161D02*
X110572167Y-6969685D01*
X110572167Y-6969685D02*
X110572167Y-6636352D01*
X110572167Y-6636352D02*
X110619786Y-6445876D01*
X110619786Y-6445876D02*
X110715024Y-6350638D01*
X110715024Y-6350638D02*
X110810262Y-6303019D01*
X111667405Y-7303019D02*
X111667405Y-6303019D01*
X111667405Y-6303019D02*
X112048357Y-6303019D01*
X112048357Y-6303019D02*
X112143595Y-6350638D01*
X112143595Y-6350638D02*
X112191214Y-6398257D01*
X112191214Y-6398257D02*
X112238833Y-6493495D01*
X112238833Y-6493495D02*
X112238833Y-6636352D01*
X112238833Y-6636352D02*
X112191214Y-6731590D01*
X112191214Y-6731590D02*
X112143595Y-6779209D01*
X112143595Y-6779209D02*
X112048357Y-6826828D01*
X112048357Y-6826828D02*
X111667405Y-6826828D01*
X112524548Y-6303019D02*
X113095976Y-6303019D01*
X112810262Y-7303019D02*
X112810262Y-6303019D01*
X113619786Y-6303019D02*
X113810262Y-6303019D01*
X113810262Y-6303019D02*
X113905500Y-6350638D01*
X113905500Y-6350638D02*
X114000738Y-6445876D01*
X114000738Y-6445876D02*
X114048357Y-6636352D01*
X114048357Y-6636352D02*
X114048357Y-6969685D01*
X114048357Y-6969685D02*
X114000738Y-7160161D01*
X114000738Y-7160161D02*
X113905500Y-7255400D01*
X113905500Y-7255400D02*
X113810262Y-7303019D01*
X113810262Y-7303019D02*
X113619786Y-7303019D01*
X113619786Y-7303019D02*
X113524548Y-7255400D01*
X113524548Y-7255400D02*
X113429310Y-7160161D01*
X113429310Y-7160161D02*
X113381691Y-6969685D01*
X113381691Y-6969685D02*
X113381691Y-6636352D01*
X113381691Y-6636352D02*
X113429310Y-6445876D01*
X113429310Y-6445876D02*
X113524548Y-6350638D01*
X113524548Y-6350638D02*
X113619786Y-6303019D01*
X20553595Y-56654280D02*
X20505976Y-56701900D01*
X20505976Y-56701900D02*
X20363119Y-56749519D01*
X20363119Y-56749519D02*
X20267881Y-56749519D01*
X20267881Y-56749519D02*
X20125024Y-56701900D01*
X20125024Y-56701900D02*
X20029786Y-56606661D01*
X20029786Y-56606661D02*
X19982167Y-56511423D01*
X19982167Y-56511423D02*
X19934548Y-56320947D01*
X19934548Y-56320947D02*
X19934548Y-56178090D01*
X19934548Y-56178090D02*
X19982167Y-55987614D01*
X19982167Y-55987614D02*
X20029786Y-55892376D01*
X20029786Y-55892376D02*
X20125024Y-55797138D01*
X20125024Y-55797138D02*
X20267881Y-55749519D01*
X20267881Y-55749519D02*
X20363119Y-55749519D01*
X20363119Y-55749519D02*
X20505976Y-55797138D01*
X20505976Y-55797138D02*
X20553595Y-55844757D01*
X20744072Y-56844757D02*
X21505976Y-56844757D01*
X22315500Y-56749519D02*
X21982167Y-56273328D01*
X21744072Y-56749519D02*
X21744072Y-55749519D01*
X21744072Y-55749519D02*
X22125024Y-55749519D01*
X22125024Y-55749519D02*
X22220262Y-55797138D01*
X22220262Y-55797138D02*
X22267881Y-55844757D01*
X22267881Y-55844757D02*
X22315500Y-55939995D01*
X22315500Y-55939995D02*
X22315500Y-56082852D01*
X22315500Y-56082852D02*
X22267881Y-56178090D01*
X22267881Y-56178090D02*
X22220262Y-56225709D01*
X22220262Y-56225709D02*
X22125024Y-56273328D01*
X22125024Y-56273328D02*
X21744072Y-56273328D01*
X22744072Y-56225709D02*
X23077405Y-56225709D01*
X23220262Y-56749519D02*
X22744072Y-56749519D01*
X22744072Y-56749519D02*
X22744072Y-55749519D01*
X22744072Y-55749519D02*
X23220262Y-55749519D01*
X24172643Y-55797138D02*
X24077405Y-55749519D01*
X24077405Y-55749519D02*
X23934548Y-55749519D01*
X23934548Y-55749519D02*
X23791691Y-55797138D01*
X23791691Y-55797138D02*
X23696453Y-55892376D01*
X23696453Y-55892376D02*
X23648834Y-55987614D01*
X23648834Y-55987614D02*
X23601215Y-56178090D01*
X23601215Y-56178090D02*
X23601215Y-56320947D01*
X23601215Y-56320947D02*
X23648834Y-56511423D01*
X23648834Y-56511423D02*
X23696453Y-56606661D01*
X23696453Y-56606661D02*
X23791691Y-56701900D01*
X23791691Y-56701900D02*
X23934548Y-56749519D01*
X23934548Y-56749519D02*
X24029786Y-56749519D01*
X24029786Y-56749519D02*
X24172643Y-56701900D01*
X24172643Y-56701900D02*
X24220262Y-56654280D01*
X24220262Y-56654280D02*
X24220262Y-56320947D01*
X24220262Y-56320947D02*
X24029786Y-56320947D01*
X24648834Y-56749519D02*
X24648834Y-55749519D01*
X25125024Y-56749519D02*
X25125024Y-55749519D01*
X25125024Y-55749519D02*
X25696452Y-56749519D01*
X25696452Y-56749519D02*
X25696452Y-55749519D01*
X26125024Y-55844757D02*
X26172643Y-55797138D01*
X26172643Y-55797138D02*
X26267881Y-55749519D01*
X26267881Y-55749519D02*
X26505976Y-55749519D01*
X26505976Y-55749519D02*
X26601214Y-55797138D01*
X26601214Y-55797138D02*
X26648833Y-55844757D01*
X26648833Y-55844757D02*
X26696452Y-55939995D01*
X26696452Y-55939995D02*
X26696452Y-56035233D01*
X26696452Y-56035233D02*
X26648833Y-56178090D01*
X26648833Y-56178090D02*
X26077405Y-56749519D01*
X26077405Y-56749519D02*
X26696452Y-56749519D01*
X119667405Y-13553019D02*
X119667405Y-12553019D01*
X119667405Y-12553019D02*
X119905500Y-12553019D01*
X119905500Y-12553019D02*
X120048357Y-12600638D01*
X120048357Y-12600638D02*
X120143595Y-12695876D01*
X120143595Y-12695876D02*
X120191214Y-12791114D01*
X120191214Y-12791114D02*
X120238833Y-12981590D01*
X120238833Y-12981590D02*
X120238833Y-13124447D01*
X120238833Y-13124447D02*
X120191214Y-13314923D01*
X120191214Y-13314923D02*
X120143595Y-13410161D01*
X120143595Y-13410161D02*
X120048357Y-13505400D01*
X120048357Y-13505400D02*
X119905500Y-13553019D01*
X119905500Y-13553019D02*
X119667405Y-13553019D01*
X120572167Y-12553019D02*
X121191214Y-12553019D01*
X121191214Y-12553019D02*
X120857881Y-12933971D01*
X120857881Y-12933971D02*
X121000738Y-12933971D01*
X121000738Y-12933971D02*
X121095976Y-12981590D01*
X121095976Y-12981590D02*
X121143595Y-13029209D01*
X121143595Y-13029209D02*
X121191214Y-13124447D01*
X121191214Y-13124447D02*
X121191214Y-13362542D01*
X121191214Y-13362542D02*
X121143595Y-13457780D01*
X121143595Y-13457780D02*
X121095976Y-13505400D01*
X121095976Y-13505400D02*
X121000738Y-13553019D01*
X121000738Y-13553019D02*
X120715024Y-13553019D01*
X120715024Y-13553019D02*
X120619786Y-13505400D01*
X120619786Y-13505400D02*
X120572167Y-13457780D01*
X9696452Y-65099519D02*
X9696452Y-65909042D01*
X9696452Y-65909042D02*
X9744071Y-66004280D01*
X9744071Y-66004280D02*
X9791690Y-66051900D01*
X9791690Y-66051900D02*
X9886928Y-66099519D01*
X9886928Y-66099519D02*
X10077404Y-66099519D01*
X10077404Y-66099519D02*
X10172642Y-66051900D01*
X10172642Y-66051900D02*
X10220261Y-66004280D01*
X10220261Y-66004280D02*
X10267880Y-65909042D01*
X10267880Y-65909042D02*
X10267880Y-65099519D01*
X10505976Y-66194757D02*
X11267880Y-66194757D01*
X11410738Y-65099519D02*
X12029785Y-65099519D01*
X12029785Y-65099519D02*
X11696452Y-65480471D01*
X11696452Y-65480471D02*
X11839309Y-65480471D01*
X11839309Y-65480471D02*
X11934547Y-65528090D01*
X11934547Y-65528090D02*
X11982166Y-65575709D01*
X11982166Y-65575709D02*
X12029785Y-65670947D01*
X12029785Y-65670947D02*
X12029785Y-65909042D01*
X12029785Y-65909042D02*
X11982166Y-66004280D01*
X11982166Y-66004280D02*
X11934547Y-66051900D01*
X11934547Y-66051900D02*
X11839309Y-66099519D01*
X11839309Y-66099519D02*
X11553595Y-66099519D01*
X11553595Y-66099519D02*
X11458357Y-66051900D01*
X11458357Y-66051900D02*
X11410738Y-66004280D01*
X12363119Y-65099519D02*
X12982166Y-65099519D01*
X12982166Y-65099519D02*
X12648833Y-65480471D01*
X12648833Y-65480471D02*
X12791690Y-65480471D01*
X12791690Y-65480471D02*
X12886928Y-65528090D01*
X12886928Y-65528090D02*
X12934547Y-65575709D01*
X12934547Y-65575709D02*
X12982166Y-65670947D01*
X12982166Y-65670947D02*
X12982166Y-65909042D01*
X12982166Y-65909042D02*
X12934547Y-66004280D01*
X12934547Y-66004280D02*
X12886928Y-66051900D01*
X12886928Y-66051900D02*
X12791690Y-66099519D01*
X12791690Y-66099519D02*
X12505976Y-66099519D01*
X12505976Y-66099519D02*
X12410738Y-66051900D01*
X12410738Y-66051900D02*
X12363119Y-66004280D01*
X84286476Y-6303019D02*
X84286476Y-7112542D01*
X84286476Y-7112542D02*
X84334095Y-7207780D01*
X84334095Y-7207780D02*
X84381714Y-7255400D01*
X84381714Y-7255400D02*
X84476952Y-7303019D01*
X84476952Y-7303019D02*
X84667428Y-7303019D01*
X84667428Y-7303019D02*
X84762666Y-7255400D01*
X84762666Y-7255400D02*
X84810285Y-7207780D01*
X84810285Y-7207780D02*
X84857904Y-7112542D01*
X84857904Y-7112542D02*
X84857904Y-6303019D01*
X85096000Y-7398257D02*
X85857904Y-7398257D01*
X86572190Y-7303019D02*
X86096000Y-7303019D01*
X86096000Y-7303019D02*
X86096000Y-6303019D01*
X86905524Y-7303019D02*
X86905524Y-6303019D01*
X87381714Y-7303019D02*
X87381714Y-6303019D01*
X87381714Y-6303019D02*
X87953142Y-7303019D01*
X87953142Y-7303019D02*
X87953142Y-6303019D01*
X88953142Y-7303019D02*
X88381714Y-7303019D01*
X88667428Y-7303019D02*
X88667428Y-6303019D01*
X88667428Y-6303019D02*
X88572190Y-6445876D01*
X88572190Y-6445876D02*
X88476952Y-6541114D01*
X88476952Y-6541114D02*
X88381714Y-6588733D01*
X94857905Y-26703019D02*
X94857905Y-25703019D01*
X94857905Y-25703019D02*
X95096000Y-25703019D01*
X95096000Y-25703019D02*
X95238857Y-25750638D01*
X95238857Y-25750638D02*
X95334095Y-25845876D01*
X95334095Y-25845876D02*
X95381714Y-25941114D01*
X95381714Y-25941114D02*
X95429333Y-26131590D01*
X95429333Y-26131590D02*
X95429333Y-26274447D01*
X95429333Y-26274447D02*
X95381714Y-26464923D01*
X95381714Y-26464923D02*
X95334095Y-26560161D01*
X95334095Y-26560161D02*
X95238857Y-26655400D01*
X95238857Y-26655400D02*
X95096000Y-26703019D01*
X95096000Y-26703019D02*
X94857905Y-26703019D01*
X96286476Y-26036352D02*
X96286476Y-26703019D01*
X96048381Y-25655400D02*
X95810286Y-26369685D01*
X95810286Y-26369685D02*
X96429333Y-26369685D01*
X95429333Y-96086019D02*
X95096000Y-95609828D01*
X94857905Y-96086019D02*
X94857905Y-95086019D01*
X94857905Y-95086019D02*
X95238857Y-95086019D01*
X95238857Y-95086019D02*
X95334095Y-95133638D01*
X95334095Y-95133638D02*
X95381714Y-95181257D01*
X95381714Y-95181257D02*
X95429333Y-95276495D01*
X95429333Y-95276495D02*
X95429333Y-95419352D01*
X95429333Y-95419352D02*
X95381714Y-95514590D01*
X95381714Y-95514590D02*
X95334095Y-95562209D01*
X95334095Y-95562209D02*
X95238857Y-95609828D01*
X95238857Y-95609828D02*
X94857905Y-95609828D01*
X96000762Y-95514590D02*
X95905524Y-95466971D01*
X95905524Y-95466971D02*
X95857905Y-95419352D01*
X95857905Y-95419352D02*
X95810286Y-95324114D01*
X95810286Y-95324114D02*
X95810286Y-95276495D01*
X95810286Y-95276495D02*
X95857905Y-95181257D01*
X95857905Y-95181257D02*
X95905524Y-95133638D01*
X95905524Y-95133638D02*
X96000762Y-95086019D01*
X96000762Y-95086019D02*
X96191238Y-95086019D01*
X96191238Y-95086019D02*
X96286476Y-95133638D01*
X96286476Y-95133638D02*
X96334095Y-95181257D01*
X96334095Y-95181257D02*
X96381714Y-95276495D01*
X96381714Y-95276495D02*
X96381714Y-95324114D01*
X96381714Y-95324114D02*
X96334095Y-95419352D01*
X96334095Y-95419352D02*
X96286476Y-95466971D01*
X96286476Y-95466971D02*
X96191238Y-95514590D01*
X96191238Y-95514590D02*
X96000762Y-95514590D01*
X96000762Y-95514590D02*
X95905524Y-95562209D01*
X95905524Y-95562209D02*
X95857905Y-95609828D01*
X95857905Y-95609828D02*
X95810286Y-95705066D01*
X95810286Y-95705066D02*
X95810286Y-95895542D01*
X95810286Y-95895542D02*
X95857905Y-95990780D01*
X95857905Y-95990780D02*
X95905524Y-96038400D01*
X95905524Y-96038400D02*
X96000762Y-96086019D01*
X96000762Y-96086019D02*
X96191238Y-96086019D01*
X96191238Y-96086019D02*
X96286476Y-96038400D01*
X96286476Y-96038400D02*
X96334095Y-95990780D01*
X96334095Y-95990780D02*
X96381714Y-95895542D01*
X96381714Y-95895542D02*
X96381714Y-95705066D01*
X96381714Y-95705066D02*
X96334095Y-95609828D01*
X96334095Y-95609828D02*
X96286476Y-95562209D01*
X96286476Y-95562209D02*
X96191238Y-95514590D01*
X120238833Y-8403019D02*
X119905500Y-7926828D01*
X119667405Y-8403019D02*
X119667405Y-7403019D01*
X119667405Y-7403019D02*
X120048357Y-7403019D01*
X120048357Y-7403019D02*
X120143595Y-7450638D01*
X120143595Y-7450638D02*
X120191214Y-7498257D01*
X120191214Y-7498257D02*
X120238833Y-7593495D01*
X120238833Y-7593495D02*
X120238833Y-7736352D01*
X120238833Y-7736352D02*
X120191214Y-7831590D01*
X120191214Y-7831590D02*
X120143595Y-7879209D01*
X120143595Y-7879209D02*
X120048357Y-7926828D01*
X120048357Y-7926828D02*
X119667405Y-7926828D01*
X121191214Y-8403019D02*
X120619786Y-8403019D01*
X120905500Y-8403019D02*
X120905500Y-7403019D01*
X120905500Y-7403019D02*
X120810262Y-7545876D01*
X120810262Y-7545876D02*
X120715024Y-7641114D01*
X120715024Y-7641114D02*
X120619786Y-7688733D01*
X118298342Y-32724280D02*
X118250723Y-32771900D01*
X118250723Y-32771900D02*
X118107866Y-32819519D01*
X118107866Y-32819519D02*
X118012628Y-32819519D01*
X118012628Y-32819519D02*
X117869771Y-32771900D01*
X117869771Y-32771900D02*
X117774533Y-32676661D01*
X117774533Y-32676661D02*
X117726914Y-32581423D01*
X117726914Y-32581423D02*
X117679295Y-32390947D01*
X117679295Y-32390947D02*
X117679295Y-32248090D01*
X117679295Y-32248090D02*
X117726914Y-32057614D01*
X117726914Y-32057614D02*
X117774533Y-31962376D01*
X117774533Y-31962376D02*
X117869771Y-31867138D01*
X117869771Y-31867138D02*
X118012628Y-31819519D01*
X118012628Y-31819519D02*
X118107866Y-31819519D01*
X118107866Y-31819519D02*
X118250723Y-31867138D01*
X118250723Y-31867138D02*
X118298342Y-31914757D01*
X119250723Y-32819519D02*
X118679295Y-32819519D01*
X118965009Y-32819519D02*
X118965009Y-31819519D01*
X118965009Y-31819519D02*
X118869771Y-31962376D01*
X118869771Y-31962376D02*
X118774533Y-32057614D01*
X118774533Y-32057614D02*
X118679295Y-32105233D01*
X120107866Y-31819519D02*
X119917390Y-31819519D01*
X119917390Y-31819519D02*
X119822152Y-31867138D01*
X119822152Y-31867138D02*
X119774533Y-31914757D01*
X119774533Y-31914757D02*
X119679295Y-32057614D01*
X119679295Y-32057614D02*
X119631676Y-32248090D01*
X119631676Y-32248090D02*
X119631676Y-32629042D01*
X119631676Y-32629042D02*
X119679295Y-32724280D01*
X119679295Y-32724280D02*
X119726914Y-32771900D01*
X119726914Y-32771900D02*
X119822152Y-32819519D01*
X119822152Y-32819519D02*
X120012628Y-32819519D01*
X120012628Y-32819519D02*
X120107866Y-32771900D01*
X120107866Y-32771900D02*
X120155485Y-32724280D01*
X120155485Y-32724280D02*
X120203104Y-32629042D01*
X120203104Y-32629042D02*
X120203104Y-32390947D01*
X120203104Y-32390947D02*
X120155485Y-32295709D01*
X120155485Y-32295709D02*
X120107866Y-32248090D01*
X120107866Y-32248090D02*
X120012628Y-32200471D01*
X120012628Y-32200471D02*
X119822152Y-32200471D01*
X119822152Y-32200471D02*
X119726914Y-32248090D01*
X119726914Y-32248090D02*
X119679295Y-32295709D01*
X119679295Y-32295709D02*
X119631676Y-32390947D01*
X8386928Y-74824280D02*
X8339309Y-74871900D01*
X8339309Y-74871900D02*
X8196452Y-74919519D01*
X8196452Y-74919519D02*
X8101214Y-74919519D01*
X8101214Y-74919519D02*
X7958357Y-74871900D01*
X7958357Y-74871900D02*
X7863119Y-74776661D01*
X7863119Y-74776661D02*
X7815500Y-74681423D01*
X7815500Y-74681423D02*
X7767881Y-74490947D01*
X7767881Y-74490947D02*
X7767881Y-74348090D01*
X7767881Y-74348090D02*
X7815500Y-74157614D01*
X7815500Y-74157614D02*
X7863119Y-74062376D01*
X7863119Y-74062376D02*
X7958357Y-73967138D01*
X7958357Y-73967138D02*
X8101214Y-73919519D01*
X8101214Y-73919519D02*
X8196452Y-73919519D01*
X8196452Y-73919519D02*
X8339309Y-73967138D01*
X8339309Y-73967138D02*
X8386928Y-74014757D01*
X8577405Y-75014757D02*
X9339309Y-75014757D01*
X9482167Y-73919519D02*
X10101214Y-73919519D01*
X10101214Y-73919519D02*
X9767881Y-74300471D01*
X9767881Y-74300471D02*
X9910738Y-74300471D01*
X9910738Y-74300471D02*
X10005976Y-74348090D01*
X10005976Y-74348090D02*
X10053595Y-74395709D01*
X10053595Y-74395709D02*
X10101214Y-74490947D01*
X10101214Y-74490947D02*
X10101214Y-74729042D01*
X10101214Y-74729042D02*
X10053595Y-74824280D01*
X10053595Y-74824280D02*
X10005976Y-74871900D01*
X10005976Y-74871900D02*
X9910738Y-74919519D01*
X9910738Y-74919519D02*
X9625024Y-74919519D01*
X9625024Y-74919519D02*
X9529786Y-74871900D01*
X9529786Y-74871900D02*
X9482167Y-74824280D01*
X10434548Y-73919519D02*
X11053595Y-73919519D01*
X11053595Y-73919519D02*
X10720262Y-74300471D01*
X10720262Y-74300471D02*
X10863119Y-74300471D01*
X10863119Y-74300471D02*
X10958357Y-74348090D01*
X10958357Y-74348090D02*
X11005976Y-74395709D01*
X11005976Y-74395709D02*
X11053595Y-74490947D01*
X11053595Y-74490947D02*
X11053595Y-74729042D01*
X11053595Y-74729042D02*
X11005976Y-74824280D01*
X11005976Y-74824280D02*
X10958357Y-74871900D01*
X10958357Y-74871900D02*
X10863119Y-74919519D01*
X10863119Y-74919519D02*
X10577405Y-74919519D01*
X10577405Y-74919519D02*
X10482167Y-74871900D01*
X10482167Y-74871900D02*
X10434548Y-74824280D01*
X11672643Y-73919519D02*
X11863119Y-73919519D01*
X11863119Y-73919519D02*
X11958357Y-73967138D01*
X11958357Y-73967138D02*
X12053595Y-74062376D01*
X12053595Y-74062376D02*
X12101214Y-74252852D01*
X12101214Y-74252852D02*
X12101214Y-74586185D01*
X12101214Y-74586185D02*
X12053595Y-74776661D01*
X12053595Y-74776661D02*
X11958357Y-74871900D01*
X11958357Y-74871900D02*
X11863119Y-74919519D01*
X11863119Y-74919519D02*
X11672643Y-74919519D01*
X11672643Y-74919519D02*
X11577405Y-74871900D01*
X11577405Y-74871900D02*
X11482167Y-74776661D01*
X11482167Y-74776661D02*
X11434548Y-74586185D01*
X11434548Y-74586185D02*
X11434548Y-74252852D01*
X11434548Y-74252852D02*
X11482167Y-74062376D01*
X11482167Y-74062376D02*
X11577405Y-73967138D01*
X11577405Y-73967138D02*
X11672643Y-73919519D01*
X12529786Y-73919519D02*
X12529786Y-74729042D01*
X12529786Y-74729042D02*
X12577405Y-74824280D01*
X12577405Y-74824280D02*
X12625024Y-74871900D01*
X12625024Y-74871900D02*
X12720262Y-74919519D01*
X12720262Y-74919519D02*
X12910738Y-74919519D01*
X12910738Y-74919519D02*
X13005976Y-74871900D01*
X13005976Y-74871900D02*
X13053595Y-74824280D01*
X13053595Y-74824280D02*
X13101214Y-74729042D01*
X13101214Y-74729042D02*
X13101214Y-73919519D01*
X13434548Y-73919519D02*
X14005976Y-73919519D01*
X13720262Y-74919519D02*
X13720262Y-73919519D01*
X14863119Y-74919519D02*
X14291691Y-74919519D01*
X14577405Y-74919519D02*
X14577405Y-73919519D01*
X14577405Y-73919519D02*
X14482167Y-74062376D01*
X14482167Y-74062376D02*
X14386929Y-74157614D01*
X14386929Y-74157614D02*
X14291691Y-74205233D01*
X21863118Y-36949519D02*
X21529785Y-36473328D01*
X21291690Y-36949519D02*
X21291690Y-35949519D01*
X21291690Y-35949519D02*
X21672642Y-35949519D01*
X21672642Y-35949519D02*
X21767880Y-35997138D01*
X21767880Y-35997138D02*
X21815499Y-36044757D01*
X21815499Y-36044757D02*
X21863118Y-36139995D01*
X21863118Y-36139995D02*
X21863118Y-36282852D01*
X21863118Y-36282852D02*
X21815499Y-36378090D01*
X21815499Y-36378090D02*
X21767880Y-36425709D01*
X21767880Y-36425709D02*
X21672642Y-36473328D01*
X21672642Y-36473328D02*
X21291690Y-36473328D01*
X22053595Y-37044757D02*
X22815499Y-37044757D01*
X23625023Y-36949519D02*
X23291690Y-36473328D01*
X23053595Y-36949519D02*
X23053595Y-35949519D01*
X23053595Y-35949519D02*
X23434547Y-35949519D01*
X23434547Y-35949519D02*
X23529785Y-35997138D01*
X23529785Y-35997138D02*
X23577404Y-36044757D01*
X23577404Y-36044757D02*
X23625023Y-36139995D01*
X23625023Y-36139995D02*
X23625023Y-36282852D01*
X23625023Y-36282852D02*
X23577404Y-36378090D01*
X23577404Y-36378090D02*
X23529785Y-36425709D01*
X23529785Y-36425709D02*
X23434547Y-36473328D01*
X23434547Y-36473328D02*
X23053595Y-36473328D01*
X24053595Y-36425709D02*
X24386928Y-36425709D01*
X24529785Y-36949519D02*
X24053595Y-36949519D01*
X24053595Y-36949519D02*
X24053595Y-35949519D01*
X24053595Y-35949519D02*
X24529785Y-35949519D01*
X24815500Y-35949519D02*
X25148833Y-36949519D01*
X25148833Y-36949519D02*
X25482166Y-35949519D01*
X85762666Y-100356019D02*
X85762666Y-101070304D01*
X85762666Y-101070304D02*
X85715047Y-101213161D01*
X85715047Y-101213161D02*
X85619809Y-101308400D01*
X85619809Y-101308400D02*
X85476952Y-101356019D01*
X85476952Y-101356019D02*
X85381714Y-101356019D01*
X86238857Y-101356019D02*
X86238857Y-100356019D01*
X86238857Y-100356019D02*
X86619809Y-100356019D01*
X86619809Y-100356019D02*
X86715047Y-100403638D01*
X86715047Y-100403638D02*
X86762666Y-100451257D01*
X86762666Y-100451257D02*
X86810285Y-100546495D01*
X86810285Y-100546495D02*
X86810285Y-100689352D01*
X86810285Y-100689352D02*
X86762666Y-100784590D01*
X86762666Y-100784590D02*
X86715047Y-100832209D01*
X86715047Y-100832209D02*
X86619809Y-100879828D01*
X86619809Y-100879828D02*
X86238857Y-100879828D01*
X87143619Y-100356019D02*
X87762666Y-100356019D01*
X87762666Y-100356019D02*
X87429333Y-100736971D01*
X87429333Y-100736971D02*
X87572190Y-100736971D01*
X87572190Y-100736971D02*
X87667428Y-100784590D01*
X87667428Y-100784590D02*
X87715047Y-100832209D01*
X87715047Y-100832209D02*
X87762666Y-100927447D01*
X87762666Y-100927447D02*
X87762666Y-101165542D01*
X87762666Y-101165542D02*
X87715047Y-101260780D01*
X87715047Y-101260780D02*
X87667428Y-101308400D01*
X87667428Y-101308400D02*
X87572190Y-101356019D01*
X87572190Y-101356019D02*
X87286476Y-101356019D01*
X87286476Y-101356019D02*
X87191238Y-101308400D01*
X87191238Y-101308400D02*
X87143619Y-101260780D01*
X23736452Y-39499519D02*
X23736452Y-40309042D01*
X23736452Y-40309042D02*
X23784071Y-40404280D01*
X23784071Y-40404280D02*
X23831690Y-40451900D01*
X23831690Y-40451900D02*
X23926928Y-40499519D01*
X23926928Y-40499519D02*
X24117404Y-40499519D01*
X24117404Y-40499519D02*
X24212642Y-40451900D01*
X24212642Y-40451900D02*
X24260261Y-40404280D01*
X24260261Y-40404280D02*
X24307880Y-40309042D01*
X24307880Y-40309042D02*
X24307880Y-39499519D01*
X24545976Y-40594757D02*
X25307880Y-40594757D01*
X26117404Y-40499519D02*
X25784071Y-40023328D01*
X25545976Y-40499519D02*
X25545976Y-39499519D01*
X25545976Y-39499519D02*
X25926928Y-39499519D01*
X25926928Y-39499519D02*
X26022166Y-39547138D01*
X26022166Y-39547138D02*
X26069785Y-39594757D01*
X26069785Y-39594757D02*
X26117404Y-39689995D01*
X26117404Y-39689995D02*
X26117404Y-39832852D01*
X26117404Y-39832852D02*
X26069785Y-39928090D01*
X26069785Y-39928090D02*
X26022166Y-39975709D01*
X26022166Y-39975709D02*
X25926928Y-40023328D01*
X25926928Y-40023328D02*
X25545976Y-40023328D01*
X26545976Y-39975709D02*
X26879309Y-39975709D01*
X27022166Y-40499519D02*
X26545976Y-40499519D01*
X26545976Y-40499519D02*
X26545976Y-39499519D01*
X26545976Y-39499519D02*
X27022166Y-39499519D01*
X27974547Y-39547138D02*
X27879309Y-39499519D01*
X27879309Y-39499519D02*
X27736452Y-39499519D01*
X27736452Y-39499519D02*
X27593595Y-39547138D01*
X27593595Y-39547138D02*
X27498357Y-39642376D01*
X27498357Y-39642376D02*
X27450738Y-39737614D01*
X27450738Y-39737614D02*
X27403119Y-39928090D01*
X27403119Y-39928090D02*
X27403119Y-40070947D01*
X27403119Y-40070947D02*
X27450738Y-40261423D01*
X27450738Y-40261423D02*
X27498357Y-40356661D01*
X27498357Y-40356661D02*
X27593595Y-40451900D01*
X27593595Y-40451900D02*
X27736452Y-40499519D01*
X27736452Y-40499519D02*
X27831690Y-40499519D01*
X27831690Y-40499519D02*
X27974547Y-40451900D01*
X27974547Y-40451900D02*
X28022166Y-40404280D01*
X28022166Y-40404280D02*
X28022166Y-40070947D01*
X28022166Y-40070947D02*
X27831690Y-40070947D01*
X12014761Y-86741257D02*
X11919523Y-86693638D01*
X11919523Y-86693638D02*
X11824285Y-86598400D01*
X11824285Y-86598400D02*
X11681428Y-86455542D01*
X11681428Y-86455542D02*
X11586190Y-86407923D01*
X11586190Y-86407923D02*
X11490952Y-86407923D01*
X11538571Y-86646019D02*
X11443333Y-86598400D01*
X11443333Y-86598400D02*
X11348095Y-86503161D01*
X11348095Y-86503161D02*
X11300476Y-86312685D01*
X11300476Y-86312685D02*
X11300476Y-85979352D01*
X11300476Y-85979352D02*
X11348095Y-85788876D01*
X11348095Y-85788876D02*
X11443333Y-85693638D01*
X11443333Y-85693638D02*
X11538571Y-85646019D01*
X11538571Y-85646019D02*
X11729047Y-85646019D01*
X11729047Y-85646019D02*
X11824285Y-85693638D01*
X11824285Y-85693638D02*
X11919523Y-85788876D01*
X11919523Y-85788876D02*
X11967142Y-85979352D01*
X11967142Y-85979352D02*
X11967142Y-86312685D01*
X11967142Y-86312685D02*
X11919523Y-86503161D01*
X11919523Y-86503161D02*
X11824285Y-86598400D01*
X11824285Y-86598400D02*
X11729047Y-86646019D01*
X11729047Y-86646019D02*
X11538571Y-86646019D01*
X12919523Y-86646019D02*
X12348095Y-86646019D01*
X12633809Y-86646019D02*
X12633809Y-85646019D01*
X12633809Y-85646019D02*
X12538571Y-85788876D01*
X12538571Y-85788876D02*
X12443333Y-85884114D01*
X12443333Y-85884114D02*
X12348095Y-85931733D01*
X93238856Y-55444280D02*
X93191237Y-55491900D01*
X93191237Y-55491900D02*
X93048380Y-55539519D01*
X93048380Y-55539519D02*
X92953142Y-55539519D01*
X92953142Y-55539519D02*
X92810285Y-55491900D01*
X92810285Y-55491900D02*
X92715047Y-55396661D01*
X92715047Y-55396661D02*
X92667428Y-55301423D01*
X92667428Y-55301423D02*
X92619809Y-55110947D01*
X92619809Y-55110947D02*
X92619809Y-54968090D01*
X92619809Y-54968090D02*
X92667428Y-54777614D01*
X92667428Y-54777614D02*
X92715047Y-54682376D01*
X92715047Y-54682376D02*
X92810285Y-54587138D01*
X92810285Y-54587138D02*
X92953142Y-54539519D01*
X92953142Y-54539519D02*
X93048380Y-54539519D01*
X93048380Y-54539519D02*
X93191237Y-54587138D01*
X93191237Y-54587138D02*
X93238856Y-54634757D01*
X93429333Y-55634757D02*
X94191237Y-55634757D01*
X94762666Y-55015709D02*
X94905523Y-55063328D01*
X94905523Y-55063328D02*
X94953142Y-55110947D01*
X94953142Y-55110947D02*
X95000761Y-55206185D01*
X95000761Y-55206185D02*
X95000761Y-55349042D01*
X95000761Y-55349042D02*
X94953142Y-55444280D01*
X94953142Y-55444280D02*
X94905523Y-55491900D01*
X94905523Y-55491900D02*
X94810285Y-55539519D01*
X94810285Y-55539519D02*
X94429333Y-55539519D01*
X94429333Y-55539519D02*
X94429333Y-54539519D01*
X94429333Y-54539519D02*
X94762666Y-54539519D01*
X94762666Y-54539519D02*
X94857904Y-54587138D01*
X94857904Y-54587138D02*
X94905523Y-54634757D01*
X94905523Y-54634757D02*
X94953142Y-54729995D01*
X94953142Y-54729995D02*
X94953142Y-54825233D01*
X94953142Y-54825233D02*
X94905523Y-54920471D01*
X94905523Y-54920471D02*
X94857904Y-54968090D01*
X94857904Y-54968090D02*
X94762666Y-55015709D01*
X94762666Y-55015709D02*
X94429333Y-55015709D01*
X95381714Y-55253804D02*
X95857904Y-55253804D01*
X95286476Y-55539519D02*
X95619809Y-54539519D01*
X95619809Y-54539519D02*
X95953142Y-55539519D01*
X96143619Y-54539519D02*
X96715047Y-54539519D01*
X96429333Y-55539519D02*
X96429333Y-54539519D01*
X97000762Y-54634757D02*
X97048381Y-54587138D01*
X97048381Y-54587138D02*
X97143619Y-54539519D01*
X97143619Y-54539519D02*
X97381714Y-54539519D01*
X97381714Y-54539519D02*
X97476952Y-54587138D01*
X97476952Y-54587138D02*
X97524571Y-54634757D01*
X97524571Y-54634757D02*
X97572190Y-54729995D01*
X97572190Y-54729995D02*
X97572190Y-54825233D01*
X97572190Y-54825233D02*
X97524571Y-54968090D01*
X97524571Y-54968090D02*
X96953143Y-55539519D01*
X96953143Y-55539519D02*
X97572190Y-55539519D01*
X98334095Y-55015709D02*
X98476952Y-55063328D01*
X98476952Y-55063328D02*
X98524571Y-55110947D01*
X98524571Y-55110947D02*
X98572190Y-55206185D01*
X98572190Y-55206185D02*
X98572190Y-55349042D01*
X98572190Y-55349042D02*
X98524571Y-55444280D01*
X98524571Y-55444280D02*
X98476952Y-55491900D01*
X98476952Y-55491900D02*
X98381714Y-55539519D01*
X98381714Y-55539519D02*
X98000762Y-55539519D01*
X98000762Y-55539519D02*
X98000762Y-54539519D01*
X98000762Y-54539519D02*
X98334095Y-54539519D01*
X98334095Y-54539519D02*
X98429333Y-54587138D01*
X98429333Y-54587138D02*
X98476952Y-54634757D01*
X98476952Y-54634757D02*
X98524571Y-54729995D01*
X98524571Y-54729995D02*
X98524571Y-54825233D01*
X98524571Y-54825233D02*
X98476952Y-54920471D01*
X98476952Y-54920471D02*
X98429333Y-54968090D01*
X98429333Y-54968090D02*
X98334095Y-55015709D01*
X98334095Y-55015709D02*
X98000762Y-55015709D01*
X108345962Y-32099519D02*
X108345962Y-31099519D01*
X108345962Y-31099519D02*
X108584057Y-31099519D01*
X108584057Y-31099519D02*
X108726914Y-31147138D01*
X108726914Y-31147138D02*
X108822152Y-31242376D01*
X108822152Y-31242376D02*
X108869771Y-31337614D01*
X108869771Y-31337614D02*
X108917390Y-31528090D01*
X108917390Y-31528090D02*
X108917390Y-31670947D01*
X108917390Y-31670947D02*
X108869771Y-31861423D01*
X108869771Y-31861423D02*
X108822152Y-31956661D01*
X108822152Y-31956661D02*
X108726914Y-32051900D01*
X108726914Y-32051900D02*
X108584057Y-32099519D01*
X108584057Y-32099519D02*
X108345962Y-32099519D01*
X109107867Y-32194757D02*
X109869771Y-32194757D01*
X110012629Y-31099519D02*
X110679295Y-31099519D01*
X110679295Y-31099519D02*
X110012629Y-32099519D01*
X110012629Y-32099519D02*
X110679295Y-32099519D01*
X111584057Y-32099519D02*
X111012629Y-32099519D01*
X111298343Y-32099519D02*
X111298343Y-31099519D01*
X111298343Y-31099519D02*
X111203105Y-31242376D01*
X111203105Y-31242376D02*
X111107867Y-31337614D01*
X111107867Y-31337614D02*
X111012629Y-31385233D01*
X21474761Y-88441257D02*
X21379523Y-88393638D01*
X21379523Y-88393638D02*
X21284285Y-88298400D01*
X21284285Y-88298400D02*
X21141428Y-88155542D01*
X21141428Y-88155542D02*
X21046190Y-88107923D01*
X21046190Y-88107923D02*
X20950952Y-88107923D01*
X20998571Y-88346019D02*
X20903333Y-88298400D01*
X20903333Y-88298400D02*
X20808095Y-88203161D01*
X20808095Y-88203161D02*
X20760476Y-88012685D01*
X20760476Y-88012685D02*
X20760476Y-87679352D01*
X20760476Y-87679352D02*
X20808095Y-87488876D01*
X20808095Y-87488876D02*
X20903333Y-87393638D01*
X20903333Y-87393638D02*
X20998571Y-87346019D01*
X20998571Y-87346019D02*
X21189047Y-87346019D01*
X21189047Y-87346019D02*
X21284285Y-87393638D01*
X21284285Y-87393638D02*
X21379523Y-87488876D01*
X21379523Y-87488876D02*
X21427142Y-87679352D01*
X21427142Y-87679352D02*
X21427142Y-88012685D01*
X21427142Y-88012685D02*
X21379523Y-88203161D01*
X21379523Y-88203161D02*
X21284285Y-88298400D01*
X21284285Y-88298400D02*
X21189047Y-88346019D01*
X21189047Y-88346019D02*
X20998571Y-88346019D01*
X21808095Y-87441257D02*
X21855714Y-87393638D01*
X21855714Y-87393638D02*
X21950952Y-87346019D01*
X21950952Y-87346019D02*
X22189047Y-87346019D01*
X22189047Y-87346019D02*
X22284285Y-87393638D01*
X22284285Y-87393638D02*
X22331904Y-87441257D01*
X22331904Y-87441257D02*
X22379523Y-87536495D01*
X22379523Y-87536495D02*
X22379523Y-87631733D01*
X22379523Y-87631733D02*
X22331904Y-87774590D01*
X22331904Y-87774590D02*
X21760476Y-88346019D01*
X21760476Y-88346019D02*
X22379523Y-88346019D01*
X9403333Y-95096019D02*
X9070000Y-94619828D01*
X8831905Y-95096019D02*
X8831905Y-94096019D01*
X8831905Y-94096019D02*
X9212857Y-94096019D01*
X9212857Y-94096019D02*
X9308095Y-94143638D01*
X9308095Y-94143638D02*
X9355714Y-94191257D01*
X9355714Y-94191257D02*
X9403333Y-94286495D01*
X9403333Y-94286495D02*
X9403333Y-94429352D01*
X9403333Y-94429352D02*
X9355714Y-94524590D01*
X9355714Y-94524590D02*
X9308095Y-94572209D01*
X9308095Y-94572209D02*
X9212857Y-94619828D01*
X9212857Y-94619828D02*
X8831905Y-94619828D01*
X9736667Y-94096019D02*
X10355714Y-94096019D01*
X10355714Y-94096019D02*
X10022381Y-94476971D01*
X10022381Y-94476971D02*
X10165238Y-94476971D01*
X10165238Y-94476971D02*
X10260476Y-94524590D01*
X10260476Y-94524590D02*
X10308095Y-94572209D01*
X10308095Y-94572209D02*
X10355714Y-94667447D01*
X10355714Y-94667447D02*
X10355714Y-94905542D01*
X10355714Y-94905542D02*
X10308095Y-95000780D01*
X10308095Y-95000780D02*
X10260476Y-95048400D01*
X10260476Y-95048400D02*
X10165238Y-95096019D01*
X10165238Y-95096019D02*
X9879524Y-95096019D01*
X9879524Y-95096019D02*
X9784286Y-95048400D01*
X9784286Y-95048400D02*
X9736667Y-95000780D01*
X84453142Y-20927780D02*
X84405523Y-20975400D01*
X84405523Y-20975400D02*
X84262666Y-21023019D01*
X84262666Y-21023019D02*
X84167428Y-21023019D01*
X84167428Y-21023019D02*
X84024571Y-20975400D01*
X84024571Y-20975400D02*
X83929333Y-20880161D01*
X83929333Y-20880161D02*
X83881714Y-20784923D01*
X83881714Y-20784923D02*
X83834095Y-20594447D01*
X83834095Y-20594447D02*
X83834095Y-20451590D01*
X83834095Y-20451590D02*
X83881714Y-20261114D01*
X83881714Y-20261114D02*
X83929333Y-20165876D01*
X83929333Y-20165876D02*
X84024571Y-20070638D01*
X84024571Y-20070638D02*
X84167428Y-20023019D01*
X84167428Y-20023019D02*
X84262666Y-20023019D01*
X84262666Y-20023019D02*
X84405523Y-20070638D01*
X84405523Y-20070638D02*
X84453142Y-20118257D01*
X84643619Y-21118257D02*
X85405523Y-21118257D01*
X86119809Y-21023019D02*
X85643619Y-21023019D01*
X85643619Y-21023019D02*
X85643619Y-20023019D01*
X86453143Y-21023019D02*
X86453143Y-20023019D01*
X86929333Y-21023019D02*
X86929333Y-20023019D01*
X86929333Y-20023019D02*
X87500761Y-21023019D01*
X87500761Y-21023019D02*
X87500761Y-20023019D01*
X88310285Y-20499209D02*
X87976952Y-20499209D01*
X87976952Y-21023019D02*
X87976952Y-20023019D01*
X87976952Y-20023019D02*
X88453142Y-20023019D01*
X89357904Y-21023019D02*
X88786476Y-21023019D01*
X89072190Y-21023019D02*
X89072190Y-20023019D01*
X89072190Y-20023019D02*
X88976952Y-20165876D01*
X88976952Y-20165876D02*
X88881714Y-20261114D01*
X88881714Y-20261114D02*
X88786476Y-20308733D01*
X93167428Y-89960780D02*
X93119809Y-90008400D01*
X93119809Y-90008400D02*
X92976952Y-90056019D01*
X92976952Y-90056019D02*
X92881714Y-90056019D01*
X92881714Y-90056019D02*
X92738857Y-90008400D01*
X92738857Y-90008400D02*
X92643619Y-89913161D01*
X92643619Y-89913161D02*
X92596000Y-89817923D01*
X92596000Y-89817923D02*
X92548381Y-89627447D01*
X92548381Y-89627447D02*
X92548381Y-89484590D01*
X92548381Y-89484590D02*
X92596000Y-89294114D01*
X92596000Y-89294114D02*
X92643619Y-89198876D01*
X92643619Y-89198876D02*
X92738857Y-89103638D01*
X92738857Y-89103638D02*
X92881714Y-89056019D01*
X92881714Y-89056019D02*
X92976952Y-89056019D01*
X92976952Y-89056019D02*
X93119809Y-89103638D01*
X93119809Y-89103638D02*
X93167428Y-89151257D01*
X93357905Y-90151257D02*
X94119809Y-90151257D01*
X94929333Y-89960780D02*
X94881714Y-90008400D01*
X94881714Y-90008400D02*
X94738857Y-90056019D01*
X94738857Y-90056019D02*
X94643619Y-90056019D01*
X94643619Y-90056019D02*
X94500762Y-90008400D01*
X94500762Y-90008400D02*
X94405524Y-89913161D01*
X94405524Y-89913161D02*
X94357905Y-89817923D01*
X94357905Y-89817923D02*
X94310286Y-89627447D01*
X94310286Y-89627447D02*
X94310286Y-89484590D01*
X94310286Y-89484590D02*
X94357905Y-89294114D01*
X94357905Y-89294114D02*
X94405524Y-89198876D01*
X94405524Y-89198876D02*
X94500762Y-89103638D01*
X94500762Y-89103638D02*
X94643619Y-89056019D01*
X94643619Y-89056019D02*
X94738857Y-89056019D01*
X94738857Y-89056019D02*
X94881714Y-89103638D01*
X94881714Y-89103638D02*
X94929333Y-89151257D01*
X95310286Y-89770304D02*
X95786476Y-89770304D01*
X95215048Y-90056019D02*
X95548381Y-89056019D01*
X95548381Y-89056019D02*
X95881714Y-90056019D01*
X96215048Y-90056019D02*
X96215048Y-89056019D01*
X96215048Y-89056019D02*
X96786476Y-90056019D01*
X96786476Y-90056019D02*
X96786476Y-89056019D01*
X97119810Y-89056019D02*
X97453143Y-90056019D01*
X97453143Y-90056019D02*
X97786476Y-89056019D01*
X98643619Y-90056019D02*
X98072191Y-90056019D01*
X98357905Y-90056019D02*
X98357905Y-89056019D01*
X98357905Y-89056019D02*
X98262667Y-89198876D01*
X98262667Y-89198876D02*
X98167429Y-89294114D01*
X98167429Y-89294114D02*
X98072191Y-89341733D01*
X93572190Y-49569519D02*
X93238857Y-49093328D01*
X93000762Y-49569519D02*
X93000762Y-48569519D01*
X93000762Y-48569519D02*
X93381714Y-48569519D01*
X93381714Y-48569519D02*
X93476952Y-48617138D01*
X93476952Y-48617138D02*
X93524571Y-48664757D01*
X93524571Y-48664757D02*
X93572190Y-48759995D01*
X93572190Y-48759995D02*
X93572190Y-48902852D01*
X93572190Y-48902852D02*
X93524571Y-48998090D01*
X93524571Y-48998090D02*
X93476952Y-49045709D01*
X93476952Y-49045709D02*
X93381714Y-49093328D01*
X93381714Y-49093328D02*
X93000762Y-49093328D01*
X93762667Y-49664757D02*
X94524571Y-49664757D01*
X95334095Y-49569519D02*
X95000762Y-49093328D01*
X94762667Y-49569519D02*
X94762667Y-48569519D01*
X94762667Y-48569519D02*
X95143619Y-48569519D01*
X95143619Y-48569519D02*
X95238857Y-48617138D01*
X95238857Y-48617138D02*
X95286476Y-48664757D01*
X95286476Y-48664757D02*
X95334095Y-48759995D01*
X95334095Y-48759995D02*
X95334095Y-48902852D01*
X95334095Y-48902852D02*
X95286476Y-48998090D01*
X95286476Y-48998090D02*
X95238857Y-49045709D01*
X95238857Y-49045709D02*
X95143619Y-49093328D01*
X95143619Y-49093328D02*
X94762667Y-49093328D01*
X95667429Y-48569519D02*
X96334095Y-49569519D01*
X96334095Y-48569519D02*
X95667429Y-49569519D01*
X96715048Y-49569519D02*
X96715048Y-48569519D01*
X96715048Y-48569519D02*
X96953143Y-48569519D01*
X96953143Y-48569519D02*
X97096000Y-48617138D01*
X97096000Y-48617138D02*
X97191238Y-48712376D01*
X97191238Y-48712376D02*
X97238857Y-48807614D01*
X97238857Y-48807614D02*
X97286476Y-48998090D01*
X97286476Y-48998090D02*
X97286476Y-49140947D01*
X97286476Y-49140947D02*
X97238857Y-49331423D01*
X97238857Y-49331423D02*
X97191238Y-49426661D01*
X97191238Y-49426661D02*
X97096000Y-49521900D01*
X97096000Y-49521900D02*
X96953143Y-49569519D01*
X96953143Y-49569519D02*
X96715048Y-49569519D01*
X97667429Y-48664757D02*
X97715048Y-48617138D01*
X97715048Y-48617138D02*
X97810286Y-48569519D01*
X97810286Y-48569519D02*
X98048381Y-48569519D01*
X98048381Y-48569519D02*
X98143619Y-48617138D01*
X98143619Y-48617138D02*
X98191238Y-48664757D01*
X98191238Y-48664757D02*
X98238857Y-48759995D01*
X98238857Y-48759995D02*
X98238857Y-48855233D01*
X98238857Y-48855233D02*
X98191238Y-48998090D01*
X98191238Y-48998090D02*
X97619810Y-49569519D01*
X97619810Y-49569519D02*
X98238857Y-49569519D01*
X84310285Y-55274280D02*
X84262666Y-55321900D01*
X84262666Y-55321900D02*
X84119809Y-55369519D01*
X84119809Y-55369519D02*
X84024571Y-55369519D01*
X84024571Y-55369519D02*
X83881714Y-55321900D01*
X83881714Y-55321900D02*
X83786476Y-55226661D01*
X83786476Y-55226661D02*
X83738857Y-55131423D01*
X83738857Y-55131423D02*
X83691238Y-54940947D01*
X83691238Y-54940947D02*
X83691238Y-54798090D01*
X83691238Y-54798090D02*
X83738857Y-54607614D01*
X83738857Y-54607614D02*
X83786476Y-54512376D01*
X83786476Y-54512376D02*
X83881714Y-54417138D01*
X83881714Y-54417138D02*
X84024571Y-54369519D01*
X84024571Y-54369519D02*
X84119809Y-54369519D01*
X84119809Y-54369519D02*
X84262666Y-54417138D01*
X84262666Y-54417138D02*
X84310285Y-54464757D01*
X84500762Y-55464757D02*
X85262666Y-55464757D01*
X85834095Y-54845709D02*
X85976952Y-54893328D01*
X85976952Y-54893328D02*
X86024571Y-54940947D01*
X86024571Y-54940947D02*
X86072190Y-55036185D01*
X86072190Y-55036185D02*
X86072190Y-55179042D01*
X86072190Y-55179042D02*
X86024571Y-55274280D01*
X86024571Y-55274280D02*
X85976952Y-55321900D01*
X85976952Y-55321900D02*
X85881714Y-55369519D01*
X85881714Y-55369519D02*
X85500762Y-55369519D01*
X85500762Y-55369519D02*
X85500762Y-54369519D01*
X85500762Y-54369519D02*
X85834095Y-54369519D01*
X85834095Y-54369519D02*
X85929333Y-54417138D01*
X85929333Y-54417138D02*
X85976952Y-54464757D01*
X85976952Y-54464757D02*
X86024571Y-54559995D01*
X86024571Y-54559995D02*
X86024571Y-54655233D01*
X86024571Y-54655233D02*
X85976952Y-54750471D01*
X85976952Y-54750471D02*
X85929333Y-54798090D01*
X85929333Y-54798090D02*
X85834095Y-54845709D01*
X85834095Y-54845709D02*
X85500762Y-54845709D01*
X86453143Y-55083804D02*
X86929333Y-55083804D01*
X86357905Y-55369519D02*
X86691238Y-54369519D01*
X86691238Y-54369519D02*
X87024571Y-55369519D01*
X87215048Y-54369519D02*
X87786476Y-54369519D01*
X87500762Y-55369519D02*
X87500762Y-54369519D01*
X88072191Y-54464757D02*
X88119810Y-54417138D01*
X88119810Y-54417138D02*
X88215048Y-54369519D01*
X88215048Y-54369519D02*
X88453143Y-54369519D01*
X88453143Y-54369519D02*
X88548381Y-54417138D01*
X88548381Y-54417138D02*
X88596000Y-54464757D01*
X88596000Y-54464757D02*
X88643619Y-54559995D01*
X88643619Y-54559995D02*
X88643619Y-54655233D01*
X88643619Y-54655233D02*
X88596000Y-54798090D01*
X88596000Y-54798090D02*
X88024572Y-55369519D01*
X88024572Y-55369519D02*
X88643619Y-55369519D01*
X89024572Y-55083804D02*
X89500762Y-55083804D01*
X88929334Y-55369519D02*
X89262667Y-54369519D01*
X89262667Y-54369519D02*
X89596000Y-55369519D01*
D11*
%TO.C,C_REGOUT2*%
X22604248Y-63234700D02*
X24026752Y-63234700D01*
X22604248Y-65054700D02*
X24026752Y-65054700D01*
%TO.C,J_DEVKIT_R*%
X67706400Y-10888200D02*
X67706400Y-46508200D01*
X67706400Y-10888200D02*
X70366400Y-10888200D01*
X67706400Y-46508200D02*
X70366400Y-46508200D01*
X69036400Y-8288200D02*
X70366400Y-8288200D01*
X70366400Y-8288200D02*
X70366400Y-9618200D01*
X70366400Y-10888200D02*
X70366400Y-46508200D01*
%TO.C,R4*%
X21342936Y-95556200D02*
X21797064Y-95556200D01*
X21342936Y-97026200D02*
X21797064Y-97026200D01*
%TO.C,R10*%
X118714136Y-27309700D02*
X119168264Y-27309700D01*
X118714136Y-28779700D02*
X119168264Y-28779700D01*
%TO.C,R_RXD1*%
X95368936Y-9513200D02*
X95823064Y-9513200D01*
X95368936Y-10983200D02*
X95823064Y-10983200D01*
%TO.C,C_BULK*%
X8655802Y-41829700D02*
X9455802Y-41829700D01*
X9055802Y-41429700D02*
X9055802Y-42229700D01*
X13065500Y-40064700D02*
X13065500Y-48224700D01*
X13105500Y-40064700D02*
X13105500Y-48224700D01*
X13145500Y-40065700D02*
X13145500Y-48223700D01*
X13185500Y-40066700D02*
X13185500Y-48222700D01*
X13225500Y-40067700D02*
X13225500Y-48221700D01*
X13265500Y-40069700D02*
X13265500Y-48219700D01*
X13305500Y-40071700D02*
X13305500Y-48217700D01*
X13345500Y-40074700D02*
X13345500Y-48214700D01*
X13385500Y-40076700D02*
X13385500Y-48212700D01*
X13425500Y-40080700D02*
X13425500Y-48208700D01*
X13465500Y-40083700D02*
X13465500Y-48205700D01*
X13505500Y-40088700D02*
X13505500Y-48200700D01*
X13545500Y-40092700D02*
X13545500Y-48196700D01*
X13585500Y-40097700D02*
X13585500Y-48191700D01*
X13625500Y-40102700D02*
X13625500Y-48186700D01*
X13665500Y-40108700D02*
X13665500Y-48180700D01*
X13705500Y-40114700D02*
X13705500Y-48174700D01*
X13745500Y-40121700D02*
X13745500Y-48167700D01*
X13785500Y-40127700D02*
X13785500Y-43104700D01*
X13785500Y-45184700D02*
X13785500Y-48161700D01*
X13825500Y-40135700D02*
X13825500Y-43104700D01*
X13825500Y-45184700D02*
X13825500Y-48153700D01*
X13865500Y-40142700D02*
X13865500Y-43104700D01*
X13865500Y-45184700D02*
X13865500Y-48146700D01*
X13905500Y-40151700D02*
X13905500Y-43104700D01*
X13905500Y-45184700D02*
X13905500Y-48137700D01*
X13945500Y-40159700D02*
X13945500Y-43104700D01*
X13945500Y-45184700D02*
X13945500Y-48129700D01*
X13985500Y-40168700D02*
X13985500Y-43104700D01*
X13985500Y-45184700D02*
X13985500Y-48120700D01*
X14025500Y-40177700D02*
X14025500Y-43104700D01*
X14025500Y-45184700D02*
X14025500Y-48111700D01*
X14065500Y-40187700D02*
X14065500Y-43104700D01*
X14065500Y-45184700D02*
X14065500Y-48101700D01*
X14105500Y-40197700D02*
X14105500Y-43104700D01*
X14105500Y-45184700D02*
X14105500Y-48091700D01*
X14145500Y-40208700D02*
X14145500Y-43104700D01*
X14145500Y-45184700D02*
X14145500Y-48080700D01*
X14185500Y-40219700D02*
X14185500Y-43104700D01*
X14185500Y-45184700D02*
X14185500Y-48069700D01*
X14225500Y-40231700D02*
X14225500Y-43104700D01*
X14225500Y-45184700D02*
X14225500Y-48057700D01*
X14265500Y-40243700D02*
X14265500Y-43104700D01*
X14265500Y-45184700D02*
X14265500Y-48045700D01*
X14305500Y-40255700D02*
X14305500Y-43104700D01*
X14305500Y-45184700D02*
X14305500Y-48033700D01*
X14345500Y-40268700D02*
X14345500Y-43104700D01*
X14345500Y-45184700D02*
X14345500Y-48020700D01*
X14385500Y-40281700D02*
X14385500Y-43104700D01*
X14385500Y-45184700D02*
X14385500Y-48007700D01*
X14425500Y-40295700D02*
X14425500Y-43104700D01*
X14425500Y-45184700D02*
X14425500Y-47993700D01*
X14465500Y-40309700D02*
X14465500Y-43104700D01*
X14465500Y-45184700D02*
X14465500Y-47979700D01*
X14505500Y-40324700D02*
X14505500Y-43104700D01*
X14505500Y-45184700D02*
X14505500Y-47964700D01*
X14545500Y-40339700D02*
X14545500Y-43104700D01*
X14545500Y-45184700D02*
X14545500Y-47949700D01*
X14585500Y-40355700D02*
X14585500Y-43104700D01*
X14585500Y-45184700D02*
X14585500Y-47933700D01*
X14625500Y-40371700D02*
X14625500Y-43104700D01*
X14625500Y-45184700D02*
X14625500Y-47917700D01*
X14665500Y-40387700D02*
X14665500Y-43104700D01*
X14665500Y-45184700D02*
X14665500Y-47901700D01*
X14705500Y-40404700D02*
X14705500Y-43104700D01*
X14705500Y-45184700D02*
X14705500Y-47884700D01*
X14745500Y-40422700D02*
X14745500Y-43104700D01*
X14745500Y-45184700D02*
X14745500Y-47866700D01*
X14785500Y-40440700D02*
X14785500Y-43104700D01*
X14785500Y-45184700D02*
X14785500Y-47848700D01*
X14825500Y-40459700D02*
X14825500Y-43104700D01*
X14825500Y-45184700D02*
X14825500Y-47829700D01*
X14865500Y-40478700D02*
X14865500Y-43104700D01*
X14865500Y-45184700D02*
X14865500Y-47810700D01*
X14905500Y-40498700D02*
X14905500Y-43104700D01*
X14905500Y-45184700D02*
X14905500Y-47790700D01*
X14945500Y-40518700D02*
X14945500Y-43104700D01*
X14945500Y-45184700D02*
X14945500Y-47770700D01*
X14985500Y-40539700D02*
X14985500Y-43104700D01*
X14985500Y-45184700D02*
X14985500Y-47749700D01*
X15025500Y-40560700D02*
X15025500Y-43104700D01*
X15025500Y-45184700D02*
X15025500Y-47728700D01*
X15065500Y-40582700D02*
X15065500Y-43104700D01*
X15065500Y-45184700D02*
X15065500Y-47706700D01*
X15105500Y-40605700D02*
X15105500Y-43104700D01*
X15105500Y-45184700D02*
X15105500Y-47683700D01*
X15145500Y-40628700D02*
X15145500Y-43104700D01*
X15145500Y-45184700D02*
X15145500Y-47660700D01*
X15185500Y-40651700D02*
X15185500Y-43104700D01*
X15185500Y-45184700D02*
X15185500Y-47637700D01*
X15225500Y-40676700D02*
X15225500Y-43104700D01*
X15225500Y-45184700D02*
X15225500Y-47612700D01*
X15265500Y-40701700D02*
X15265500Y-43104700D01*
X15265500Y-45184700D02*
X15265500Y-47587700D01*
X15305500Y-40726700D02*
X15305500Y-43104700D01*
X15305500Y-45184700D02*
X15305500Y-47562700D01*
X15345500Y-40752700D02*
X15345500Y-43104700D01*
X15345500Y-45184700D02*
X15345500Y-47536700D01*
X15385500Y-40779700D02*
X15385500Y-43104700D01*
X15385500Y-45184700D02*
X15385500Y-47509700D01*
X15425500Y-40807700D02*
X15425500Y-43104700D01*
X15425500Y-45184700D02*
X15425500Y-47481700D01*
X15465500Y-40835700D02*
X15465500Y-43104700D01*
X15465500Y-45184700D02*
X15465500Y-47453700D01*
X15505500Y-40864700D02*
X15505500Y-43104700D01*
X15505500Y-45184700D02*
X15505500Y-47424700D01*
X15545500Y-40894700D02*
X15545500Y-43104700D01*
X15545500Y-45184700D02*
X15545500Y-47394700D01*
X15585500Y-40925700D02*
X15585500Y-43104700D01*
X15585500Y-45184700D02*
X15585500Y-47363700D01*
X15625500Y-40956700D02*
X15625500Y-43104700D01*
X15625500Y-45184700D02*
X15625500Y-47332700D01*
X15665500Y-40988700D02*
X15665500Y-43104700D01*
X15665500Y-45184700D02*
X15665500Y-47300700D01*
X15705500Y-41021700D02*
X15705500Y-43104700D01*
X15705500Y-45184700D02*
X15705500Y-47267700D01*
X15745500Y-41055700D02*
X15745500Y-43104700D01*
X15745500Y-45184700D02*
X15745500Y-47233700D01*
X15785500Y-41089700D02*
X15785500Y-43104700D01*
X15785500Y-45184700D02*
X15785500Y-47199700D01*
X15825500Y-41125700D02*
X15825500Y-43104700D01*
X15825500Y-45184700D02*
X15825500Y-47163700D01*
X15865500Y-41162700D02*
X15865500Y-47126700D01*
X15905500Y-41199700D02*
X15905500Y-47089700D01*
X15945500Y-41238700D02*
X15945500Y-47050700D01*
X15985500Y-41277700D02*
X15985500Y-47011700D01*
X16025500Y-41318700D02*
X16025500Y-46970700D01*
X16065500Y-41360700D02*
X16065500Y-46928700D01*
X16105500Y-41403700D02*
X16105500Y-46885700D01*
X16145500Y-41448700D02*
X16145500Y-46840700D01*
X16185500Y-41493700D02*
X16185500Y-46795700D01*
X16225500Y-41540700D02*
X16225500Y-46748700D01*
X16265500Y-41589700D02*
X16265500Y-46699700D01*
X16305500Y-41639700D02*
X16305500Y-46649700D01*
X16345500Y-41691700D02*
X16345500Y-46597700D01*
X16385500Y-41744700D02*
X16385500Y-46544700D01*
X16425500Y-41800700D02*
X16425500Y-46488700D01*
X16465500Y-41857700D02*
X16465500Y-46431700D01*
X16505500Y-41917700D02*
X16505500Y-46371700D01*
X16545500Y-41979700D02*
X16545500Y-46309700D01*
X16585500Y-42043700D02*
X16585500Y-46245700D01*
X16625500Y-42110700D02*
X16625500Y-46178700D01*
X16665500Y-42180700D02*
X16665500Y-46108700D01*
X16705500Y-42254700D02*
X16705500Y-46034700D01*
X16745500Y-42331700D02*
X16745500Y-45957700D01*
X16785500Y-42413700D02*
X16785500Y-45875700D01*
X16825500Y-42500700D02*
X16825500Y-45788700D01*
X16865500Y-42592700D02*
X16865500Y-45696700D01*
X16905500Y-42691700D02*
X16905500Y-45597700D01*
X16945500Y-42798700D02*
X16945500Y-45490700D01*
X16985500Y-42916700D02*
X16985500Y-45372700D01*
X17025500Y-43047700D02*
X17025500Y-45241700D01*
X17065500Y-43197700D02*
X17065500Y-45091700D01*
X17105500Y-43376700D02*
X17105500Y-44912700D01*
X17145500Y-43611700D02*
X17145500Y-44677700D01*
X17185500Y-44144700D02*
G75*
G02*
X8945500Y-44144700I-4120000J0D01*
G01*
X8945500Y-44144700D02*
G75*
G02*
X17185500Y-44144700I4120000J0D01*
G01*
%TO.C,R2*%
X111178436Y-14863200D02*
X111632564Y-14863200D01*
X111178436Y-16333200D02*
X111632564Y-16333200D01*
%TO.C,C_REGIN1*%
X11054248Y-57409700D02*
X11576752Y-57409700D01*
X11054248Y-58879700D02*
X11576752Y-58879700D01*
%TO.C,D5*%
X93236000Y-67764700D02*
X93236000Y-69764700D01*
X93236000Y-67764700D02*
X97246000Y-67764700D01*
X93236000Y-69764700D02*
X97246000Y-69764700D01*
%TO.C,C_REGOUT1*%
X11054248Y-63409700D02*
X11576752Y-63409700D01*
X11054248Y-64879700D02*
X11576752Y-64879700D01*
%TO.C,R6*%
X86368936Y-27513200D02*
X86823064Y-27513200D01*
X86368936Y-28983200D02*
X86823064Y-28983200D01*
%TO.C,J1*%
X7560000Y-11348200D02*
X24060000Y-11348200D01*
X7560000Y-20742400D02*
X7560000Y-11348200D01*
X22960000Y-11348200D02*
X23660000Y-12048200D01*
X23660000Y-12048200D02*
X22960000Y-12748200D01*
X24060000Y-11348200D02*
X24060000Y-20742400D01*
X24060000Y-20742400D02*
X7560000Y-20742400D01*
%TO.C,U_CAN*%
X84536000Y-88721200D02*
X88656000Y-88721200D01*
X84536000Y-88816200D02*
X84536000Y-88721200D01*
X84536000Y-93841200D02*
X84536000Y-93746200D01*
X88656000Y-88721200D02*
X88656000Y-88816200D01*
X88656000Y-93746200D02*
X88656000Y-93841200D01*
X88656000Y-93841200D02*
X84536000Y-93841200D01*
X83996000Y-88811200D02*
X83756000Y-88481200D01*
X84236000Y-88481200D01*
X83996000Y-88811200D01*
G36*
X83996000Y-88811200D02*
G01*
X83756000Y-88481200D01*
X84236000Y-88481200D01*
X83996000Y-88811200D01*
G37*
%TO.C,C_WAKE1*%
X95334748Y-21513200D02*
X95857252Y-21513200D01*
X95334748Y-22983200D02*
X95857252Y-22983200D01*
%TO.C,U_LIN2*%
X84536000Y-48204700D02*
X88656000Y-48204700D01*
X84536000Y-48299700D02*
X84536000Y-48204700D01*
X84536000Y-53324700D02*
X84536000Y-53229700D01*
X88656000Y-48204700D02*
X88656000Y-48299700D01*
X88656000Y-53229700D02*
X88656000Y-53324700D01*
X88656000Y-53324700D02*
X84536000Y-53324700D01*
X83996000Y-48294700D02*
X83756000Y-47964700D01*
X84236000Y-47964700D01*
X83996000Y-48294700D01*
G36*
X83996000Y-48294700D02*
G01*
X83756000Y-47964700D01*
X84236000Y-47964700D01*
X83996000Y-48294700D01*
G37*
%TO.C,Q_REV*%
X8745500Y-34884700D02*
X18965500Y-34884700D01*
X8745500Y-36264700D02*
X18965500Y-36264700D01*
X8745500Y-39504700D02*
X8745500Y-34884700D01*
X12005500Y-34884700D02*
X12005500Y-36264700D01*
X15705500Y-34884700D02*
X15705500Y-36264700D01*
X18965500Y-34884700D02*
X18965500Y-39504700D01*
X18965500Y-39504700D02*
X8745500Y-39504700D01*
%TO.C,C_33IN*%
X23054248Y-69409700D02*
X23576752Y-69409700D01*
X23054248Y-70879700D02*
X23576752Y-70879700D01*
%TO.C,C_WAKE2*%
X95334748Y-62029700D02*
X95857252Y-62029700D01*
X95334748Y-63499700D02*
X95857252Y-63499700D01*
%TO.C,C_CANV2*%
X85884748Y-96371200D02*
X87307252Y-96371200D01*
X85884748Y-98191200D02*
X87307252Y-98191200D01*
%TO.C,C_LINF2*%
X86334748Y-62029700D02*
X86857252Y-62029700D01*
X86334748Y-63499700D02*
X86857252Y-63499700D01*
%TO.C,R7*%
X86368936Y-68029700D02*
X86823064Y-68029700D01*
X86368936Y-69499700D02*
X86823064Y-69499700D01*
%TO.C,J_DEVKIT_L*%
X42306400Y-10888200D02*
X42306400Y-46508200D01*
X42306400Y-10888200D02*
X44966400Y-10888200D01*
X42306400Y-46508200D02*
X44966400Y-46508200D01*
X43636400Y-8288200D02*
X44966400Y-8288200D01*
X44966400Y-8288200D02*
X44966400Y-9618200D01*
X44966400Y-10888200D02*
X44966400Y-46508200D01*
%TO.C,C_BAT1A*%
X85884748Y-15338200D02*
X87307252Y-15338200D01*
X85884748Y-17158200D02*
X87307252Y-17158200D01*
%TO.C,C_BAT1B*%
X95334748Y-15513200D02*
X95857252Y-15513200D01*
X95334748Y-16983200D02*
X95857252Y-16983200D01*
%TO.C,D2*%
X6060000Y-100641200D02*
X6060000Y-103941200D01*
X6060000Y-100641200D02*
X11570000Y-100641200D01*
X6060000Y-103941200D02*
X11570000Y-103941200D01*
%TO.C,JP2*%
X85216000Y-73384700D02*
X86596000Y-73384700D01*
X85216000Y-74764700D02*
X85216000Y-73384700D01*
X85216000Y-76034700D02*
X85216000Y-78684700D01*
X85216000Y-76034700D02*
X87976000Y-76034700D01*
X85216000Y-78684700D02*
X87976000Y-78684700D01*
X87976000Y-76034700D02*
X87976000Y-78684700D01*
%TO.C,JP1*%
X85216000Y-32868200D02*
X86596000Y-32868200D01*
X85216000Y-34248200D02*
X85216000Y-32868200D01*
X85216000Y-35518200D02*
X85216000Y-38168200D01*
X85216000Y-35518200D02*
X87976000Y-35518200D01*
X85216000Y-38168200D02*
X87976000Y-38168200D01*
X87976000Y-35518200D02*
X87976000Y-38168200D01*
%TO.C,R9*%
X109714136Y-27309700D02*
X110168264Y-27309700D01*
X109714136Y-28779700D02*
X110168264Y-28779700D01*
%TO.C,C_33OUT2*%
X22604248Y-75234700D02*
X24026752Y-75234700D01*
X22604248Y-77054700D02*
X24026752Y-77054700D01*
%TO.C,U_OPTO*%
X107495500Y-7688200D02*
X115315500Y-7688200D01*
X107495500Y-7768200D02*
X107495500Y-7688200D01*
X107495500Y-11508200D02*
X107495500Y-11428200D01*
X115315500Y-7688200D02*
X115315500Y-7768200D01*
X115315500Y-11428200D02*
X115315500Y-11508200D01*
X115315500Y-11508200D02*
X107495500Y-11508200D01*
X107055500Y-9358200D02*
X106375500Y-9358200D01*
X106715500Y-8888200D01*
X107055500Y-9358200D01*
G36*
X107055500Y-9358200D02*
G01*
X106375500Y-9358200D01*
X106715500Y-8888200D01*
X107055500Y-9358200D01*
G37*
%TO.C,C_REGIN2*%
X22604248Y-57234700D02*
X24026752Y-57234700D01*
X22604248Y-59054700D02*
X24026752Y-59054700D01*
%TO.C,D3*%
X116895500Y-13948200D02*
X116895500Y-17248200D01*
X116895500Y-13948200D02*
X122405500Y-13948200D01*
X116895500Y-17248200D02*
X122405500Y-17248200D01*
%TO.C,U_33*%
X9465500Y-66734700D02*
X13225500Y-66734700D01*
X9465500Y-73554700D02*
X13225500Y-73554700D01*
X13225500Y-66734700D02*
X13225500Y-67994700D01*
X13225500Y-73554700D02*
X13225500Y-72294700D01*
X8185500Y-66834700D02*
X7945500Y-66504700D01*
X8425500Y-66504700D01*
X8185500Y-66834700D01*
G36*
X8185500Y-66834700D02*
G01*
X7945500Y-66504700D01*
X8425500Y-66504700D01*
X8185500Y-66834700D01*
G37*
%TO.C,U_LIN1*%
X84536000Y-7688200D02*
X88656000Y-7688200D01*
X84536000Y-7783200D02*
X84536000Y-7688200D01*
X84536000Y-12808200D02*
X84536000Y-12713200D01*
X88656000Y-7688200D02*
X88656000Y-7783200D01*
X88656000Y-12713200D02*
X88656000Y-12808200D01*
X88656000Y-12808200D02*
X84536000Y-12808200D01*
X83996000Y-7778200D02*
X83756000Y-7448200D01*
X84236000Y-7448200D01*
X83996000Y-7778200D01*
G36*
X83996000Y-7778200D02*
G01*
X83756000Y-7448200D01*
X84236000Y-7448200D01*
X83996000Y-7778200D01*
G37*
%TO.C,D4*%
X93236000Y-27248200D02*
X93236000Y-29248200D01*
X93236000Y-27248200D02*
X97246000Y-27248200D01*
X93236000Y-29248200D02*
X97246000Y-29248200D01*
%TO.C,R8*%
X95368936Y-96546200D02*
X95823064Y-96546200D01*
X95368936Y-98016200D02*
X95823064Y-98016200D01*
%TO.C,R1*%
X120178436Y-8863200D02*
X120632564Y-8863200D01*
X120178436Y-10333200D02*
X120632564Y-10333200D01*
%TO.C,C16*%
X118679948Y-33309700D02*
X119202452Y-33309700D01*
X118679948Y-34779700D02*
X119202452Y-34779700D01*
%TO.C,C_33OUT1*%
X11054248Y-75409700D02*
X11576752Y-75409700D01*
X11054248Y-76879700D02*
X11576752Y-76879700D01*
%TO.C,R_REV*%
X23088436Y-37409700D02*
X23542564Y-37409700D01*
X23088436Y-38879700D02*
X23542564Y-38879700D01*
%TO.C,JP3*%
X85216000Y-101901200D02*
X86596000Y-101901200D01*
X85216000Y-103281200D02*
X85216000Y-101901200D01*
X85216000Y-104551200D02*
X85216000Y-107201200D01*
X85216000Y-104551200D02*
X87976000Y-104551200D01*
X85216000Y-107201200D02*
X87976000Y-107201200D01*
X87976000Y-104551200D02*
X87976000Y-107201200D01*
%TO.C,U_REG*%
X20745500Y-40884700D02*
X30965500Y-40884700D01*
X20745500Y-42264700D02*
X30965500Y-42264700D01*
X20745500Y-45504700D02*
X20745500Y-40884700D01*
X24005500Y-40884700D02*
X24005500Y-42264700D01*
X27705500Y-40884700D02*
X27705500Y-42264700D01*
X30965500Y-40884700D02*
X30965500Y-45504700D01*
X30965500Y-45504700D02*
X20745500Y-45504700D01*
%TO.C,Q1*%
X7000000Y-87031200D02*
X17220000Y-87031200D01*
X7000000Y-88411200D02*
X17220000Y-88411200D01*
X7000000Y-91651200D02*
X7000000Y-87031200D01*
X10260000Y-87031200D02*
X10260000Y-88411200D01*
X13960000Y-87031200D02*
X13960000Y-88411200D01*
X17220000Y-87031200D02*
X17220000Y-91651200D01*
X17220000Y-91651200D02*
X7000000Y-91651200D01*
%TO.C,C_BAT2B*%
X95334748Y-56029700D02*
X95857252Y-56029700D01*
X95334748Y-57499700D02*
X95857252Y-57499700D01*
%TO.C,D_Z1*%
X109181200Y-32484700D02*
X110701200Y-32484700D01*
X109181200Y-32534700D02*
X109181200Y-32484700D01*
X109181200Y-34434700D02*
X109181200Y-33654700D01*
X109181200Y-35604700D02*
X109181200Y-35554700D01*
X110701200Y-32484700D02*
X110701200Y-33484700D01*
X110701200Y-34604700D02*
X110701200Y-35604700D01*
X110701200Y-35604700D02*
X109181200Y-35604700D01*
X108881200Y-33994700D02*
X108401200Y-33994700D01*
X108641200Y-33664700D01*
X108881200Y-33994700D01*
G36*
X108881200Y-33994700D02*
G01*
X108401200Y-33994700D01*
X108641200Y-33664700D01*
X108881200Y-33994700D01*
G37*
%TO.C,Q2*%
X20810000Y-88731200D02*
X22330000Y-88731200D01*
X20810000Y-88781200D02*
X20810000Y-88731200D01*
X20810000Y-90681200D02*
X20810000Y-89901200D01*
X20810000Y-91851200D02*
X20810000Y-91801200D01*
X22330000Y-88731200D02*
X22330000Y-89731200D01*
X22330000Y-90851200D02*
X22330000Y-91851200D01*
X22330000Y-91851200D02*
X20810000Y-91851200D01*
X20510000Y-90241200D02*
X20030000Y-90241200D01*
X20270000Y-89911200D01*
X20510000Y-90241200D01*
G36*
X20510000Y-90241200D02*
G01*
X20030000Y-90241200D01*
X20270000Y-89911200D01*
X20510000Y-90241200D01*
G37*
%TO.C,R3*%
X9342936Y-95556200D02*
X9797064Y-95556200D01*
X9342936Y-97026200D02*
X9797064Y-97026200D01*
%TO.C,C_LINF1*%
X86334748Y-21513200D02*
X86857252Y-21513200D01*
X86334748Y-22983200D02*
X86857252Y-22983200D01*
%TO.C,C_CANV1*%
X95334748Y-90546200D02*
X95857252Y-90546200D01*
X95334748Y-92016200D02*
X95857252Y-92016200D01*
%TO.C,R_RXD2*%
X95368936Y-50029700D02*
X95823064Y-50029700D01*
X95368936Y-51499700D02*
X95823064Y-51499700D01*
%TO.C,C_BAT2A*%
X85884748Y-55854700D02*
X87307252Y-55854700D01*
X85884748Y-57674700D02*
X87307252Y-57674700D01*
%TD*%
M02*
