%TF.GenerationSoftware,KiCad,Pcbnew,9.0.9-9.0.9~ubuntu24.04.1*%
%TF.CreationDate,2026-08-18T10:44:49+00:00*%
%TF.ProjectId,AirLift-V2-PCB,4169724c-6966-4742-9d56-322d5043422e,rev?*%
%TF.SameCoordinates,Original*%
%TF.FileFunction,Paste,Top*%
%TF.FilePolarity,Positive*%
%FSLAX46Y46*%
G04 Gerber Fmt 4.6, Leading zero omitted, Abs format (unit mm)*
G04 Created by KiCad (PCBNEW 9.0.9-9.0.9~ubuntu24.04.1) date 2026-08-18 10:44:49*
%MOMM*%
%LPD*%
G01*
G04 APERTURE LIST*
G04 Aperture macros list*
%AMRoundRect*
0 Rectangle with rounded corners*
0 $1 Rounding radius*
0 $2 $3 $4 $5 $6 $7 $8 $9 X,Y pos of 4 corners*
0 Add a 4 corners polygon primitive as box body*
4,1,4,$2,$3,$4,$5,$6,$7,$8,$9,$2,$3,0*
0 Add four circle primitives for the rounded corners*
1,1,$1+$1,$2,$3*
1,1,$1+$1,$4,$5*
1,1,$1+$1,$6,$7*
1,1,$1+$1,$8,$9*
0 Add four rect primitives between the rounded corners*
20,1,$1+$1,$2,$3,$4,$5,0*
20,1,$1+$1,$4,$5,$6,$7,0*
20,1,$1+$1,$6,$7,$8,$9,0*
20,1,$1+$1,$8,$9,$2,$3,0*%
G04 Aperture macros list end*
%ADD10RoundRect,0.250000X-0.325000X-0.650000X0.325000X-0.650000X0.325000X0.650000X-0.325000X0.650000X0*%
%ADD11RoundRect,0.250000X-0.262500X-0.450000X0.262500X-0.450000X0.262500X0.450000X-0.262500X0.450000X0*%
%ADD12RoundRect,0.250000X-0.250000X-0.475000X0.250000X-0.475000X0.250000X0.475000X-0.250000X0.475000X0*%
%ADD13RoundRect,0.225000X-0.225000X-0.375000X0.225000X-0.375000X0.225000X0.375000X-0.225000X0.375000X0*%
%ADD14RoundRect,0.150000X-0.825000X-0.150000X0.825000X-0.150000X0.825000X0.150000X-0.825000X0.150000X0*%
%ADD15RoundRect,0.250000X-1.000000X-0.650000X1.000000X-0.650000X1.000000X0.650000X-1.000000X0.650000X0*%
%ADD16RoundRect,0.150000X-0.762500X-0.150000X0.762500X-0.150000X0.762500X0.150000X-0.762500X0.150000X0*%
%ADD17RoundRect,0.375000X-0.625000X-0.375000X0.625000X-0.375000X0.625000X0.375000X-0.625000X0.375000X0*%
%ADD18RoundRect,0.500000X-0.500000X-1.400000X0.500000X-1.400000X0.500000X1.400000X-0.500000X1.400000X0*%
%ADD19RoundRect,0.150000X-0.587500X-0.150000X0.587500X-0.150000X0.587500X0.150000X-0.587500X0.150000X0*%
G04 APERTURE END LIST*
D10*
%TO.C,C_REGOUT2*%
X21840500Y-64144700D03*
X24790500Y-64144700D03*
%TD*%
D11*
%TO.C,R4*%
X20657500Y-96291200D03*
X22482500Y-96291200D03*
%TD*%
%TO.C,R10*%
X118028700Y-28044700D03*
X119853700Y-28044700D03*
%TD*%
%TO.C,R_RXD1*%
X94683500Y-10248200D03*
X96508500Y-10248200D03*
%TD*%
%TO.C,R2*%
X110493000Y-15598200D03*
X112318000Y-15598200D03*
%TD*%
D12*
%TO.C,C_REGIN1*%
X10365500Y-58144700D03*
X12265500Y-58144700D03*
%TD*%
D13*
%TO.C,D5*%
X93946000Y-68764700D03*
X97246000Y-68764700D03*
%TD*%
D12*
%TO.C,C_REGOUT1*%
X10365500Y-64144700D03*
X12265500Y-64144700D03*
%TD*%
D11*
%TO.C,R6*%
X85683500Y-28248200D03*
X87508500Y-28248200D03*
%TD*%
D14*
%TO.C,U_CAN*%
X84121000Y-89376200D03*
X84121000Y-90646200D03*
X84121000Y-91916200D03*
X84121000Y-93186200D03*
X89071000Y-93186200D03*
X89071000Y-91916200D03*
X89071000Y-90646200D03*
X89071000Y-89376200D03*
%TD*%
D12*
%TO.C,C_WAKE1*%
X94646000Y-22248200D03*
X96546000Y-22248200D03*
%TD*%
D14*
%TO.C,U_LIN2*%
X84121000Y-48859700D03*
X84121000Y-50129700D03*
X84121000Y-51399700D03*
X84121000Y-52669700D03*
X89071000Y-52669700D03*
X89071000Y-51399700D03*
X89071000Y-50129700D03*
X89071000Y-48859700D03*
%TD*%
D12*
%TO.C,C_33IN*%
X22365500Y-70144700D03*
X24265500Y-70144700D03*
%TD*%
%TO.C,C_WAKE2*%
X94646000Y-62764700D03*
X96546000Y-62764700D03*
%TD*%
D10*
%TO.C,C_CANV2*%
X85121000Y-97281200D03*
X88071000Y-97281200D03*
%TD*%
D12*
%TO.C,C_LINF2*%
X85646000Y-62764700D03*
X87546000Y-62764700D03*
%TD*%
D11*
%TO.C,R7*%
X85683500Y-68764700D03*
X87508500Y-68764700D03*
%TD*%
D10*
%TO.C,C_BAT1A*%
X85121000Y-16248200D03*
X88071000Y-16248200D03*
%TD*%
D12*
%TO.C,C_BAT1B*%
X94646000Y-16248200D03*
X96546000Y-16248200D03*
%TD*%
D15*
%TO.C,D2*%
X7570000Y-102291200D03*
X11570000Y-102291200D03*
%TD*%
D11*
%TO.C,R9*%
X109028700Y-28044700D03*
X110853700Y-28044700D03*
%TD*%
D10*
%TO.C,C_33OUT2*%
X21840500Y-76144700D03*
X24790500Y-76144700D03*
%TD*%
D16*
%TO.C,U_OPTO*%
X106718000Y-8328200D03*
X106718000Y-10868200D03*
X116093000Y-10868200D03*
X116093000Y-8328200D03*
%TD*%
D10*
%TO.C,C_REGIN2*%
X21840500Y-58144700D03*
X24790500Y-58144700D03*
%TD*%
D15*
%TO.C,D3*%
X118405500Y-15598200D03*
X122405500Y-15598200D03*
%TD*%
D17*
%TO.C,U_33*%
X8165500Y-67844700D03*
X8165500Y-70144700D03*
D18*
X14465500Y-70144700D03*
D17*
X8165500Y-72444700D03*
%TD*%
D14*
%TO.C,U_LIN1*%
X84121000Y-8343200D03*
X84121000Y-9613200D03*
X84121000Y-10883200D03*
X84121000Y-12153200D03*
X89071000Y-12153200D03*
X89071000Y-10883200D03*
X89071000Y-9613200D03*
X89071000Y-8343200D03*
%TD*%
D13*
%TO.C,D4*%
X93946000Y-28248200D03*
X97246000Y-28248200D03*
%TD*%
D11*
%TO.C,R8*%
X94683500Y-97281200D03*
X96508500Y-97281200D03*
%TD*%
%TO.C,R1*%
X119493000Y-9598200D03*
X121318000Y-9598200D03*
%TD*%
D12*
%TO.C,C16*%
X117991200Y-34044700D03*
X119891200Y-34044700D03*
%TD*%
%TO.C,C_33OUT1*%
X10365500Y-76144700D03*
X12265500Y-76144700D03*
%TD*%
D11*
%TO.C,R_REV*%
X22403000Y-38144700D03*
X24228000Y-38144700D03*
%TD*%
D12*
%TO.C,C_BAT2B*%
X94646000Y-56764700D03*
X96546000Y-56764700D03*
%TD*%
D19*
%TO.C,D_Z1*%
X109003700Y-33094700D03*
X109003700Y-34994700D03*
X110878700Y-34044700D03*
%TD*%
%TO.C,Q2*%
X20632500Y-89341200D03*
X20632500Y-91241200D03*
X22507500Y-90291200D03*
%TD*%
D11*
%TO.C,R3*%
X8657500Y-96291200D03*
X10482500Y-96291200D03*
%TD*%
D12*
%TO.C,C_LINF1*%
X85646000Y-22248200D03*
X87546000Y-22248200D03*
%TD*%
%TO.C,C_CANV1*%
X94646000Y-91281200D03*
X96546000Y-91281200D03*
%TD*%
D11*
%TO.C,R_RXD2*%
X94683500Y-50764700D03*
X96508500Y-50764700D03*
%TD*%
D10*
%TO.C,C_BAT2A*%
X85121000Y-56764700D03*
X88071000Y-56764700D03*
%TD*%
M02*
